VelekaWorld-Regular.ufo
<glyph name="dollar" format="2">
  <advance width="562"/>
  <unicode hex="0024"/>
  <outline>
    <contour>
      <point x="57" y="24" type="curve"/>
      <point x="57" y="194" type="line"/>
      <point x="107" y="194" type="line"/>
      <point x="125" y="82" type="line"/>
      <point x="149" y="55"/>
      <point x="208" y="47"/>
      <point x="259" y="47" type="curve"/>
      <point x="259" y="300" type="line"/>
      <point x="164.641" y="320.402"/>
      <point x="73" y="369.969"/>
      <point x="73" y="484" type="curve" smooth="yes"/>
      <point x="73" y="598.047"/>
      <point x="162.461" y="651.355"/>
      <point x="259" y="668" type="curve"/>
      <point x="259" y="743" type="line"/>
      <point x="305" y="743" type="line"/>
      <point x="305" y="671" type="line"/>
      <point x="369" y="671"/>
      <point x="425" y="660"/>
      <point x="476" y="648" type="curve"/>
      <point x="476" y="490" type="line"/>
      <point x="424" y="490" type="line"/>
      <point x="409" y="596" type="line"/>
      <point x="393.853" y="613"/>
      <point x="359.52" y="622"/>
      <point x="306" y="622" type="curve"/>
      <point x="306" y="383" type="line"/>
      <point x="406" y="354"/>
      <point x="504" y="318"/>
      <point x="504" y="188" type="curve" smooth="yes"/>
      <point x="504" y="78.6832"/>
      <point x="404.595" y="4.8686"/>
      <point x="305" y="-2" type="curve"/>
      <point x="305" y="-105" type="line"/>
      <point x="259" y="-105" type="line"/>
      <point x="259" y="-2" type="line"/>
      <point x="188" y="2"/>
      <point x="116" y="8"/>
    </contour>
    <contour>
      <point x="167" y="504" type="curve" smooth="yes"/>
      <point x="167" y="439"/>
      <point x="215" y="415"/>
      <point x="261" y="397" type="curve"/>
      <point x="261" y="618" type="line"/>
      <point x="207" y="607"/>
      <point x="167" y="569"/>
    </contour>
    <contour>
      <point x="306" y="53" type="line"/>
      <point x="367" y="62"/>
      <point x="414" y="102"/>
      <point x="414" y="171" type="curve" smooth="yes"/>
      <point x="414" y="245"/>
      <point x="362" y="271"/>
      <point x="306" y="290" type="curve"/>
    </contour>
  </outline>
</glyph>
<glyph name="quotesingle" format="2">
  <advance width="170"/>
  <unicode hex="0027"/>
  <outline>
    <contour>
      <point x="43" y="665" type="line"/>
      <point x="43" y="694"/>
      <point x="56" y="714"/>
      <point x="85" y="714" type="curve" smooth="yes"/>
      <point x="114" y="714"/>
      <point x="128" y="694"/>
      <point x="128" y="665" type="curve"/>
      <point x="94" y="421" type="line"/>
      <point x="78" y="421" type="line"/>
    </contour>
  </outline>
</glyph>
<glyph name="five" format="2">
  <advance width="562"/>
  <unicode hex="0035"/>
  <outline>
    <contour>
      <point x="46" y="102" type="curve" smooth="yes"/>
      <point x="46" y="138"/>
      <point x="73" y="158"/>
      <point x="109" y="158" type="curve" smooth="yes"/>
      <point x="119.769" y="158"/>
      <point x="137.269" y="156"/>
      <point x="144" y="154" type="curve"/>
      <point x="173" y="49" type="line"/>
      <point x="189.26" y="40.0287"/>
      <point x="223.086" y="33"/>
      <point x="250" y="33" type="curve" smooth="yes"/>
      <point x="344.038" y="33"/>
      <point x="415" y="102.63"/>
      <point x="415" y="194" type="curve" smooth="yes"/>
      <point x="415" y="301"/>
      <point x="350" y="359"/>
      <point x="244" y="359" type="curve" smooth="yes"/>
      <point x="185.026" y="359"/>
      <point x="129.316" y="341.234"/>
      <point x="85" y="324" type="curve"/>
      <point x="85" y="671" type="line"/>
      <point x="471" y="671" type="line"/>
      <point x="471" y="586" type="line"/>
      <point x="156" y="586" type="line"/>
      <point x="156" y="396" type="line"/>
      <point x="188" y="407"/>
      <point x="240.927" y="422"/>
      <point x="292" y="422" type="curve" smooth="yes"/>
      <point x="427.418" y="422"/>
      <point x="518" y="351.255"/>
      <point x="518" y="217" type="curve" smooth="yes"/>
      <point x="518" y="59.1036"/>
      <point x="395.261" y="-16"/>
      <point x="236" y="-16" type="curve" smooth="yes"/>
      <point x="156.066" y="-16"/>
      <point x="46" y="26.7723"/>
    </contour>
  </outline>
</glyph>
<glyph name="eight" format="2">
  <advance width="562"/>
  <unicode hex="0038"/>
  <outline>
    <contour>
      <point x="40" y="177" type="curve" smooth="yes"/>
      <point x="40" y="252.619"/>
      <point x="85.4052" y="305.962"/>
      <point x="183" y="345" type="curve"/>
      <point x="110.321" y="372.835"/>
      <point x="67" y="429.6"/>
      <point x="67" y="497" type="curve" smooth="yes"/>
      <point x="67" y="612.77"/>
      <point x="149.916" y="686"/>
      <point x="281" y="686" type="curve" smooth="yes"/>
      <point x="405.095" y="686"/>
      <point x="495" y="613.74"/>
      <point x="495" y="514" type="curve" smooth="yes"/>
      <point x="495" y="447.213"/>
      <point x="450.128" y="387.136"/>
      <point x="374" y="352" type="curve"/>
      <point x="476.484" y="314.243"/>
      <point x="522" y="261.346"/>
      <point x="522" y="180" type="curve" smooth="yes"/>
      <point x="522" y="62.2053"/>
      <point x="423.656" y="-19"/>
      <point x="281" y="-19" type="curve" smooth="yes"/>
      <point x="133.849" y="-19"/>
      <point x="40" y="57.3253"/>
    </contour>
    <contour>
      <point x="133" y="188" type="curve" smooth="yes"/>
      <point x="133" y="94.3716"/>
      <point x="188.62" y="38"/>
      <point x="281" y="38" type="curve" smooth="yes"/>
      <point x="362.143" y="38"/>
      <point x="421" y="90.1303"/>
      <point x="421" y="162" type="curve" smooth="yes"/>
      <point x="421" y="225.809"/>
      <point x="358.827" y="276.991"/>
      <point x="223" y="325" type="curve"/>
      <point x="161.187" y="292.201"/>
      <point x="133" y="249.294"/>
    </contour>
    <contour>
      <point x="167" y="521" type="curve" smooth="yes"/>
      <point x="167" y="455.65"/>
      <point x="215.006" y="411.742"/>
      <point x="331" y="371" type="curve"/>
      <point x="380.033" y="407.13"/>
      <point x="404" y="451.123"/>
      <point x="404" y="505" type="curve" smooth="yes"/>
      <point x="404" y="582.959"/>
      <point x="355.162" y="635"/>
      <point x="282" y="635" type="curve" smooth="yes"/>
      <point x="216.626" y="635"/>
      <point x="167" y="585.806"/>
    </contour>
  </outline>
</glyph>
<glyph name="colon" format="2">
  <advance width="279"/>
  <unicode hex="003A"/>
  <outline>
    <contour>
      <point x="61" y="55" type="curve" smooth="yes"/>
      <point x="61" y="93.3445"/>
      <point x="90.7751" y="122"/>
      <point x="128" y="122" type="curve" smooth="yes"/>
      <point x="166" y="122"/>
      <point x="196" y="93"/>
      <point x="196" y="55" type="curve" smooth="yes"/>
      <point x="196" y="17"/>
      <point x="166" y="-12"/>
      <point x="128" y="-12" type="curve" smooth="yes"/>
      <point x="90" y="-12"/>
      <point x="61" y="17"/>
    </contour>
    <contour>
      <point x="61" y="427" type="curve" smooth="yes"/>
      <point x="61" y="465.345"/>
      <point x="90.7751" y="494"/>
      <point x="128" y="494" type="curve" smooth="yes"/>
      <point x="166" y="494"/>
      <point x="196" y="465"/>
      <point x="196" y="427" type="curve" smooth="yes"/>
      <point x="196" y="389"/>
      <point x="166" y="360"/>
      <point x="128" y="360" type="curve" smooth="yes"/>
      <point x="90" y="360"/>
      <point x="61" y="389"/>
    </contour>
  </outline>
</glyph>
<glyph name="question" format="2">
  <advance width="485"/>
  <unicode hex="003F"/>
  <outline>
    <contour>
      <point x="51" y="588" type="curve" smooth="yes"/>
      <point x="51" y="647.794"/>
      <point x="113.967" y="687"/>
      <point x="210" y="687" type="curve" smooth="yes"/>
      <point x="334.343" y="687"/>
      <point x="417" y="615.524"/>
      <point x="417" y="508" type="curve" smooth="yes"/>
      <point x="417" y="413.247"/>
      <point x="358.3" y="346.206"/>
      <point x="227" y="291" type="curve"/>
      <point x="227" y="180" type="line"/>
      <point x="171" y="180" type="line"/>
      <point x="171" y="325" type="line"/>
      <point x="263.42" y="357.428"/>
      <point x="316" y="420.887"/>
      <point x="316" y="500" type="curve" smooth="yes"/>
      <point x="316" y="590.892"/>
      <point x="267.185" y="638"/>
      <point x="173" y="638" type="curve"/>
      <point x="132" y="536" type="line"/>
      <point x="127.387" y="534.847"/>
      <point x="120.613" y="534"/>
      <point x="116" y="534" type="curve" smooth="yes"/>
      <point x="74.1296" y="534"/>
      <point x="51" y="553.215"/>
    </contour>
    <contour>
      <point x="140" y="49" type="curve" smooth="yes"/>
      <point x="140" y="85"/>
      <point x="165" y="110"/>
      <point x="201" y="110" type="curve" smooth="yes"/>
      <point x="236" y="110"/>
      <point x="263" y="83"/>
      <point x="263" y="48" type="curve" smooth="yes"/>
      <point x="263" y="13.2823"/>
      <point x="236.287" y="-13"/>
      <point x="201" y="-13" type="curve" smooth="yes"/>
      <point x="166.282" y="-13"/>
      <point x="140" y="13.7131"/>
    </contour>
  </outline>
</glyph>
<glyph name="J" format="2">
  <advance width="484"/>
  <unicode hex="004A"/>
  <outline>
    <contour>
      <point x="25" y="12" type="curve"/>
      <point x="25" y="183" type="line"/>
      <point x="85" y="183" type="line"/>
      <point x="107" y="61" type="line" smooth="yes"/>
      <point x="110.54" y="41.3667"/>
      <point x="132" y="34"/>
      <point x="153" y="34" type="curve" smooth="yes"/>
      <point x="261" y="34"/>
      <point x="279" y="134"/>
      <point x="279" y="245" type="curve" smooth="yes"/>
      <point x="279" y="601" type="line" smooth="yes"/>
      <point x="279" y="613"/>
      <point x="270.015" y="622.237"/>
      <point x="258" y="623" type="curve" smooth="yes"/>
      <point x="195" y="627" type="line"/>
      <point x="195" y="670" type="line"/>
      <point x="459" y="670" type="line"/>
      <point x="459" y="627" type="line"/>
      <point x="401" y="623" type="line" smooth="yes"/>
      <point x="389.983" y="622.24"/>
      <point x="380" y="612"/>
      <point x="380" y="601" type="curve" smooth="yes"/>
      <point x="380" y="252" type="line" smooth="yes"/>
      <point x="380" y="89"/>
      <point x="324" y="-17"/>
      <point x="160" y="-17" type="curve" smooth="yes"/>
      <point x="107.879" y="-17"/>
      <point x="60.5663" y="-3.24271"/>
    </contour>
  </outline>
</glyph>
<glyph name="V" format="2">
  <advance width="666"/>
  <unicode hex="0056"/>
  <outline>
    <contour>
      <point x="9" y="628" type="line"/>
      <point x="9" y="671" type="line"/>
      <point x="248" y="671" type="line"/>
      <point x="248" y="628" type="line"/>
      <point x="189" y="623" type="line"/>
      <point x="184" y="622"/>
      <point x="179" y="612"/>
      <point x="181" y="605" type="curve"/>
      <point x="357" y="111" type="line"/>
      <point x="526" y="603" type="line" smooth="yes"/>
      <point x="529" y="612"/>
      <point x="520" y="622"/>
      <point x="512" y="623" type="curve"/>
      <point x="457" y="628" type="line"/>
      <point x="457" y="671" type="line"/>
      <point x="656" y="671" type="line"/>
      <point x="656" y="628" type="line"/>
      <point x="598" y="617" type="line"/>
      <point x="373" y="-16" type="line"/>
      <point x="297" y="-16" type="line"/>
      <point x="68" y="618" type="line"/>
    </contour>
  </outline>
</glyph>
<glyph name="bracketright" format="2">
  <advance width="422"/>
  <unicode hex="005D"/>
  <outline>
    <contour>
      <point x="44" y="-86" type="line"/>
      <point x="201" y="-86" type="line"/>
      <point x="201" y="663" type="line"/>
      <point x="44" y="663" type="line"/>
      <point x="44" y="708" type="line"/>
      <point x="288" y="708" type="line"/>
      <point x="288" y="-132" type="line"/>
      <point x="44" y="-132" type="line"/>
    </contour>
  </outline>
</glyph>
<glyph name="grave" format="2">
  <advance width="350"/>
  <unicode hex="0060"/>
  <outline>
    <contour>
      <point x="-1" y="689" type="curve" smooth="yes"/>
      <point x="-1" y="717"/>
      <point x="17" y="734"/>
      <point x="45" y="734" type="curve" smooth="yes"/>
      <point x="75" y="734"/>
      <point x="85" y="723"/>
      <point x="99" y="707" type="curve" smooth="yes"/>
      <point x="232" y="552" type="line"/>
      <point x="175" y="552" type="line"/>
      <point x="23" y="649" type="line" smooth="yes"/>
      <point x="9" y="658"/>
      <point x="-1" y="671"/>
    </contour>
  </outline>
</glyph>
<glyph name="b" format="2">
  <advance width="555"/>
  <unicode hex="0062"/>
  <outline>
    <contour>
      <point x="14" y="665" type="line"/>
      <point x="14" y="698" type="line"/>
      <point x="143" y="737" type="line"/>
      <point x="183" y="737" type="line"/>
      <point x="183" y="458" type="line"/>
      <point x="221" y="476"/>
      <point x="265" y="495"/>
      <point x="320" y="495" type="curve" smooth="yes"/>
      <point x="452" y="495"/>
      <point x="520" y="396"/>
      <point x="520" y="264" type="curve" smooth="yes"/>
      <point x="520" y="89"/>
      <point x="411" y="0"/>
      <point x="234" y="0" type="curve" smooth="yes"/>
      <point x="90" y="0" type="line"/>
      <point x="90" y="665" type="line"/>
    </contour>
    <contour>
      <point x="183" y="51" type="line"/>
      <point x="197" y="49"/>
      <point x="215" y="47"/>
      <point x="231" y="47" type="curve" smooth="yes"/>
      <point x="362" y="47"/>
      <point x="418" y="112"/>
      <point x="418" y="244" type="curve" smooth="yes"/>
      <point x="418" y="358"/>
      <point x="371" y="436"/>
      <point x="265" y="436" type="curve" smooth="yes"/>
      <point x="235" y="436"/>
      <point x="207" y="428"/>
      <point x="183" y="420" type="curve"/>
    </contour>
  </outline>
</glyph>
<glyph name="braceleft" format="2">
  <advance width="487"/>
  <unicode hex="007B"/>
  <outline>
    <contour>
      <point x="58" y="269" type="line"/>
      <point x="58" y="314" type="line"/>
      <point x="75" y="314" type="line"/>
      <point x="171.58" y="316.827"/>
      <point x="203" y="348.983"/>
      <point x="203" y="445" type="curve" smooth="yes"/>
      <point x="203" y="531" type="line" smooth="yes"/>
      <point x="203" y="650.876"/>
      <point x="259.773" y="700.733"/>
      <point x="400" y="704" type="curve"/>
      <point x="418" y="704" type="line"/>
      <point x="418" y="663" type="line"/>
      <point x="400" y="663" type="line"/>
      <point x="318.814" y="658.462"/>
      <point x="294.438" y="624.974"/>
      <point x="293" y="516" type="curve"/>
      <point x="293" y="485" type="line" smooth="yes"/>
      <point x="293" y="364.164"/>
      <point x="256.897" y="311.748"/>
      <point x="158" y="289" type="curve"/>
      <point x="158" y="293" type="line"/>
      <point x="257.876" y="267.09"/>
      <point x="293" y="215.835"/>
      <point x="293" y="96" type="curve" smooth="yes"/>
      <point x="293" y="49" type="line" smooth="yes"/>
      <point x="293" y="-39.6138"/>
      <point x="327.621" y="-82"/>
      <point x="400" y="-82" type="curve" smooth="yes"/>
      <point x="418" y="-82" type="line"/>
      <point x="418" y="-123" type="line"/>
      <point x="400" y="-123" type="line"/>
      <point x="259.079" y="-118.432"/>
      <point x="202" y="-68.2718"/>
      <point x="202" y="51" type="curve" smooth="yes"/>
      <point x="202" y="137" type="line" smooth="yes"/>
      <point x="202" y="233.484"/>
      <point x="170.773" y="265.94"/>
      <point x="75" y="269" type="curve"/>
    </contour>
  </outline>
</glyph>
<glyph name="braceright" format="2">
  <advance width="487"/>
  <unicode hex="007D"/>
  <outline>
    <contour>
      <point x="69" y="-123" type="line"/>
      <point x="69" y="-82" type="line"/>
      <point x="87" y="-82" type="line" smooth="yes"/>
      <point x="159.379" y="-82"/>
      <point x="194" y="-39.6139"/>
      <point x="194" y="49" type="curve" smooth="yes"/>
      <point x="194" y="96" type="line" smooth="yes"/>
      <point x="194" y="215.835"/>
      <point x="229.124" y="267.09"/>
      <point x="329" y="293" type="curve"/>
      <point x="329" y="289" type="line"/>
      <point x="230.103" y="311.748"/>
      <point x="194" y="364.164"/>
      <point x="194" y="485" type="curve" smooth="yes"/>
      <point x="194" y="516" type="line"/>
      <point x="192.562" y="624.974"/>
      <point x="168.186" y="658.462"/>
      <point x="87" y="663" type="curve"/>
      <point x="69" y="663" type="line"/>
      <point x="69" y="704" type="line"/>
      <point x="87" y="704" type="line"/>
      <point x="227.227" y="700.733"/>
      <point x="284" y="650.876"/>
      <point x="284" y="531" type="curve" smooth="yes"/>
      <point x="284" y="445" type="line" smooth="yes"/>
      <point x="284" y="348.983"/>
      <point x="315.42" y="316.827"/>
      <point x="412" y="314" type="curve"/>
      <point x="429" y="314" type="line"/>
      <point x="429" y="269" type="line"/>
      <point x="412" y="269" type="line"/>
      <point x="316.227" y="265.94"/>
      <point x="285" y="233.484"/>
      <point x="285" y="137" type="curve" smooth="yes"/>
      <point x="285" y="51" type="line" smooth="yes"/>
      <point x="285" y="-68.2718"/>
      <point x="227.921" y="-118.432"/>
      <point x="87" y="-123" type="curve"/>
    </contour>
  </outline>
</glyph>
<glyph name="exclamdown" format="2">
  <advance width="337"/>
  <unicode hex="00A1"/>
  <outline>
    <contour>
      <point x="106" y="432" type="curve" smooth="yes"/>
      <point x="106" y="467"/>
      <point x="133" y="494"/>
      <point x="168" y="494" type="curve" smooth="yes"/>
      <point x="203" y="494"/>
      <point x="229" y="467"/>
      <point x="229" y="432" type="curve" smooth="yes"/>
      <point x="229" y="396"/>
      <point x="204" y="371"/>
      <point x="168" y="371" type="curve" smooth="yes"/>
      <point x="132" y="371"/>
      <point x="106" y="396"/>
    </contour>
    <contour>
      <point x="107" y="-144" type="curve"/>
      <point x="144" y="301" type="line"/>
      <point x="192" y="301" type="line"/>
      <point x="229" y="-146" type="line"/>
      <point x="229" y="-184"/>
      <point x="210.7" y="-205"/>
      <point x="168" y="-205" type="curve" smooth="yes"/>
      <point x="127.991" y="-205"/>
      <point x="107" y="-182.595"/>
    </contour>
  </outline>
</glyph>
<glyph name="currency" format="2">
  <advance width="609"/>
  <unicode hex="00A4"/>
  <outline>
    <contour>
      <point x="42" y="196" type="line"/>
      <point x="145" y="299" type="line"/>
      <point x="119" y="331"/>
      <point x="101" y="374"/>
      <point x="101" y="427" type="curve" smooth="yes"/>
      <point x="101" y="484"/>
      <point x="119" y="529"/>
      <point x="147" y="559" type="curve"/>
      <point x="42" y="664" type="line"/>
      <point x="78" y="700" type="line"/>
      <point x="183" y="595" type="line"/>
      <point x="214" y="621"/>
      <point x="260" y="639"/>
      <point x="313" y="639" type="curve" smooth="yes"/>
      <point x="366" y="639"/>
      <point x="409" y="620"/>
      <point x="440" y="594" type="curve"/>
      <point x="546" y="700" type="line"/>
      <point x="582" y="664" type="line"/>
      <point x="478" y="560" type="line"/>
      <point x="503" y="530"/>
      <point x="523" y="480"/>
      <point x="523" y="428" type="curve" smooth="yes"/>
      <point x="523" y="373"/>
      <point x="505.614" y="331"/>
      <point x="478" y="299" type="curve"/>
      <point x="581" y="196" type="line"/>
      <point x="545" y="160" type="line"/>
      <point x="442" y="263" type="line"/>
      <point x="411" y="236"/>
      <point x="367" y="216"/>
      <point x="313" y="216" type="curve" smooth="yes"/>
      <point x="256" y="216"/>
      <point x="214" y="235"/>
      <point x="181" y="263" type="curve"/>
      <point x="78" y="160" type="line"/>
    </contour>
    <contour>
      <point x="157" y="427" type="curve" smooth="yes"/>
      <point x="157" y="337.207"/>
      <point x="223.272" y="273"/>
      <point x="312" y="273" type="curve" smooth="yes"/>
      <point x="396.706" y="273"/>
      <point x="466" y="343.253"/>
      <point x="466" y="428" type="curve" smooth="yes"/>
      <point x="466" y="517.067"/>
      <point x="400.895" y="582"/>
      <point x="313" y="582" type="curve" smooth="yes"/>
      <point x="223.554" y="582"/>
      <point x="157" y="516.297"/>
    </contour>
  </outline>
</glyph>
<glyph name="logicalnot" format="2">
  <advance width="620"/>
  <unicode hex="00AC"/>
  <outline>
    <contour>
      <point x="40" y="360" type="line"/>
      <point x="40" y="420" type="line"/>
      <point x="580" y="420" type="line"/>
      <point x="580" y="189" type="line"/>
      <point x="520" y="189" type="line"/>
      <point x="520" y="360" type="line"/>
    </contour>
  </outline>
</glyph>
<glyph name="macron" format="2">
  <advance width="334"/>
  <unicode hex="00AF"/>
  <outline>
    <contour>
      <point x="0" y="586" type="line"/>
      <point x="0" y="649" type="line"/>
      <point x="335" y="649" type="line"/>
      <point x="335" y="586" type="line"/>
    </contour>
  </outline>
</glyph>
<glyph name="uni00B3" format="2">
  <advance width="366"/>
  <unicode hex="00B3"/>
  <outline>
    <contour>
      <point x="32" y="442" type="curve" smooth="yes"/>
      <point x="32" y="462"/>
      <point x="48" y="475"/>
      <point x="70" y="475" type="curve" smooth="yes"/>
      <point x="77" y="475"/>
      <point x="85" y="474"/>
      <point x="92" y="471" type="curve"/>
      <point x="112" y="417" type="line"/>
      <point x="129" y="408"/>
      <point x="148" y="404"/>
      <point x="169" y="404" type="curve" smooth="yes"/>
      <point x="224.752" y="404"/>
      <point x="270" y="442.082"/>
      <point x="270" y="497" type="curve" smooth="yes"/>
      <point x="270" y="551"/>
      <point x="225" y="572"/>
      <point x="172" y="572" type="curve" smooth="yes"/>
      <point x="157" y="572"/>
      <point x="146" y="571"/>
      <point x="133" y="569" type="curve"/>
      <point x="133" y="607" type="line"/>
      <point x="137" y="606"/>
      <point x="147" y="606"/>
      <point x="150" y="606" type="curve" smooth="yes"/>
      <point x="205.899" y="606"/>
      <point x="255" y="628.037"/>
      <point x="255" y="683" type="curve" smooth="yes"/>
      <point x="255" y="732"/>
      <point x="218" y="759"/>
      <point x="170" y="759" type="curve" smooth="yes"/>
      <point x="146" y="759"/>
      <point x="125" y="752"/>
      <point x="110" y="744" type="curve"/>
      <point x="110" y="685" type="line"/>
      <point x="105" y="680"/>
      <point x="91" y="676"/>
      <point x="80" y="676" type="curve" smooth="yes"/>
      <point x="58" y="676"/>
      <point x="43" y="688"/>
      <point x="43" y="710" type="curve" smooth="yes"/>
      <point x="43" y="769.133"/>
      <point x="123.382" y="791"/>
      <point x="185" y="791" type="curve" smooth="yes"/>
      <point x="254.653" y="791"/>
      <point x="318" y="759.244"/>
      <point x="318" y="691" type="curve" smooth="yes"/>
      <point x="318" y="632.494"/>
      <point x="268.022" y="604.644"/>
      <point x="214" y="590" type="curve"/>
      <point x="214" y="594" type="line"/>
      <point x="277.919" y="591.446"/>
      <point x="336" y="561.73"/>
      <point x="336" y="496" type="curve" smooth="yes"/>
      <point x="336" y="412.51"/>
      <point x="250.658" y="373"/>
      <point x="166" y="373" type="curve" smooth="yes"/>
      <point x="110.47" y="373"/>
      <point x="32" y="391.485"/>
    </contour>
  </outline>
</glyph>
<glyph name="acute" format="2">
  <advance width="350"/>
  <unicode hex="00B4"/>
  <outline>
    <contour>
      <point x="120" y="551" type="line"/>
      <point x="252" y="706" type="line" smooth="yes"/>
      <point x="265" y="722"/>
      <point x="276" y="733"/>
      <point x="305" y="733" type="curve" smooth="yes"/>
      <point x="334.658" y="733"/>
      <point x="352" y="716.588"/>
      <point x="352" y="688" type="curve" smooth="yes"/>
      <point x="352" y="669"/>
      <point x="340" y="655"/>
      <point x="329" y="648" type="curve" smooth="yes"/>
      <point x="176" y="551" type="line"/>
    </contour>
  </outline>
</glyph>
<glyph name="periodcentered" format="2">
  <advance width="187"/>
  <unicode hex="00B7"/>
  <outline>
    <contour>
      <point x="35" y="340" type="curve" smooth="yes"/>
      <point x="35" y="374"/>
      <point x="60" y="399"/>
      <point x="94" y="399" type="curve" smooth="yes"/>
      <point x="128" y="399"/>
      <point x="153" y="374"/>
      <point x="153" y="340" type="curve" smooth="yes"/>
      <point x="153" y="306"/>
      <point x="128" y="281"/>
      <point x="94" y="281" type="curve" smooth="yes"/>
      <point x="60" y="281"/>
      <point x="35" y="306"/>
    </contour>
  </outline>
</glyph>
<glyph name="uni00B9" format="2">
  <advance width="366"/>
  <unicode hex="00B9"/>
  <outline>
    <contour>
      <point x="49" y="726" type="line"/>
      <point x="49" y="752" type="line"/>
      <point x="190" y="792" type="line"/>
      <point x="214" y="792" type="line"/>
      <point x="214" y="427" type="line" smooth="yes"/>
      <point x="214" y="420"/>
      <point x="222" y="414"/>
      <point x="229" y="414" type="curve"/>
      <point x="290" y="410" type="line"/>
      <point x="290" y="383" type="line"/>
      <point x="70" y="383" type="line"/>
      <point x="70" y="410" type="line"/>
      <point x="136" y="414" type="line"/>
      <point x="144" y="414"/>
      <point x="150" y="419"/>
      <point x="150" y="427" type="curve" smooth="yes"/>
      <point x="150" y="742" type="line"/>
    </contour>
  </outline>
</glyph>
<glyph name="questiondown" format="2">
  <advance width="485"/>
  <unicode hex="00BF"/>
  <outline>
    <contour>
      <point x="68" y="-25" type="curve" smooth="yes"/>
      <point x="68" y="101.668"/>
      <point x="170.286" y="153.243"/>
      <point x="258" y="192" type="curve"/>
      <point x="258" y="304" type="line"/>
      <point x="314" y="304" type="line"/>
      <point x="314" y="159" type="line"/>
      <point x="242.005" y="133.739"/>
      <point x="170" y="79.2562"/>
      <point x="170" y="-18" type="curve" smooth="yes"/>
      <point x="170" y="-110"/>
      <point x="221" y="-155"/>
      <point x="313" y="-155" type="curve"/>
      <point x="354" y="-54" type="line"/>
      <point x="359.648" y="-51.4117"/>
      <point x="367.2" y="-50"/>
      <point x="372" y="-50" type="curve" smooth="yes"/>
      <point x="408.246" y="-50"/>
      <point x="434" y="-67"/>
      <point x="434" y="-105" type="curve" smooth="yes"/>
      <point x="434" y="-178.046"/>
      <point x="353.514" y="-204"/>
      <point x="276" y="-204" type="curve" smooth="yes"/>
      <point x="159.461" y="-204"/>
      <point x="68" y="-140.56"/>
    </contour>
    <contour>
      <point x="222" y="435" type="curve" smooth="yes"/>
      <point x="222" y="471"/>
      <point x="248" y="496"/>
      <point x="284" y="496" type="curve" smooth="yes"/>
      <point x="319" y="496"/>
      <point x="345" y="469"/>
      <point x="345" y="434" type="curve" smooth="yes"/>
      <point x="345" y="399"/>
      <point x="319" y="373"/>
      <point x="284" y="373" type="curve" smooth="yes"/>
      <point x="248" y="373"/>
      <point x="222" y="399"/>
    </contour>
  </outline>
</glyph>
<glyph name="Agrave" format="2">
  <advance width="673"/>
  <unicode hex="00C0"/>
  <outline>
    <contour>
      <point x="5" y="0" type="line"/>
      <point x="5" y="43" type="line"/>
      <point x="63" y="56" type="line"/>
      <point x="296" y="688" type="line"/>
      <point x="371" y="688" type="line"/>
      <point x="603" y="71" type="line" smooth="yes"/>
      <point x="608.231" y="57.0869"/>
      <point x="611.054" y="53.3018"/>
      <point x="624" y="51" type="curve" smooth="yes"/>
      <point x="669" y="43" type="line"/>
      <point x="669" y="0" type="line"/>
      <point x="431" y="0" type="line"/>
      <point x="431" y="43" type="line"/>
      <point x="489" y="49" type="line" smooth="yes"/>
      <point x="496.712" y="49.7979"/>
      <point x="500" y="54.1426"/>
      <point x="500" y="61" type="curve"/>
      <point x="500" y="62.667"/>
      <point x="499.396" y="64.9492"/>
      <point x="499" y="66" type="curve"/>
      <point x="430" y="249" type="line"/>
      <point x="199" y="249" type="line"/>
      <point x="133" y="69" type="line"/>
      <point x="132.631" y="67.9922"/>
      <point x="132" y="65"/>
      <point x="132" y="63" type="curve"/>
      <point x="132" y="53.9414"/>
      <point x="138.009" y="49.9141"/>
      <point x="147" y="49" type="curve" smooth="yes"/>
      <point x="206" y="43" type="line"/>
      <point x="206" y="0" type="line"/>
    </contour>
    <contour>
      <point x="129" y="885" type="curve" smooth="yes"/>
      <point x="129" y="913"/>
      <point x="147" y="930"/>
      <point x="175" y="930" type="curve" smooth="yes"/>
      <point x="205" y="930"/>
      <point x="215" y="919"/>
      <point x="229" y="903" type="curve" smooth="yes"/>
      <point x="362" y="748" type="line"/>
      <point x="305" y="748" type="line"/>
      <point x="153" y="845" type="line"/>
      <point x="140" y="854"/>
      <point x="129" y="864"/>
    </contour>
    <contour>
      <point x="217" y="296" type="line"/>
      <point x="412" y="296" type="line"/>
      <point x="314" y="558" type="line"/>
    </contour>
  </outline>
</glyph>
<glyph name="Atilde" format="2">
  <advance width="673"/>
  <unicode hex="00C3"/>
  <outline>
    <contour>
      <point x="5" y="0" type="line"/>
      <point x="5" y="43" type="line"/>
      <point x="63" y="56" type="line"/>
      <point x="296" y="688" type="line"/>
      <point x="371" y="688" type="line"/>
      <point x="603" y="71" type="line" smooth="yes"/>
      <point x="608.231" y="57.0869"/>
      <point x="611.054" y="53.3018"/>
      <point x="624" y="51" type="curve" smooth="yes"/>
      <point x="669" y="43" type="line"/>
      <point x="669" y="0" type="line"/>
      <point x="431" y="0" type="line"/>
      <point x="431" y="43" type="line"/>
      <point x="489" y="49" type="line" smooth="yes"/>
      <point x="496.712" y="49.7979"/>
      <point x="500" y="54.1426"/>
      <point x="500" y="61" type="curve"/>
      <point x="500" y="62.667"/>
      <point x="499.396" y="64.9492"/>
      <point x="499" y="66" type="curve"/>
      <point x="430" y="249" type="line"/>
      <point x="199" y="249" type="line"/>
      <point x="133" y="69" type="line"/>
      <point x="132.631" y="67.9922"/>
      <point x="132" y="65"/>
      <point x="132" y="63" type="curve"/>
      <point x="132" y="53.9414"/>
      <point x="138.009" y="49.9141"/>
      <point x="147" y="49" type="curve" smooth="yes"/>
      <point x="206" y="43" type="line"/>
      <point x="206" y="0" type="line"/>
    </contour>
    <contour>
      <point x="160" y="748" type="line"/>
      <point x="175" y="803"/>
      <point x="205" y="858"/>
      <point x="275" y="858" type="curve" smooth="yes"/>
      <point x="302" y="858"/>
      <point x="320" y="847"/>
      <point x="338" y="836" type="curve" smooth="yes"/>
      <point x="359" y="823"/>
      <point x="380" y="810"/>
      <point x="413" y="810" type="curve" smooth="yes"/>
      <point x="441" y="810"/>
      <point x="463" y="832"/>
      <point x="466" y="858" type="curve"/>
      <point x="506" y="858" type="line"/>
      <point x="491" y="803"/>
      <point x="461" y="748"/>
      <point x="391" y="748" type="curve" smooth="yes"/>
      <point x="364" y="748"/>
      <point x="345" y="759"/>
      <point x="326" y="771" type="curve" smooth="yes"/>
      <point x="306" y="783"/>
      <point x="283" y="796"/>
      <point x="252" y="796" type="curve" smooth="yes"/>
      <point x="224" y="796"/>
      <point x="203" y="773"/>
      <point x="200" y="748" type="curve"/>
    </contour>
    <contour>
      <point x="217" y="296" type="line"/>
      <point x="412" y="296" type="line"/>
      <point x="314" y="558" type="line"/>
    </contour>
  </outline>
</glyph>
<glyph name="Eacute" format="2">
  <advance width="583"/>
  <unicode hex="00C9"/>
  <outline>
    <contour>
      <point x="32" y="0" type="line"/>
      <point x="32" y="43" type="line"/>
      <point x="84" y="47" type="line" smooth="yes"/>
      <point x="96" y="48"/>
      <point x="106" y="57"/>
      <point x="106" y="69" type="curve" smooth="yes"/>
      <point x="106" y="602" type="line" smooth="yes"/>
      <point x="106" y="614"/>
      <point x="96" y="623"/>
      <point x="84" y="624" type="curve" smooth="yes"/>
      <point x="32" y="628" type="line"/>
      <point x="32" y="671" type="line"/>
      <point x="518" y="671" type="line"/>
      <point x="518" y="522" type="line"/>
      <point x="458" y="522" type="line"/>
      <point x="443" y="604" type="line"/>
      <point x="441" y="613"/>
      <point x="435" y="623"/>
      <point x="425" y="623" type="curve" smooth="yes"/>
      <point x="208" y="623" type="line"/>
      <point x="208" y="374" type="line"/>
      <point x="358" y="374" type="line" smooth="yes"/>
      <point x="368" y="374"/>
      <point x="374" y="380"/>
      <point x="376" y="391" type="curve"/>
      <point x="386" y="460" type="line"/>
      <point x="437" y="460" type="line"/>
      <point x="437" y="237" type="line"/>
      <point x="386" y="237" type="line"/>
      <point x="377" y="306" type="line"/>
      <point x="376" y="316"/>
      <point x="370" y="324"/>
      <point x="359" y="324" type="curve" smooth="yes"/>
      <point x="209" y="324" type="line"/>
      <point x="209" y="49" type="line"/>
      <point x="462" y="49" type="line" smooth="yes"/>
      <point x="470" y="49"/>
      <point x="478" y="61"/>
      <point x="479" y="68" type="curve"/>
      <point x="497" y="167" type="line"/>
      <point x="551" y="167" type="line"/>
      <point x="551" y="0" type="line"/>
    </contour>
    <contour>
      <point x="247" y="746" type="line"/>
      <point x="379" y="901" type="line"/>
      <point x="391" y="916"/>
      <point x="404" y="928"/>
      <point x="432" y="928" type="curve" smooth="yes"/>
      <point x="461.658" y="928"/>
      <point x="479" y="911.588"/>
      <point x="479" y="883" type="curve" smooth="yes"/>
      <point x="479" y="864"/>
      <point x="467.012" y="849.981"/>
      <point x="456" y="843" type="curve" smooth="yes"/>
      <point x="303" y="746" type="line"/>
    </contour>
  </outline>
</glyph>
<glyph name="Udieresis" format="2">
  <advance width="711"/>
  <unicode hex="00DC"/>
  <outline>
    <contour>
      <point x="31" y="628" type="line"/>
      <point x="31" y="671" type="line"/>
      <point x="285" y="671" type="line"/>
      <point x="285" y="628" type="line"/>
      <point x="228" y="624" type="line" smooth="yes"/>
      <point x="216" y="623"/>
      <point x="207" y="614"/>
      <point x="207" y="602" type="curve" smooth="yes"/>
      <point x="207" y="249" type="line" smooth="yes"/>
      <point x="207" y="122"/>
      <point x="248" y="52"/>
      <point x="376" y="52" type="curve" smooth="yes"/>
      <point x="502" y="52"/>
      <point x="547" y="124"/>
      <point x="547" y="249" type="curve" smooth="yes"/>
      <point x="547" y="602" type="line" smooth="yes"/>
      <point x="547" y="614"/>
      <point x="537" y="623"/>
      <point x="525" y="624" type="curve" smooth="yes"/>
      <point x="468" y="628" type="line"/>
      <point x="468" y="671" type="line"/>
      <point x="685" y="671" type="line"/>
      <point x="685" y="628" type="line"/>
      <point x="627" y="624" type="line" smooth="yes"/>
      <point x="615" y="623"/>
      <point x="606" y="614"/>
      <point x="606" y="602" type="curve" smooth="yes"/>
      <point x="606" y="223" type="line" smooth="yes"/>
      <point x="606" y="57"/>
      <point x="515" y="-15"/>
      <point x="349" y="-15" type="curve" smooth="yes"/>
      <point x="187" y="-15"/>
      <point x="105" y="63"/>
      <point x="105" y="223" type="curve" smooth="yes"/>
      <point x="105" y="602" type="line" smooth="yes"/>
      <point x="105" y="614"/>
      <point x="96" y="623"/>
      <point x="84" y="624" type="curve" smooth="yes"/>
    </contour>
    <contour>
      <point x="200" y="801" type="curve" smooth="yes"/>
      <point x="200" y="832"/>
      <point x="224" y="857"/>
      <point x="255" y="857" type="curve" smooth="yes"/>
      <point x="286" y="857"/>
      <point x="309" y="832"/>
      <point x="309" y="802" type="curve" smooth="yes"/>
      <point x="309" y="771"/>
      <point x="286" y="746"/>
      <point x="255" y="746" type="curve" smooth="yes"/>
      <point x="224" y="746"/>
      <point x="200" y="770"/>
    </contour>
    <contour>
      <point x="407" y="802" type="curve" smooth="yes"/>
      <point x="407" y="832"/>
      <point x="433" y="857"/>
      <point x="463" y="857" type="curve" smooth="yes"/>
      <point x="493" y="857"/>
      <point x="516" y="833"/>
      <point x="516" y="802" type="curve" smooth="yes"/>
      <point x="516" y="771"/>
      <point x="494" y="746"/>
      <point x="463" y="746" type="curve" smooth="yes"/>
      <point x="431" y="746"/>
      <point x="407" y="770"/>
    </contour>
  </outline>
</glyph>
<glyph name="Yacute" format="2">
  <advance width="625"/>
  <unicode hex="00DD"/>
  <outline>
    <contour>
      <point x="10" y="628" type="line"/>
      <point x="10" y="671" type="line"/>
      <point x="247" y="671" type="line"/>
      <point x="247" y="628" type="line"/>
      <point x="197" y="623" type="line" smooth="yes"/>
      <point x="184" y="622"/>
      <point x="179" y="614"/>
      <point x="185" y="603" type="curve" smooth="yes"/>
      <point x="326" y="342" type="line"/>
      <point x="481" y="600" type="line"/>
      <point x="487" y="611"/>
      <point x="477" y="620"/>
      <point x="469" y="621" type="curve" smooth="yes"/>
      <point x="413" y="628" type="line"/>
      <point x="413" y="671" type="line"/>
      <point x="616" y="671" type="line"/>
      <point x="616" y="628" type="line"/>
      <point x="562" y="618" type="line"/>
      <point x="361" y="285" type="line"/>
      <point x="361" y="69" type="line" smooth="yes"/>
      <point x="361" y="58"/>
      <point x="371" y="48"/>
      <point x="382" y="47" type="curve"/>
      <point x="446" y="43" type="line"/>
      <point x="446" y="0" type="line"/>
      <point x="176" y="0" type="line"/>
      <point x="176" y="43" type="line"/>
      <point x="238" y="47" type="line" smooth="yes"/>
      <point x="250" y="48"/>
      <point x="260" y="57"/>
      <point x="260" y="69" type="curve" smooth="yes"/>
      <point x="260" y="270" type="line"/>
      <point x="68" y="616" type="line"/>
    </contour>
    <contour>
      <point x="285" y="746" type="line"/>
      <point x="417" y="901" type="line"/>
      <point x="429" y="916"/>
      <point x="442" y="928"/>
      <point x="470" y="928" type="curve" smooth="yes"/>
      <point x="499.658" y="928"/>
      <point x="517" y="911.588"/>
      <point x="517" y="883" type="curve" smooth="yes"/>
      <point x="517" y="864"/>
      <point x="505.012" y="849.981"/>
      <point x="494" y="843" type="curve" smooth="yes"/>
      <point x="341" y="746" type="line"/>
    </contour>
  </outline>
</glyph>
<glyph name="germandbls" format="2">
  <advance width="627"/>
  <unicode hex="00DF"/>
  <outline>
    <contour>
      <point x="22" y="0" type="line"/>
      <point x="22" y="38" type="line"/>
      <point x="70" y="43" type="line" smooth="yes"/>
      <point x="79.9957" y="44.0412"/>
      <point x="90" y="55"/>
      <point x="90" y="66" type="curve" smooth="yes"/>
      <point x="90" y="452" type="line" smooth="yes"/>
      <point x="90" y="616.118"/>
      <point x="178.828" y="737"/>
      <point x="342" y="737" type="curve" smooth="yes"/>
      <point x="451" y="737"/>
      <point x="517" y="680"/>
      <point x="517" y="571" type="curve" smooth="yes"/>
      <point x="517" y="531.636"/>
      <point x="510" y="498"/>
      <point x="500" y="467" type="curve"/>
      <point x="494.545" y="469"/>
      <point x="485.561" y="471"/>
      <point x="480" y="471" type="curve" smooth="yes"/>
      <point x="476" y="471" type="line" smooth="yes"/>
      <point x="422.774" y="471"/>
      <point x="386" y="448"/>
      <point x="386" y="395" type="curve" smooth="yes"/>
      <point x="386" y="351.024"/>
      <point x="445.978" y="315.373"/>
      <point x="481.233" y="294.915" type="curve" smooth="yes"/>
      <point x="533.428" y="264.626"/>
      <point x="595" y="228.392"/>
      <point x="595" y="151" type="curve" smooth="yes"/>
      <point x="595" y="51.9199"/>
      <point x="519.199" y="-10"/>
      <point x="421" y="-10" type="curve" smooth="yes"/>
      <point x="378.11" y="-10"/>
      <point x="336.815" y="1.92322"/>
      <point x="303" y="14" type="curve"/>
      <point x="303" y="148" type="line"/>
      <point x="357" y="148" type="line"/>
      <point x="366" y="61" type="line"/>
      <point x="378" y="49"/>
      <point x="400" y="36"/>
      <point x="426" y="36" type="curve" smooth="yes"/>
      <point x="475" y="36"/>
      <point x="510" y="72"/>
      <point x="510" y="121" type="curve" smooth="yes"/>
      <point x="510" y="175.995"/>
      <point x="448.156" y="211.009"/>
      <point x="407.338" y="233.512" type="curve" smooth="yes"/>
      <point x="360.281" y="259.456"/>
      <point x="295" y="296.178"/>
      <point x="295" y="362" type="curve" smooth="yes"/>
      <point x="295" y="441"/>
      <point x="351" y="484"/>
      <point x="416" y="499" type="curve"/>
      <point x="421.412" y="521.18"/>
      <point x="425" y="546.423"/>
      <point x="425" y="571" type="curve" smooth="yes"/>
      <point x="425" y="636.248"/>
      <point x="389.166" y="686"/>
      <point x="324" y="686" type="curve" smooth="yes"/>
      <point x="213" y="686"/>
      <point x="183" y="572"/>
      <point x="183" y="462" type="curve" smooth="yes"/>
      <point x="183" y="66" type="line" smooth="yes"/>
      <point x="183" y="54"/>
      <point x="188.977" y="42.7077"/>
      <point x="198" y="42" type="curve" smooth="yes"/>
      <point x="249" y="38" type="line"/>
      <point x="249" y="0" type="line"/>
    </contour>
  </outline>
</glyph>
<glyph name="egrave" format="2">
  <advance width="490"/>
  <unicode hex="00E8"/>
  <outline>
    <contour>
      <point x="34" y="235" type="curve" smooth="yes"/>
      <point x="34" y="386"/>
      <point x="120" y="495"/>
      <point x="269" y="495" type="curve" smooth="yes"/>
      <point x="393" y="495"/>
      <point x="456" y="413"/>
      <point x="456" y="289" type="curve" smooth="yes"/>
      <point x="456" y="261" type="line"/>
      <point x="131" y="261" type="line"/>
      <point x="131" y="139"/>
      <point x="178" y="48"/>
      <point x="297" y="48" type="curve" smooth="yes"/>
      <point x="359" y="48"/>
      <point x="406" y="78"/>
      <point x="455" y="110" type="curve"/>
      <point x="455" y="49" type="line"/>
      <point x="404" y="18"/>
      <point x="344" y="-13"/>
      <point x="265" y="-13" type="curve" smooth="yes"/>
      <point x="119" y="-13"/>
      <point x="34" y="88"/>
    </contour>
    <contour>
      <point x="104.5" y="692" type="curve" smooth="yes"/>
      <point x="104.5" y="720"/>
      <point x="122.5" y="737"/>
      <point x="150.5" y="737" type="curve" smooth="yes"/>
      <point x="180.5" y="737"/>
      <point x="190.5" y="726"/>
      <point x="204.5" y="710" type="curve" smooth="yes"/>
      <point x="337.5" y="555" type="line"/>
      <point x="280.5" y="555" type="line"/>
      <point x="128.5" y="652" type="line"/>
      <point x="115.5" y="661"/>
      <point x="104.5" y="671"/>
    </contour>
    <contour>
      <point x="135" y="305" type="curve"/>
      <point x="355" y="305" type="line"/>
      <point x="355" y="327" type="line" smooth="yes"/>
      <point x="355" y="395"/>
      <point x="325" y="445"/>
      <point x="258" y="445" type="curve" smooth="yes"/>
      <point x="179" y="445"/>
      <point x="140" y="381"/>
    </contour>
  </outline>
</glyph>
<glyph name="ecircumflex" format="2">
  <advance width="490"/>
  <unicode hex="00EA"/>
  <outline>
    <contour>
      <point x="34" y="235" type="curve" smooth="yes"/>
      <point x="34" y="386"/>
      <point x="120" y="495"/>
      <point x="269" y="495" type="curve" smooth="yes"/>
      <point x="393" y="495"/>
      <point x="456" y="413"/>
      <point x="456" y="289" type="curve" smooth="yes"/>
      <point x="456" y="261" type="line"/>
      <point x="131" y="261" type="line"/>
      <point x="131" y="139"/>
      <point x="178" y="48"/>
      <point x="297" y="48" type="curve" smooth="yes"/>
      <point x="359" y="48"/>
      <point x="406" y="78"/>
      <point x="455" y="110" type="curve"/>
      <point x="455" y="49" type="line"/>
      <point x="404" y="18"/>
      <point x="344" y="-13"/>
      <point x="265" y="-13" type="curve" smooth="yes"/>
      <point x="119" y="-13"/>
      <point x="34" y="88"/>
    </contour>
    <contour>
      <point x="105" y="555" type="line"/>
      <point x="231" y="724" type="line"/>
      <point x="307" y="724" type="line"/>
      <point x="433" y="555" type="line"/>
      <point x="373" y="555" type="line"/>
      <point x="270" y="654" type="line"/>
      <point x="166" y="555" type="line"/>
    </contour>
    <contour>
      <point x="135" y="305" type="curve"/>
      <point x="355" y="305" type="line"/>
      <point x="355" y="327" type="line" smooth="yes"/>
      <point x="355" y="395"/>
      <point x="325" y="445"/>
      <point x="258" y="445" type="curve" smooth="yes"/>
      <point x="179" y="445"/>
      <point x="140" y="381"/>
    </contour>
  </outline>
</glyph>
<glyph name="igrave" format="2">
  <advance width="303"/>
  <unicode hex="00EC"/>
  <outline>
    <contour>
      <point x="-4.5" y="692" type="curve" smooth="yes"/>
      <point x="-4.5" y="720"/>
      <point x="13.5" y="737"/>
      <point x="41.5" y="737" type="curve" smooth="yes"/>
      <point x="71.5" y="737"/>
      <point x="81.5" y="726"/>
      <point x="95.5" y="710" type="curve" smooth="yes"/>
      <point x="228.5" y="555" type="line"/>
      <point x="171.5" y="555" type="line"/>
      <point x="19.5" y="652" type="line"/>
      <point x="6.5" y="661"/>
      <point x="-4.5" y="671"/>
    </contour>
    <contour>
      <point x="34" y="0" type="line"/>
      <point x="34" y="39" type="line"/>
      <point x="83" y="42" type="line"/>
      <point x="94" y="43"/>
      <point x="104" y="51"/>
      <point x="104" y="63" type="curve" smooth="yes"/>
      <point x="104" y="411" type="line"/>
      <point x="35" y="411" type="line"/>
      <point x="35" y="444" type="line"/>
      <point x="157" y="482" type="line"/>
      <point x="197" y="482" type="line"/>
      <point x="197" y="63" type="line" smooth="yes"/>
      <point x="197" y="51"/>
      <point x="207" y="43"/>
      <point x="218" y="42" type="curve"/>
      <point x="269" y="39" type="line"/>
      <point x="269" y="0" type="line"/>
    </contour>
  </outline>
</glyph>
<glyph name="icircumflex" format="2">
  <advance width="303"/>
  <unicode hex="00EE"/>
  <outline>
    <contour>
      <point x="-14" y="555" type="line"/>
      <point x="112" y="724" type="line"/>
      <point x="188" y="724" type="line"/>
      <point x="314" y="555" type="line"/>
      <point x="254" y="555" type="line"/>
      <point x="151" y="654" type="line"/>
      <point x="47" y="555" type="line"/>
    </contour>
    <contour>
      <point x="34" y="0" type="line"/>
      <point x="34" y="39" type="line"/>
      <point x="83" y="42" type="line"/>
      <point x="94" y="43"/>
      <point x="104" y="51"/>
      <point x="104" y="63" type="curve" smooth="yes"/>
      <point x="104" y="411" type="line"/>
      <point x="35" y="411" type="line"/>
      <point x="35" y="444" type="line"/>
      <point x="157" y="482" type="line"/>
      <point x="197" y="482" type="line"/>
      <point x="197" y="63" type="line" smooth="yes"/>
      <point x="197" y="51"/>
      <point x="207" y="43"/>
      <point x="218" y="42" type="curve"/>
      <point x="269" y="39" type="line"/>
      <point x="269" y="0" type="line"/>
    </contour>
  </outline>
</glyph>
<glyph name="ograve" format="2">
  <advance width="543"/>
  <unicode hex="00F2"/>
  <outline>
    <contour>
      <point x="34" y="240" type="curve" smooth="yes"/>
      <point x="34" y="381"/>
      <point x="133" y="495"/>
      <point x="273" y="495" type="curve" smooth="yes"/>
      <point x="413" y="495"/>
      <point x="509" y="381"/>
      <point x="509" y="240" type="curve" smooth="yes"/>
      <point x="509" y="100"/>
      <point x="410" y="-13"/>
      <point x="270" y="-13" type="curve" smooth="yes"/>
      <point x="130" y="-13"/>
      <point x="34" y="100"/>
    </contour>
    <contour>
      <point x="118.5" y="692" type="curve" smooth="yes"/>
      <point x="118.5" y="720"/>
      <point x="136.5" y="737"/>
      <point x="164.5" y="737" type="curve" smooth="yes"/>
      <point x="194.5" y="737"/>
      <point x="204.5" y="726"/>
      <point x="218.5" y="710" type="curve" smooth="yes"/>
      <point x="351.5" y="555" type="line"/>
      <point x="294.5" y="555" type="line"/>
      <point x="142.5" y="652" type="line"/>
      <point x="129.5" y="661"/>
      <point x="118.5" y="671"/>
    </contour>
    <contour>
      <point x="138" y="240" type="curve" smooth="yes"/>
      <point x="138" y="150"/>
      <point x="172" y="34"/>
      <point x="272" y="34" type="curve" smooth="yes"/>
      <point x="372" y="34"/>
      <point x="406" y="150"/>
      <point x="406" y="240" type="curve" smooth="yes"/>
      <point x="406" y="330"/>
      <point x="373" y="450"/>
      <point x="273" y="450" type="curve" smooth="yes"/>
      <point x="173" y="450"/>
      <point x="138" y="330"/>
    </contour>
  </outline>
</glyph>
<glyph name="oslash" format="2">
  <advance width="543"/>
  <unicode hex="00F8"/>
  <outline>
    <contour>
      <point x="36" y="239" type="curve" smooth="yes"/>
      <point x="36" y="386.683"/>
      <point x="126.753" y="494"/>
      <point x="275" y="494" type="curve" smooth="yes"/>
      <point x="314" y="494"/>
      <point x="346" y="487"/>
      <point x="374" y="474" type="curve"/>
      <point x="424" y="561" type="line"/>
      <point x="460" y="541" type="line"/>
      <point x="410" y="454" type="line"/>
      <point x="470.594" y="410.8"/>
      <point x="512" y="340.474"/>
      <point x="512" y="238" type="curve" smooth="yes"/>
      <point x="512" y="90.9819"/>
      <point x="420.453" y="-13"/>
      <point x="273" y="-13" type="curve" smooth="yes"/>
      <point x="227" y="-13"/>
      <point x="190" y="-2"/>
      <point x="159" y="14" type="curve"/>
      <point x="104" y="-83" type="line"/>
      <point x="69" y="-62" type="line"/>
      <point x="125" y="36" type="line"/>
      <point x="72" y="78"/>
      <point x="36" y="148"/>
    </contour>
    <contour>
      <point x="139" y="242" type="curve" smooth="yes"/>
      <point x="139" y="189.832"/>
      <point x="148.346" y="144.824"/>
      <point x="166" y="108" type="curve"/>
      <point x="346" y="424" type="line"/>
      <point x="339.031" y="431.327"/>
      <point x="304.857" y="449"/>
      <point x="274" y="449" type="curve" smooth="yes"/>
      <point x="171.559" y="449"/>
      <point x="139" y="343.695"/>
    </contour>
    <contour>
      <point x="192" y="70" type="line"/>
      <point x="210.537" y="50.1053"/>
      <point x="234.927" y="34"/>
      <point x="272" y="34" type="curve" smooth="yes"/>
      <point x="373.322" y="34"/>
      <point x="406" y="139.676"/>
      <point x="406" y="241" type="curve" smooth="yes"/>
      <point x="406" y="298.608"/>
      <point x="394.353" y="351.25"/>
      <point x="373" y="388" type="curve"/>
    </contour>
  </outline>
</glyph>
<glyph name="Cacute" format="2">
  <advance width="626"/>
  <unicode hex="0106"/>
  <outline>
    <contour>
      <point x="39" y="336" type="curve" smooth="yes"/>
      <point x="39" y="548.303"/>
      <point x="177.302" y="687"/>
      <point x="389" y="687" type="curve" smooth="yes"/>
      <point x="450.325" y="687"/>
      <point x="509.633" y="675.314"/>
      <point x="592" y="647" type="curve"/>
      <point x="592" y="490" type="line"/>
      <point x="532" y="490" type="line"/>
      <point x="517" y="581" type="line" smooth="yes"/>
      <point x="512.599" y="610.709"/>
      <point x="463.9" y="631"/>
      <point x="397" y="631" type="curve" smooth="yes"/>
      <point x="246.963" y="631"/>
      <point x="156" y="520.033"/>
      <point x="156" y="337" type="curve" smooth="yes"/>
      <point x="156" y="149.054"/>
      <point x="249.597" y="38"/>
      <point x="408" y="38" type="curve" smooth="yes"/>
      <point x="463.297" y="38"/>
      <point x="502.366" y="52.6016"/>
      <point x="507" y="75" type="curve" smooth="yes"/>
      <point x="530" y="184" type="line"/>
      <point x="588" y="184" type="line"/>
      <point x="588" y="22" type="line"/>
      <point x="544.243" y="-1.27539"/>
      <point x="463.603" y="-17"/>
      <point x="388" y="-17" type="curve" smooth="yes"/>
      <point x="171.269" y="-17"/>
      <point x="39" y="116.785"/>
    </contour>
    <contour>
      <point x="301" y="747" type="line"/>
      <point x="433" y="902" type="line"/>
      <point x="445" y="917"/>
      <point x="458" y="929"/>
      <point x="486" y="929" type="curve" smooth="yes"/>
      <point x="515.658" y="929"/>
      <point x="533" y="912.588"/>
      <point x="533" y="884" type="curve" smooth="yes"/>
      <point x="533" y="865"/>
      <point x="521.012" y="850.981"/>
      <point x="510" y="844" type="curve" smooth="yes"/>
      <point x="357" y="747" type="line"/>
    </contour>
  </outline>
</glyph>
<glyph name="eogonek" format="2">
  <advance width="490"/>
  <unicode hex="0119"/>
  <outline>
    <contour>
      <point x="171.5" y="-117.566" type="curve" smooth="yes"/>
      <point x="171.5" y="-65.5664"/>
      <point x="207.5" y="-26.5664"/>
      <point x="241.5" y="-6.5664" type="curve"/>
      <point x="288.5" y="-6.5664" type="line"/>
      <point x="262.5" y="-23.5664"/>
      <point x="234.5" y="-54.5664"/>
      <point x="234.5" y="-98.4116" type="curve" smooth="yes"/>
      <point x="234.5" y="-130.566"/>
      <point x="250.7" y="-149.566"/>
      <point x="279.5" y="-149.566" type="curve" smooth="yes"/>
      <point x="302.6" y="-149.566"/>
      <point x="320.2" y="-140.566"/>
      <point x="334.5" y="-132.566" type="curve"/>
      <point x="357.5" y="-171.566" type="line"/>
      <point x="331.5" y="-190.566"/>
      <point x="301.5" y="-199.566"/>
      <point x="266.5" y="-199.566" type="curve" smooth="yes"/>
      <point x="213.5" y="-199.566"/>
      <point x="171.5" y="-174.566"/>
    </contour>
    <contour>
      <point x="34" y="235" type="curve" smooth="yes"/>
      <point x="34" y="386"/>
      <point x="120" y="495"/>
      <point x="269" y="495" type="curve" smooth="yes"/>
      <point x="393" y="495"/>
      <point x="456" y="413"/>
      <point x="456" y="289" type="curve" smooth="yes"/>
      <point x="456" y="261" type="line"/>
      <point x="131" y="261" type="line"/>
      <point x="131" y="139"/>
      <point x="178" y="48"/>
      <point x="297" y="48" type="curve" smooth="yes"/>
      <point x="359" y="48"/>
      <point x="406" y="78"/>
      <point x="455" y="110" type="curve"/>
      <point x="455" y="49" type="line"/>
      <point x="404" y="18"/>
      <point x="344" y="-13"/>
      <point x="265" y="-13" type="curve" smooth="yes"/>
      <point x="119" y="-13"/>
      <point x="34" y="88"/>
    </contour>
    <contour>
      <point x="135" y="305" type="curve"/>
      <point x="355" y="305" type="line"/>
      <point x="355" y="327" type="line" smooth="yes"/>
      <point x="355" y="395"/>
      <point x="325" y="445"/>
      <point x="258" y="445" type="curve" smooth="yes"/>
      <point x="179" y="445"/>
      <point x="140" y="381"/>
    </contour>
  </outline>
</glyph>
<glyph name="gcircumflex" format="2">
  <advance width="524"/>
  <unicode hex="011D"/>
  <outline>
    <contour>
      <point x="31" y="-91" type="curve" smooth="yes"/>
      <point x="31" y="-17"/>
      <point x="77" y="25"/>
      <point x="139" y="35" type="curve"/>
      <point x="125" y="50"/>
      <point x="117" y="63"/>
      <point x="117" y="86" type="curve" smooth="yes"/>
      <point x="117" y="120"/>
      <point x="148" y="156"/>
      <point x="177" y="169" type="curve"/>
      <point x="110" y="185"/>
      <point x="54" y="237"/>
      <point x="54" y="321" type="curve" smooth="yes"/>
      <point x="54" y="434"/>
      <point x="136" y="491"/>
      <point x="244" y="491" type="curve" smooth="yes"/>
      <point x="295" y="491"/>
      <point x="341" y="479"/>
      <point x="370" y="461" type="curve"/>
      <point x="505" y="461" type="line"/>
      <point x="505" y="412" type="line"/>
      <point x="405" y="412" type="line"/>
      <point x="420" y="388"/>
      <point x="432" y="361"/>
      <point x="432" y="322" type="curve" smooth="yes"/>
      <point x="432" y="215"/>
      <point x="349" y="158"/>
      <point x="254" y="158" type="curve" smooth="yes"/>
      <point x="246" y="158"/>
      <point x="232" y="159"/>
      <point x="224" y="160" type="curve"/>
      <point x="211" y="153"/>
      <point x="201" y="137"/>
      <point x="201" y="122" type="curve" smooth="yes"/>
      <point x="201" y="113"/>
      <point x="203" y="104"/>
      <point x="208" y="95" type="curve"/>
      <point x="315" y="88"/>
      <point x="479" y="74"/>
      <point x="479" y="-45" type="curve" smooth="yes"/>
      <point x="479" y="-165"/>
      <point x="343" y="-233"/>
      <point x="219" y="-233" type="curve" smooth="yes"/>
      <point x="119" y="-233"/>
      <point x="31" y="-189"/>
    </contour>
    <contour>
      <point x="80" y="555" type="line"/>
      <point x="206" y="724" type="line"/>
      <point x="282" y="724" type="line"/>
      <point x="408" y="555" type="line"/>
      <point x="348" y="555" type="line"/>
      <point x="245" y="654" type="line"/>
      <point x="141" y="555" type="line"/>
    </contour>
    <contour>
      <point x="123" y="-69" type="curve" smooth="yes"/>
      <point x="123" y="-139"/>
      <point x="182" y="-186"/>
      <point x="254" y="-186" type="curve" smooth="yes"/>
      <point x="329" y="-186"/>
      <point x="396" y="-141"/>
      <point x="396" y="-69" type="curve" smooth="yes"/>
      <point x="396" y="18"/>
      <point x="249" y="24"/>
      <point x="199" y="25" type="curve"/>
      <point x="159" y="10"/>
      <point x="123" y="-17"/>
    </contour>
    <contour>
      <point x="150" y="327" type="curve" smooth="yes"/>
      <point x="150" y="262"/>
      <point x="181" y="206"/>
      <point x="245" y="206" type="curve" smooth="yes"/>
      <point x="309" y="206"/>
      <point x="338" y="264"/>
      <point x="338" y="329" type="curve" smooth="yes"/>
      <point x="338" y="392"/>
      <point x="308" y="451"/>
      <point x="246" y="451" type="curve" smooth="yes"/>
      <point x="179" y="451"/>
      <point x="150" y="396"/>
    </contour>
  </outline>
</glyph>
<glyph name="Itilde" format="2">
  <advance width="330"/>
  <unicode hex="0128"/>
  <outline>
    <contour>
      <point x="-8" y="746" type="line"/>
      <point x="7" y="801"/>
      <point x="37" y="856"/>
      <point x="107" y="856" type="curve" smooth="yes"/>
      <point x="134" y="856"/>
      <point x="152" y="845"/>
      <point x="170" y="834" type="curve" smooth="yes"/>
      <point x="191" y="821"/>
      <point x="212" y="808"/>
      <point x="245" y="808" type="curve" smooth="yes"/>
      <point x="273" y="808"/>
      <point x="295" y="830"/>
      <point x="298" y="856" type="curve"/>
      <point x="338" y="856" type="line"/>
      <point x="323" y="801"/>
      <point x="293" y="746"/>
      <point x="223" y="746" type="curve" smooth="yes"/>
      <point x="196" y="746"/>
      <point x="177" y="757"/>
      <point x="158" y="769" type="curve" smooth="yes"/>
      <point x="138" y="781"/>
      <point x="115" y="794"/>
      <point x="84" y="794" type="curve" smooth="yes"/>
      <point x="56" y="794"/>
      <point x="35" y="771"/>
      <point x="32" y="746" type="curve"/>
    </contour>
    <contour>
      <point x="33" y="0" type="line"/>
      <point x="33" y="43" type="line"/>
      <point x="93" y="47" type="line" smooth="yes"/>
      <point x="105" y="48"/>
      <point x="114" y="57"/>
      <point x="114" y="69" type="curve" smooth="yes"/>
      <point x="114" y="602" type="line" smooth="yes"/>
      <point x="114" y="614"/>
      <point x="105" y="622"/>
      <point x="93" y="623" type="curve" smooth="yes"/>
      <point x="33" y="627" type="line"/>
      <point x="33" y="671" type="line"/>
      <point x="297" y="671" type="line"/>
      <point x="297" y="627" type="line"/>
      <point x="236" y="623" type="line" smooth="yes"/>
      <point x="225" y="622"/>
      <point x="215" y="613"/>
      <point x="215" y="602" type="curve" smooth="yes"/>
      <point x="215" y="69" type="line" smooth="yes"/>
      <point x="215" y="58"/>
      <point x="225" y="48"/>
      <point x="236" y="47" type="curve" smooth="yes"/>
      <point x="297" y="43" type="line"/>
      <point x="297" y="0" type="line"/>
    </contour>
  </outline>
</glyph>
<glyph name="Ibreve" format="2">
  <advance width="330"/>
  <unicode hex="012C"/>
  <outline>
    <contour>
      <point x="15.5" y="895" type="curve"/>
      <point x="54.5" y="895" type="line"/>
      <point x="64.6865" y="844.526"/>
      <point x="106.518" y="814"/>
      <point x="165.5" y="814" type="curve" smooth="yes"/>
      <point x="224.043" y="814"/>
      <point x="264.389" y="843.982"/>
      <point x="274.5" y="895" type="curve"/>
      <point x="314.5" y="895" type="line"/>
      <point x="314.5" y="806.797"/>
      <point x="253.295" y="746"/>
      <point x="164.5" y="746" type="curve" smooth="yes"/>
      <point x="75.5" y="746"/>
      <point x="15.5" y="806"/>
    </contour>
    <contour>
      <point x="33" y="0" type="line"/>
      <point x="33" y="43" type="line"/>
      <point x="93" y="47" type="line" smooth="yes"/>
      <point x="105" y="48"/>
      <point x="114" y="57"/>
      <point x="114" y="69" type="curve" smooth="yes"/>
      <point x="114" y="602" type="line" smooth="yes"/>
      <point x="114" y="614"/>
      <point x="105" y="622"/>
      <point x="93" y="623" type="curve" smooth="yes"/>
      <point x="33" y="627" type="line"/>
      <point x="33" y="671" type="line"/>
      <point x="297" y="671" type="line"/>
      <point x="297" y="627" type="line"/>
      <point x="236" y="623" type="line" smooth="yes"/>
      <point x="225" y="622"/>
      <point x="215" y="613"/>
      <point x="215" y="602" type="curve" smooth="yes"/>
      <point x="215" y="69" type="line" smooth="yes"/>
      <point x="215" y="58"/>
      <point x="225" y="48"/>
      <point x="236" y="47" type="curve" smooth="yes"/>
      <point x="297" y="43" type="line"/>
      <point x="297" y="0" type="line"/>
    </contour>
  </outline>
</glyph>
<glyph name="ij" format="2">
  <advance width="594"/>
  <unicode hex="0133"/>
  <outline>
    <contour>
      <point x="34" y="0" type="line"/>
      <point x="34" y="39" type="line"/>
      <point x="83" y="42" type="line"/>
      <point x="94" y="43"/>
      <point x="104" y="51"/>
      <point x="104" y="63" type="curve" smooth="yes"/>
      <point x="104" y="420" type="line"/>
      <point x="35" y="420" type="line"/>
      <point x="35" y="455" type="line"/>
      <point x="157" y="493" type="line"/>
      <point x="197" y="493" type="line"/>
      <point x="197" y="63" type="line" smooth="yes"/>
      <point x="197" y="51"/>
      <point x="207" y="43"/>
      <point x="218" y="42" type="curve"/>
      <point x="269" y="39" type="line"/>
      <point x="269" y="0" type="line"/>
    </contour>
    <contour>
      <point x="95" y="647" type="curve" smooth="yes"/>
      <point x="95" y="682"/>
      <point x="122" y="708"/>
      <point x="157" y="708" type="curve" smooth="yes"/>
      <point x="192" y="708"/>
      <point x="218" y="682"/>
      <point x="218" y="647" type="curve" smooth="yes"/>
      <point x="218" y="612"/>
      <point x="192" y="585"/>
      <point x="157" y="585" type="curve" smooth="yes"/>
      <point x="122" y="585"/>
      <point x="95" y="612"/>
    </contour>
    <contour>
      <point x="224" y="-174" type="curve" smooth="yes"/>
      <point x="224" y="-141"/>
      <point x="244" y="-126"/>
      <point x="267" y="-116" type="curve"/>
      <point x="364" y="-183" type="line"/>
      <point x="406" y="-159"/>
      <point x="412" y="-87"/>
      <point x="412" y="-21" type="curve" smooth="yes"/>
      <point x="412" y="423" type="line"/>
      <point x="341" y="423" type="line"/>
      <point x="341" y="456" type="line"/>
      <point x="464" y="494" type="line"/>
      <point x="505" y="494" type="line"/>
      <point x="505" y="64" type="line" smooth="yes"/>
      <point x="505" y="-97.3662"/>
      <point x="455.257" y="-229"/>
      <point x="300" y="-229" type="curve" smooth="yes"/>
      <point x="259" y="-229"/>
      <point x="224" y="-214"/>
    </contour>
    <contour>
      <point x="393" y="647" type="curve" smooth="yes"/>
      <point x="393" y="681.224"/>
      <point x="420.776" y="709"/>
      <point x="455" y="709" type="curve" smooth="yes"/>
      <point x="489.224" y="709"/>
      <point x="517" y="681.224"/>
      <point x="517" y="647" type="curve" smooth="yes"/>
      <point x="517" y="612.776"/>
      <point x="489.224" y="585"/>
      <point x="455" y="585" type="curve" smooth="yes"/>
      <point x="420.776" y="585"/>
      <point x="393" y="612.776"/>
    </contour>
  </outline>
</glyph>
<glyph name="kcommaaccent" format="2">
  <advance width="534"/>
  <unicode hex="0137"/>
  <outline>
    <contour>
      <point x="14" y="665" type="line"/>
      <point x="14" y="698" type="line"/>
      <point x="142" y="737" type="line"/>
      <point x="183" y="737" type="line"/>
      <point x="183" y="256" type="line"/>
      <point x="203" y="256" type="line"/>
      <point x="350" y="422" type="line"/>
      <point x="351.85" y="424.466"/>
      <point x="352.804" y="427.189"/>
      <point x="352.804" y="430" type="curve" smooth="yes"/>
      <point x="352.804" y="434.758"/>
      <point x="348.47" y="438.369"/>
      <point x="342" y="439" type="curve" smooth="yes"/>
      <point x="301" y="443" type="line"/>
      <point x="301" y="482" type="line"/>
      <point x="495" y="482" type="line"/>
      <point x="495" y="443" type="line"/>
      <point x="431" y="436" type="line"/>
      <point x="299" y="295" type="line"/>
      <point x="471" y="45" type="line"/>
      <point x="524" y="39" type="line"/>
      <point x="524" y="0" type="line"/>
      <point x="364" y="0" type="line"/>
      <point x="364" y="39" type="line"/>
      <point x="239" y="227" type="line"/>
      <point x="183" y="227" type="line"/>
      <point x="183" y="63" type="line" smooth="yes"/>
      <point x="183" y="51"/>
      <point x="193" y="43"/>
      <point x="204" y="42" type="curve" smooth="yes"/>
      <point x="247" y="39" type="line"/>
      <point x="247" y="0" type="line"/>
      <point x="20" y="0" type="line"/>
      <point x="20" y="39" type="line"/>
      <point x="69" y="42" type="line"/>
      <point x="80" y="43"/>
      <point x="90" y="51"/>
      <point x="90" y="63" type="curve" smooth="yes"/>
      <point x="90" y="665" type="line"/>
    </contour>
    <contour>
      <point x="215" y="-98" type="curve" smooth="yes"/>
      <point x="215" y="-69"/>
      <point x="240" y="-51"/>
      <point x="270" y="-51" type="curve" smooth="yes"/>
      <point x="316" y="-51"/>
      <point x="341" y="-84"/>
      <point x="341" y="-133" type="curve" smooth="yes"/>
      <point x="341" y="-208.665"/>
      <point x="282.081" y="-247.153"/>
      <point x="217" y="-258" type="curve"/>
      <point x="217" y="-228" type="line"/>
      <point x="263" y="-214"/>
      <point x="289" y="-195"/>
      <point x="289" y="-135" type="curve"/>
      <point x="230" y="-135" type="line"/>
      <point x="222" y="-127"/>
      <point x="215" y="-114"/>
    </contour>
  </outline>
</glyph>
<glyph name="lacute" format="2">
  <advance width="296"/>
  <unicode hex="013A"/>
  <outline>
    <contour>
      <point x="26" y="665" type="line"/>
      <point x="26" y="698" type="line"/>
      <point x="154" y="737" type="line"/>
      <point x="195" y="737" type="line"/>
      <point x="195" y="63" type="line" smooth="yes"/>
      <point x="195" y="54"/>
      <point x="207" y="42"/>
      <point x="216" y="42" type="curve"/>
      <point x="270" y="39" type="line"/>
      <point x="270" y="0" type="line"/>
      <point x="27" y="0" type="line"/>
      <point x="27" y="39" type="line"/>
      <point x="80" y="42" type="line"/>
      <point x="89" y="42"/>
      <point x="102" y="54"/>
      <point x="102" y="63" type="curve" smooth="yes"/>
      <point x="102" y="665" type="line"/>
    </contour>
    <contour>
      <point x="60" y="797" type="line"/>
      <point x="192" y="952" type="line"/>
      <point x="204" y="967"/>
      <point x="217" y="979"/>
      <point x="245" y="979" type="curve" smooth="yes"/>
      <point x="274.658" y="979"/>
      <point x="292" y="962.588"/>
      <point x="292" y="934" type="curve" smooth="yes"/>
      <point x="292" y="915"/>
      <point x="280.012" y="900.981"/>
      <point x="269" y="894" type="curve" smooth="yes"/>
      <point x="116" y="797" type="line"/>
    </contour>
  </outline>
</glyph>
<glyph name="lcaron" format="2">
  <advance width="410"/>
  <unicode hex="013E"/>
  <outline>
    <contour>
      <point x="26" y="665" type="line"/>
      <point x="26" y="698" type="line"/>
      <point x="154" y="737" type="line"/>
      <point x="195" y="737" type="line"/>
      <point x="195" y="63" type="line" smooth="yes"/>
      <point x="195" y="54"/>
      <point x="207" y="42"/>
      <point x="216" y="42" type="curve"/>
      <point x="270" y="39" type="line"/>
      <point x="270" y="0" type="line"/>
      <point x="27" y="0" type="line"/>
      <point x="27" y="39" type="line"/>
      <point x="80" y="42" type="line"/>
      <point x="89" y="42"/>
      <point x="102" y="54"/>
      <point x="102" y="63" type="curve" smooth="yes"/>
      <point x="102" y="665" type="line"/>
    </contour>
    <contour>
      <point x="238" y="466" type="line"/>
      <point x="281.326" y="506.228"/>
      <point x="317.692" y="548.8"/>
      <point x="320" y="628" type="curve"/>
      <point x="320" y="636" type="line"/>
      <point x="257" y="636" type="line"/>
      <point x="249" y="646"/>
      <point x="242" y="659"/>
      <point x="242" y="676" type="curve" smooth="yes"/>
      <point x="242" y="712"/>
      <point x="264.617" y="737"/>
      <point x="301" y="737" type="curve" smooth="yes"/>
      <point x="354.097" y="737"/>
      <point x="384" y="698.641"/>
      <point x="384" y="644" type="curve" smooth="yes"/>
      <point x="384" y="554.514"/>
      <point x="316.721" y="492.049"/>
      <point x="275" y="458" type="curve"/>
    </contour>
  </outline>
</glyph>
<glyph name="lslash" format="2">
  <advance width="296"/>
  <unicode hex="0142"/>
  <outline>
    <contour>
      <point x="-9" y="284" type="line"/>
      <point x="102" y="361" type="line"/>
      <point x="102" y="665" type="line"/>
      <point x="25" y="665" type="line"/>
      <point x="25" y="698" type="line"/>
      <point x="156" y="737" type="line"/>
      <point x="194" y="737" type="line"/>
      <point x="194" y="424" type="line"/>
      <point x="280" y="482" type="line"/>
      <point x="307" y="441" type="line"/>
      <point x="194" y="366" type="line"/>
      <point x="194" y="64" type="line" smooth="yes"/>
      <point x="194" y="52"/>
      <point x="206" y="44"/>
      <point x="217" y="43" type="curve"/>
      <point x="269" y="40" type="line"/>
      <point x="269" y="1" type="line"/>
      <point x="26" y="1" type="line"/>
      <point x="26" y="40" type="line"/>
      <point x="81" y="43" type="line"/>
      <point x="92" y="44"/>
      <point x="102" y="52"/>
      <point x="102" y="64" type="curve" smooth="yes"/>
      <point x="102" y="303" type="line"/>
      <point x="16" y="243" type="line"/>
    </contour>
  </outline>
</glyph>
<glyph name="Ncommaaccent" format="2">
  <advance width="721"/>
  <unicode hex="0145"/>
  <outline>
    <contour>
      <point x="25" y="628" type="line"/>
      <point x="25" y="671" type="line"/>
      <point x="223" y="671" type="line"/>
      <point x="223" y="646" type="line"/>
      <point x="556" y="143" type="line"/>
      <point x="556" y="602" type="line" smooth="yes"/>
      <point x="556" y="613"/>
      <point x="546" y="623"/>
      <point x="535" y="624" type="curve" smooth="yes"/>
      <point x="478" y="628" type="line"/>
      <point x="478" y="671" type="line"/>
      <point x="692" y="671" type="line"/>
      <point x="692" y="628" type="line"/>
      <point x="636" y="624" type="line" smooth="yes"/>
      <point x="624" y="623"/>
      <point x="615" y="614"/>
      <point x="615" y="602" type="curve" smooth="yes"/>
      <point x="615" y="0" type="line"/>
      <point x="537" y="0" type="line"/>
      <point x="165" y="560" type="line"/>
      <point x="165" y="69" type="line" smooth="yes"/>
      <point x="165" y="57"/>
      <point x="174" y="48"/>
      <point x="186" y="47" type="curve" smooth="yes"/>
      <point x="243" y="43" type="line"/>
      <point x="243" y="0" type="line"/>
      <point x="27" y="0" type="line"/>
      <point x="27" y="43" type="line"/>
      <point x="84" y="47" type="line" smooth="yes"/>
      <point x="96" y="48"/>
      <point x="106" y="57"/>
      <point x="106" y="69" type="curve" smooth="yes"/>
      <point x="106" y="602" type="line" smooth="yes"/>
      <point x="106" y="614"/>
      <point x="96" y="623"/>
      <point x="84" y="624" type="curve" smooth="yes"/>
    </contour>
    <contour>
      <point x="318" y="-107" type="curve" smooth="yes"/>
      <point x="318" y="-78"/>
      <point x="343" y="-60"/>
      <point x="373" y="-60" type="curve" smooth="yes"/>
      <point x="419" y="-60"/>
      <point x="444" y="-93"/>
      <point x="444" y="-142" type="curve" smooth="yes"/>
      <point x="444" y="-217.665"/>
      <point x="385.081" y="-256.153"/>
      <point x="320" y="-267" type="curve"/>
      <point x="320" y="-237" type="line"/>
      <point x="366" y="-223"/>
      <point x="392" y="-204"/>
      <point x="392" y="-144" type="curve"/>
      <point x="333" y="-144" type="line"/>
      <point x="325" y="-136"/>
      <point x="318" y="-123"/>
    </contour>
  </outline>
</glyph>
<glyph name="Eng" format="2">
  <advance width="727"/>
  <unicode hex="014A"/>
  <outline>
    <contour>
      <point x="35" y="0" type="line"/>
      <point x="35" y="43" type="line"/>
      <point x="86" y="47" type="line" smooth="yes"/>
      <point x="98" y="48"/>
      <point x="107" y="57"/>
      <point x="107" y="69" type="curve" smooth="yes"/>
      <point x="107" y="604" type="line" smooth="yes"/>
      <point x="107" y="614"/>
      <point x="98" y="622"/>
      <point x="87" y="623" type="curve" smooth="yes"/>
      <point x="29" y="628" type="line"/>
      <point x="29" y="671" type="line"/>
      <point x="208" y="671" type="line"/>
      <point x="208" y="590" type="line"/>
      <point x="293.84" y="662.085"/>
      <point x="348.808" y="687"/>
      <point x="422" y="687" type="curve" smooth="yes"/>
      <point x="550.266" y="687"/>
      <point x="638" y="600.079"/>
      <point x="638" y="473" type="curve" smooth="yes"/>
      <point x="638" y="-21" type="line" smooth="yes"/>
      <point x="638" y="-148.927"/>
      <point x="556.286" y="-230"/>
      <point x="429" y="-230" type="curve" smooth="yes"/>
      <point x="375.508" y="-230"/>
      <point x="332" y="-205.53"/>
      <point x="332" y="-155" type="curve" smooth="yes"/>
      <point x="332" y="-126.656"/>
      <point x="352" y="-100"/>
      <point x="380" y="-92" type="curve"/>
      <point x="458" y="-179" type="line"/>
      <point x="523" y="-179"/>
      <point x="537" y="-125"/>
      <point x="537" y="-60" type="curve" smooth="yes"/>
      <point x="537" y="453" type="line" smooth="yes"/>
      <point x="537" y="544.58"/>
      <point x="476.399" y="604"/>
      <point x="383" y="604" type="curve" smooth="yes"/>
      <point x="324.134" y="604"/>
      <point x="271.368" y="582.592"/>
      <point x="208" y="533" type="curve"/>
      <point x="208" y="69" type="line" smooth="yes"/>
      <point x="208" y="57"/>
      <point x="217" y="48"/>
      <point x="229" y="47" type="curve" smooth="yes"/>
      <point x="291" y="43" type="line"/>
      <point x="291" y="0" type="line"/>
    </contour>
  </outline>
</glyph>
<glyph name="obreve" format="2">
  <advance width="543"/>
  <unicode hex="014F"/>
  <outline>
    <contour>
      <point x="34" y="240" type="curve" smooth="yes"/>
      <point x="34" y="381"/>
      <point x="133" y="495"/>
      <point x="273" y="495" type="curve" smooth="yes"/>
      <point x="413" y="495"/>
      <point x="509" y="381"/>
      <point x="509" y="240" type="curve" smooth="yes"/>
      <point x="509" y="100"/>
      <point x="410" y="-13"/>
      <point x="270" y="-13" type="curve" smooth="yes"/>
      <point x="130" y="-13"/>
      <point x="34" y="100"/>
    </contour>
    <contour>
      <point x="123.5" y="704" type="curve"/>
      <point x="162.5" y="704" type="line"/>
      <point x="172.687" y="653.526"/>
      <point x="214.518" y="623"/>
      <point x="273.5" y="623" type="curve" smooth="yes"/>
      <point x="332.043" y="623"/>
      <point x="372.389" y="652.982"/>
      <point x="382.5" y="704" type="curve"/>
      <point x="422.5" y="704" type="line"/>
      <point x="422.5" y="615.797"/>
      <point x="361.295" y="555"/>
      <point x="272.5" y="555" type="curve" smooth="yes"/>
      <point x="183.5" y="555"/>
      <point x="123.5" y="615"/>
    </contour>
    <contour>
      <point x="138" y="240" type="curve" smooth="yes"/>
      <point x="138" y="150"/>
      <point x="172" y="34"/>
      <point x="272" y="34" type="curve" smooth="yes"/>
      <point x="372" y="34"/>
      <point x="406" y="150"/>
      <point x="406" y="240" type="curve" smooth="yes"/>
      <point x="406" y="330"/>
      <point x="373" y="450"/>
      <point x="273" y="450" type="curve" smooth="yes"/>
      <point x="173" y="450"/>
      <point x="138" y="330"/>
    </contour>
  </outline>
</glyph>
<glyph name="OE" format="2">
  <advance width="999"/>
  <unicode hex="0152"/>
  <outline>
    <contour>
      <point x="41" y="335" type="curve" smooth="yes"/>
      <point x="41" y="537.036"/>
      <point x="131.416" y="686"/>
      <point x="333" y="686" type="curve" smooth="yes"/>
      <point x="418" y="686"/>
      <point x="479" y="658"/>
      <point x="523" y="615" type="curve"/>
      <point x="523" y="670" type="line"/>
      <point x="935" y="670" type="line"/>
      <point x="935" y="521" type="line"/>
      <point x="875" y="521" type="line"/>
      <point x="860" y="603" type="line" smooth="yes"/>
      <point x="858.375" y="611.886"/>
      <point x="852" y="622"/>
      <point x="842" y="622" type="curve" smooth="yes"/>
      <point x="625" y="622" type="line"/>
      <point x="625" y="373" type="line"/>
      <point x="775" y="373" type="line" smooth="yes"/>
      <point x="783" y="373"/>
      <point x="791.864" y="382.165"/>
      <point x="793" y="390" type="curve" smooth="yes"/>
      <point x="803" y="459" type="line"/>
      <point x="854" y="459" type="line"/>
      <point x="854" y="236" type="line"/>
      <point x="803" y="236" type="line"/>
      <point x="794" y="304" type="line" smooth="yes"/>
      <point x="792.812" y="312.975"/>
      <point x="783" y="322"/>
      <point x="776" y="322" type="curve" smooth="yes"/>
      <point x="626" y="322" type="line"/>
      <point x="626" y="47" type="line"/>
      <point x="879" y="47" type="line" smooth="yes"/>
      <point x="887" y="47"/>
      <point x="895.804" y="59.0337"/>
      <point x="897" y="66" type="curve" smooth="yes"/>
      <point x="914" y="165" type="line"/>
      <point x="968" y="165" type="line"/>
      <point x="968" y="-2" type="line"/>
      <point x="523" y="-2" type="line"/>
      <point x="523" y="53" type="line"/>
      <point x="479" y="10"/>
      <point x="419" y="-18"/>
      <point x="334" y="-18" type="curve" smooth="yes"/>
      <point x="130.858" y="-18"/>
      <point x="41" y="132.764"/>
    </contour>
    <contour>
      <point x="155" y="336" type="curve" smooth="yes"/>
      <point x="155" y="185.393"/>
      <point x="181.508" y="39"/>
      <point x="330" y="39" type="curve" smooth="yes"/>
      <point x="481.848" y="39"/>
      <point x="509" y="182.512"/>
      <point x="509" y="333" type="curve" smooth="yes"/>
      <point x="509" y="482.547"/>
      <point x="481.243" y="630"/>
      <point x="333" y="630" type="curve" smooth="yes"/>
      <point x="182" y="630"/>
      <point x="155" y="487"/>
    </contour>
  </outline>
</glyph>
<glyph name="scedilla" format="2">
  <advance width="397"/>
  <unicode hex="015F"/>
  <outline>
    <contour>
      <point x="33" y="11" type="curve"/>
      <point x="33" y="144" type="line"/>
      <point x="84" y="144" type="line"/>
      <point x="96" y="59" type="line"/>
      <point x="117" y="45"/>
      <point x="148" y="30"/>
      <point x="185" y="30" type="curve" smooth="yes"/>
      <point x="235" y="30"/>
      <point x="275" y="59"/>
      <point x="275" y="109" type="curve" smooth="yes"/>
      <point x="275" y="158"/>
      <point x="238.558" y="178.564"/>
      <point x="204" y="195" type="curve" smooth="yes"/>
      <point x="122" y="234" type="line" smooth="yes"/>
      <point x="75.7129" y="256.015"/>
      <point x="40" y="288.2"/>
      <point x="40" y="346" type="curve" smooth="yes"/>
      <point x="40" y="448.393"/>
      <point x="118" y="493"/>
      <point x="220" y="493" type="curve" smooth="yes"/>
      <point x="265" y="493"/>
      <point x="320" y="481"/>
      <point x="349" y="471" type="curve"/>
      <point x="349" y="353" type="line"/>
      <point x="297" y="353" type="line"/>
      <point x="289" y="423" type="line"/>
      <point x="273" y="435"/>
      <point x="241" y="449"/>
      <point x="213" y="449" type="curve" smooth="yes"/>
      <point x="182" y="449"/>
      <point x="131" y="432"/>
      <point x="131" y="377" type="curve" smooth="yes"/>
      <point x="131" y="333"/>
      <point x="157.864" y="314.583"/>
      <point x="189" y="300" type="curve" smooth="yes"/>
      <point x="268" y="263" type="line" smooth="yes"/>
      <point x="328.029" y="234.885"/>
      <point x="363" y="214.102"/>
      <point x="363" y="140" type="curve" smooth="yes"/>
      <point x="363" y="33.083"/>
      <point x="281" y="-14"/>
      <point x="172" y="-14" type="curve" smooth="yes"/>
      <point x="118" y="-14"/>
      <point x="71" y="-3"/>
    </contour>
    <contour>
      <point x="107" y="-216.333" type="curve"/>
      <point x="107" y="-177.333" type="line"/>
      <point x="125" y="-181.333"/>
      <point x="147" y="-185.333"/>
      <point x="168" y="-185.333" type="curve" smooth="yes"/>
      <point x="200" y="-185.333"/>
      <point x="232" y="-176.333"/>
      <point x="232" y="-144.333" type="curve" smooth="yes"/>
      <point x="232" y="-118.333"/>
      <point x="216" y="-107.333"/>
      <point x="195" y="-107.333" type="curve" smooth="yes"/>
      <point x="185" y="-107.333"/>
      <point x="172" y="-109.333"/>
      <point x="162" y="-113.333" type="curve"/>
      <point x="162" y="-6.33299" type="line"/>
      <point x="202" y="-6.33299" type="line"/>
      <point x="202" y="-64.333" type="line"/>
      <point x="210" y="-61.333"/>
      <point x="216" y="-60.333"/>
      <point x="225" y="-60.333" type="curve" smooth="yes"/>
      <point x="271" y="-60.333"/>
      <point x="297" y="-85.333"/>
      <point x="297" y="-131.333" type="curve" smooth="yes"/>
      <point x="297" y="-196.333"/>
      <point x="247" y="-226.333"/>
      <point x="181" y="-226.333" type="curve" smooth="yes"/>
      <point x="154" y="-226.333"/>
      <point x="128" y="-222.333"/>
    </contour>
  </outline>
</glyph>
<glyph name="uni0162" format="2">
  <advance width="599"/>
  <unicode hex="0162"/>
  <outline>
    <contour>
      <point x="16" y="511" type="line"/>
      <point x="16" y="671" type="line"/>
      <point x="583" y="671" type="line"/>
      <point x="583" y="511" type="line"/>
      <point x="524" y="511" type="line"/>
      <point x="510" y="605" type="line"/>
      <point x="509" y="615"/>
      <point x="503" y="622"/>
      <point x="493" y="622" type="curve" smooth="yes"/>
      <point x="350" y="622" type="line"/>
      <point x="350" y="69" type="line" smooth="yes"/>
      <point x="350" y="57"/>
      <point x="359" y="48"/>
      <point x="371" y="47" type="curve" smooth="yes"/>
      <point x="435" y="43" type="line"/>
      <point x="435" y="0" type="line"/>
      <point x="164" y="0" type="line"/>
      <point x="164" y="43" type="line"/>
      <point x="228" y="47" type="line" smooth="yes"/>
      <point x="240" y="48"/>
      <point x="249" y="57"/>
      <point x="249" y="69" type="curve" smooth="yes"/>
      <point x="249" y="622" type="line"/>
      <point x="105" y="622" type="line" smooth="yes"/>
      <point x="95" y="622"/>
      <point x="89" y="615"/>
      <point x="88" y="605" type="curve"/>
      <point x="74" y="511" type="line"/>
    </contour>
    <contour>
      <point x="224.5" y="-202.667" type="curve"/>
      <point x="224.5" y="-163.667" type="line"/>
      <point x="242.5" y="-167.667"/>
      <point x="264.5" y="-171.667"/>
      <point x="285.5" y="-171.667" type="curve" smooth="yes"/>
      <point x="317.5" y="-171.667"/>
      <point x="349.5" y="-162.667"/>
      <point x="349.5" y="-130.667" type="curve" smooth="yes"/>
      <point x="349.5" y="-104.667"/>
      <point x="333.5" y="-93.667"/>
      <point x="312.5" y="-93.667" type="curve" smooth="yes"/>
      <point x="302.5" y="-93.667"/>
      <point x="289.5" y="-95.667"/>
      <point x="279.5" y="-99.667" type="curve"/>
      <point x="279.5" y="7.33299" type="line"/>
      <point x="319.5" y="7.33299" type="line"/>
      <point x="319.5" y="-50.667" type="line"/>
      <point x="327.5" y="-47.667"/>
      <point x="333.5" y="-46.667"/>
      <point x="342.5" y="-46.667" type="curve" smooth="yes"/>
      <point x="388.5" y="-46.667"/>
      <point x="414.5" y="-71.667"/>
      <point x="414.5" y="-117.667" type="curve" smooth="yes"/>
      <point x="414.5" y="-182.667"/>
      <point x="364.5" y="-212.667"/>
      <point x="298.5" y="-212.667" type="curve" smooth="yes"/>
      <point x="271.5" y="-212.667"/>
      <point x="245.5" y="-208.667"/>
    </contour>
  </outline>
</glyph>
<glyph name="tcaron" format="2">
  <advance width="339"/>
  <unicode hex="0165"/>
  <outline>
    <contour>
      <point x="27" y="432" type="line"/>
      <point x="27" y="465" type="line"/>
      <point x="95" y="497" type="line"/>
      <point x="140" y="603" type="line"/>
      <point x="184" y="603" type="line"/>
      <point x="184" y="482" type="line"/>
      <point x="325" y="482" type="line"/>
      <point x="325" y="432" type="line"/>
      <point x="184" y="432" type="line"/>
      <point x="184" y="133" type="line" smooth="yes"/>
      <point x="184" y="59.9266"/>
      <point x="196.325" y="44"/>
      <point x="242" y="44" type="curve" smooth="yes"/>
      <point x="278.716" y="44"/>
      <point x="308.459" y="50.8281"/>
      <point x="332" y="61" type="curve"/>
      <point x="332" y="21" type="line"/>
      <point x="296" y="4"/>
      <point x="252" y="-12"/>
      <point x="198" y="-12" type="curve" smooth="yes"/>
      <point x="121" y="-12"/>
      <point x="91" y="22"/>
      <point x="91" y="100" type="curve" smooth="yes"/>
      <point x="91" y="432" type="line"/>
    </contour>
    <contour>
      <point x="228" y="705" type="curve" smooth="yes"/>
      <point x="228" y="736"/>
      <point x="252" y="752"/>
      <point x="283" y="752" type="curve" smooth="yes"/>
      <point x="329" y="752"/>
      <point x="354" y="720"/>
      <point x="354" y="671" type="curve" smooth="yes"/>
      <point x="354" y="594"/>
      <point x="294" y="558"/>
      <point x="229" y="546" type="curve"/>
      <point x="229" y="575" type="line"/>
      <point x="276" y="589"/>
      <point x="302" y="609"/>
      <point x="302" y="669" type="curve"/>
      <point x="243" y="669" type="line"/>
      <point x="233" y="679"/>
      <point x="228" y="694"/>
    </contour>
  </outline>
</glyph>
<glyph name="utilde" format="2">
  <advance width="568"/>
  <unicode hex="0169"/>
  <outline>
    <contour>
      <point x="20" y="409" type="line"/>
      <point x="20" y="443" type="line"/>
      <point x="143" y="482" type="line"/>
      <point x="183" y="482" type="line"/>
      <point x="183" y="169" type="line" smooth="yes"/>
      <point x="183" y="98"/>
      <point x="209" y="56"/>
      <point x="280" y="56" type="curve" smooth="yes"/>
      <point x="324" y="56"/>
      <point x="358" y="69"/>
      <point x="389" y="84" type="curve"/>
      <point x="389" y="409" type="line"/>
      <point x="319" y="409" type="line"/>
      <point x="319" y="443" type="line"/>
      <point x="441" y="482" type="line"/>
      <point x="482" y="482" type="line"/>
      <point x="482" y="64" type="line" smooth="yes"/>
      <point x="482" y="52"/>
      <point x="493" y="44"/>
      <point x="504" y="43" type="curve" smooth="yes"/>
      <point x="548" y="39" type="line"/>
      <point x="548" y="0" type="line"/>
      <point x="389" y="0" type="line"/>
      <point x="389" y="56" type="line"/>
      <point x="351" y="27"/>
      <point x="294" y="-12"/>
      <point x="228" y="-12" type="curve" smooth="yes"/>
      <point x="130" y="-12"/>
      <point x="90" y="50"/>
      <point x="90" y="150" type="curve" smooth="yes"/>
      <point x="90" y="409" type="line"/>
    </contour>
    <contour>
      <point x="139.5" y="555" type="line"/>
      <point x="154.5" y="610"/>
      <point x="184.5" y="665"/>
      <point x="254.5" y="665" type="curve" smooth="yes"/>
      <point x="281.5" y="665"/>
      <point x="299.5" y="654"/>
      <point x="317.5" y="643" type="curve" smooth="yes"/>
      <point x="338.5" y="630"/>
      <point x="359.5" y="617"/>
      <point x="392.5" y="617" type="curve" smooth="yes"/>
      <point x="420.5" y="617"/>
      <point x="442.5" y="639"/>
      <point x="445.5" y="665" type="curve"/>
      <point x="485.5" y="665" type="line"/>
      <point x="470.5" y="610"/>
      <point x="440.5" y="555"/>
      <point x="370.5" y="555" type="curve" smooth="yes"/>
      <point x="343.5" y="555"/>
      <point x="324.5" y="566"/>
      <point x="305.5" y="578" type="curve" smooth="yes"/>
      <point x="285.5" y="590"/>
      <point x="262.5" y="603"/>
      <point x="231.5" y="603" type="curve" smooth="yes"/>
      <point x="203.5" y="603"/>
      <point x="182.5" y="580"/>
      <point x="179.5" y="555" type="curve"/>
    </contour>
  </outline>
</glyph>
<glyph name="Uhungarumlaut" format="2">
  <advance width="711"/>
  <unicode hex="0170"/>
  <outline>
    <contour>
      <point x="31" y="628" type="line"/>
      <point x="31" y="671" type="line"/>
      <point x="285" y="671" type="line"/>
      <point x="285" y="628" type="line"/>
      <point x="228" y="624" type="line" smooth="yes"/>
      <point x="216" y="623"/>
      <point x="207" y="614"/>
      <point x="207" y="602" type="curve" smooth="yes"/>
      <point x="207" y="249" type="line" smooth="yes"/>
      <point x="207" y="122"/>
      <point x="248" y="52"/>
      <point x="376" y="52" type="curve" smooth="yes"/>
      <point x="502" y="52"/>
      <point x="547" y="124"/>
      <point x="547" y="249" type="curve" smooth="yes"/>
      <point x="547" y="602" type="line" smooth="yes"/>
      <point x="547" y="614"/>
      <point x="537" y="623"/>
      <point x="525" y="624" type="curve" smooth="yes"/>
      <point x="468" y="628" type="line"/>
      <point x="468" y="671" type="line"/>
      <point x="685" y="671" type="line"/>
      <point x="685" y="628" type="line"/>
      <point x="627" y="624" type="line" smooth="yes"/>
      <point x="615" y="623"/>
      <point x="606" y="614"/>
      <point x="606" y="602" type="curve" smooth="yes"/>
      <point x="606" y="223" type="line" smooth="yes"/>
      <point x="606" y="57"/>
      <point x="515" y="-15"/>
      <point x="349" y="-15" type="curve" smooth="yes"/>
      <point x="187" y="-15"/>
      <point x="105" y="63"/>
      <point x="105" y="223" type="curve" smooth="yes"/>
      <point x="105" y="602" type="line" smooth="yes"/>
      <point x="105" y="614"/>
      <point x="96" y="623"/>
      <point x="84" y="624" type="curve" smooth="yes"/>
    </contour>
    <contour>
      <point x="232" y="747" type="line"/>
      <point x="365" y="902" type="line" smooth="yes"/>
      <point x="377" y="916"/>
      <point x="389" y="929"/>
      <point x="418" y="929" type="curve" smooth="yes"/>
      <point x="447" y="929"/>
      <point x="464" y="912"/>
      <point x="464" y="883" type="curve" smooth="yes"/>
      <point x="464" y="863"/>
      <point x="453" y="852"/>
      <point x="440" y="844" type="curve" smooth="yes"/>
      <point x="289" y="747" type="line"/>
    </contour>
    <contour>
      <point x="427" y="746" type="line"/>
      <point x="561" y="901" type="line" smooth="yes"/>
      <point x="575" y="917"/>
      <point x="586" y="929"/>
      <point x="613" y="929" type="curve" smooth="yes"/>
      <point x="642" y="929"/>
      <point x="659" y="912"/>
      <point x="659" y="884" type="curve" smooth="yes"/>
      <point x="659" y="864"/>
      <point x="649" y="851"/>
      <point x="636" y="843" type="curve" smooth="yes"/>
      <point x="484" y="746" type="line"/>
    </contour>
  </outline>
</glyph>
<glyph name="uhungarumlaut" format="2">
  <advance width="568"/>
  <unicode hex="0171"/>
  <outline>
    <contour>
      <point x="20" y="409" type="line"/>
      <point x="20" y="443" type="line"/>
      <point x="143" y="482" type="line"/>
      <point x="183" y="482" type="line"/>
      <point x="183" y="169" type="line" smooth="yes"/>
      <point x="183" y="98"/>
      <point x="209" y="56"/>
      <point x="280" y="56" type="curve" smooth="yes"/>
      <point x="324" y="56"/>
      <point x="358" y="69"/>
      <point x="389" y="84" type="curve"/>
      <point x="389" y="409" type="line"/>
      <point x="319" y="409" type="line"/>
      <point x="319" y="443" type="line"/>
      <point x="441" y="482" type="line"/>
      <point x="482" y="482" type="line"/>
      <point x="482" y="64" type="line" smooth="yes"/>
      <point x="482" y="52"/>
      <point x="493" y="44"/>
      <point x="504" y="43" type="curve" smooth="yes"/>
      <point x="548" y="39" type="line"/>
      <point x="548" y="0" type="line"/>
      <point x="389" y="0" type="line"/>
      <point x="389" y="56" type="line"/>
      <point x="351" y="27"/>
      <point x="294" y="-12"/>
      <point x="228" y="-12" type="curve" smooth="yes"/>
      <point x="130" y="-12"/>
      <point x="90" y="50"/>
      <point x="90" y="150" type="curve" smooth="yes"/>
      <point x="90" y="409" type="line"/>
    </contour>
    <contour>
      <point x="93" y="556" type="line"/>
      <point x="226" y="711" type="line" smooth="yes"/>
      <point x="238" y="725"/>
      <point x="250" y="738"/>
      <point x="279" y="738" type="curve" smooth="yes"/>
      <point x="308" y="738"/>
      <point x="325" y="721"/>
      <point x="325" y="692" type="curve" smooth="yes"/>
      <point x="325" y="672"/>
      <point x="314" y="661"/>
      <point x="301" y="653" type="curve" smooth="yes"/>
      <point x="150" y="556" type="line"/>
    </contour>
    <contour>
      <point x="288" y="555" type="line"/>
      <point x="422" y="710" type="line" smooth="yes"/>
      <point x="436" y="726"/>
      <point x="447" y="738"/>
      <point x="474" y="738" type="curve" smooth="yes"/>
      <point x="503" y="738"/>
      <point x="520" y="721"/>
      <point x="520" y="693" type="curve" smooth="yes"/>
      <point x="520" y="673"/>
      <point x="510" y="660"/>
      <point x="497" y="652" type="curve" smooth="yes"/>
      <point x="345" y="555" type="line"/>
    </contour>
  </outline>
</glyph>
<glyph name="Ydieresis" format="2">
  <advance width="625"/>
  <unicode hex="0178"/>
  <outline>
    <contour>
      <point x="10" y="628" type="line"/>
      <point x="10" y="671" type="line"/>
      <point x="247" y="671" type="line"/>
      <point x="247" y="628" type="line"/>
      <point x="197" y="623" type="line" smooth="yes"/>
      <point x="187.688" y="622.284"/>
      <point x="182.48" y="617.976"/>
      <point x="182.48" y="611.547" type="curve" smooth="yes"/>
      <point x="182.48" y="609"/>
      <point x="183.298" y="606.121"/>
      <point x="185" y="603" type="curve" smooth="yes"/>
      <point x="326" y="342" type="line"/>
      <point x="481" y="600" type="line"/>
      <point x="482.278" y="602.344"/>
      <point x="482.83" y="604.596"/>
      <point x="482.83" y="606.699" type="curve" smooth="yes"/>
      <point x="482.83" y="614.472"/>
      <point x="475.296" y="620.213"/>
      <point x="469" y="621" type="curve" smooth="yes"/>
      <point x="413" y="628" type="line"/>
      <point x="413" y="671" type="line"/>
      <point x="616" y="671" type="line"/>
      <point x="616" y="628" type="line"/>
      <point x="562" y="618" type="line"/>
      <point x="361" y="285" type="line"/>
      <point x="361" y="69" type="line" smooth="yes"/>
      <point x="361" y="58"/>
      <point x="371" y="48"/>
      <point x="382" y="47" type="curve"/>
      <point x="446" y="43" type="line"/>
      <point x="446" y="0" type="line"/>
      <point x="176" y="0" type="line"/>
      <point x="176" y="43" type="line"/>
      <point x="238" y="47" type="line" smooth="yes"/>
      <point x="250" y="48"/>
      <point x="260" y="57"/>
      <point x="260" y="69" type="curve" smooth="yes"/>
      <point x="260" y="270" type="line"/>
      <point x="68" y="616" type="line"/>
    </contour>
    <contour>
      <point x="155" y="801" type="curve" smooth="yes"/>
      <point x="155" y="832"/>
      <point x="179" y="857"/>
      <point x="210" y="857" type="curve" smooth="yes"/>
      <point x="241" y="857"/>
      <point x="264" y="832"/>
      <point x="264" y="802" type="curve" smooth="yes"/>
      <point x="264" y="771"/>
      <point x="241" y="746"/>
      <point x="210" y="746" type="curve" smooth="yes"/>
      <point x="179" y="746"/>
      <point x="155" y="770"/>
    </contour>
    <contour>
      <point x="362" y="802" type="curve" smooth="yes"/>
      <point x="362" y="832"/>
      <point x="388" y="857"/>
      <point x="418" y="857" type="curve" smooth="yes"/>
      <point x="448" y="857"/>
      <point x="471" y="833"/>
      <point x="471" y="802" type="curve" smooth="yes"/>
      <point x="471" y="771"/>
      <point x="449" y="746"/>
      <point x="418" y="746" type="curve" smooth="yes"/>
      <point x="386" y="746"/>
      <point x="362" y="770"/>
    </contour>
  </outline>
</glyph>
<glyph name="zacute" format="2">
  <advance width="461"/>
  <unicode hex="017A"/>
  <outline>
    <contour>
      <point x="34" y="0" type="line"/>
      <point x="34" y="53" type="line"/>
      <point x="300" y="435" type="line"/>
      <point x="126" y="435" type="line" smooth="yes"/>
      <point x="116" y="435"/>
      <point x="107" y="423"/>
      <point x="106" y="414" type="curve" smooth="yes"/>
      <point x="96" y="340" type="line"/>
      <point x="45" y="340" type="line"/>
      <point x="45" y="482" type="line"/>
      <point x="415" y="482" type="line"/>
      <point x="415" y="441" type="line"/>
      <point x="141" y="48" type="line"/>
      <point x="343" y="48" type="line" smooth="yes"/>
      <point x="354" y="48"/>
      <point x="362" y="63"/>
      <point x="364" y="72" type="curve"/>
      <point x="374" y="151" type="line"/>
      <point x="428" y="151" type="line"/>
      <point x="428" y="0" type="line"/>
    </contour>
    <contour>
      <point x="202" y="555" type="line"/>
      <point x="334" y="710" type="line"/>
      <point x="346" y="725"/>
      <point x="359" y="737"/>
      <point x="387" y="737" type="curve" smooth="yes"/>
      <point x="416.658" y="737"/>
      <point x="434" y="720.588"/>
      <point x="434" y="692" type="curve" smooth="yes"/>
      <point x="434" y="673"/>
      <point x="422.012" y="658.981"/>
      <point x="411" y="652" type="curve" smooth="yes"/>
      <point x="258" y="555" type="line"/>
    </contour>
  </outline>
</glyph>
<glyph name="uni0180" format="2">
  <advance width="555"/>
  <unicode hex="0180"/>
  <outline>
    <contour>
      <point x="7" y="539" type="line"/>
      <point x="7" y="590" type="line"/>
      <point x="90" y="590" type="line"/>
      <point x="90" y="665" type="line"/>
      <point x="14" y="665" type="line"/>
      <point x="14" y="698" type="line"/>
      <point x="144" y="737" type="line"/>
      <point x="183" y="737" type="line"/>
      <point x="183" y="590" type="line"/>
      <point x="304" y="590" type="line"/>
      <point x="304" y="539" type="line"/>
      <point x="183" y="539" type="line"/>
      <point x="183" y="456" type="line"/>
      <point x="220.727" y="473"/>
      <point x="266.396" y="493"/>
      <point x="321" y="493" type="curve" smooth="yes"/>
      <point x="452.747" y="493"/>
      <point x="520" y="394.434"/>
      <point x="520" y="263" type="curve" smooth="yes"/>
      <point x="520" y="87.8909"/>
      <point x="411.149" y="0"/>
      <point x="234" y="0" type="curve" smooth="yes"/>
      <point x="90" y="0" type="line"/>
      <point x="90" y="539" type="line"/>
    </contour>
    <contour>
      <point x="182" y="48" type="line"/>
      <point x="196.698" y="47"/>
      <point x="214.754" y="47"/>
      <point x="231" y="47" type="curve" smooth="yes"/>
      <point x="362" y="47"/>
      <point x="418" y="111"/>
      <point x="418" y="243" type="curve" smooth="yes"/>
      <point x="418" y="355"/>
      <point x="374" y="434"/>
      <point x="264" y="434" type="curve" smooth="yes"/>
      <point x="235" y="434"/>
      <point x="205" y="426"/>
      <point x="182" y="419" type="curve"/>
    </contour>
  </outline>
</glyph>
<glyph name="uni0181" format="2">
  <advance width="676"/>
  <unicode hex="0181"/>
  <outline>
    <contour>
      <point x="276" y="368" type="line"/>
      <point x="279.764" y="368"/>
      <point x="305.618" y="368"/>
      <point x="313" y="368" type="curve" smooth="yes"/>
      <point x="420" y="368"/>
      <point x="488" y="400"/>
      <point x="488" y="504" type="curve" smooth="yes"/>
      <point x="488" y="592"/>
      <point x="424" y="625"/>
      <point x="334" y="625" type="curve" smooth="yes"/>
      <point x="314.162" y="625"/>
      <point x="294.533" y="624"/>
      <point x="276" y="622" type="curve"/>
    </contour>
    <contour>
      <point x="277" y="52" type="line"/>
      <point x="297.19" y="50.1303"/>
      <point x="317.583" y="49"/>
      <point x="340" y="49" type="curve" smooth="yes"/>
      <point x="456.053" y="49"/>
      <point x="528" y="102.961"/>
      <point x="528" y="190" type="curve" smooth="yes"/>
      <point x="528" y="286"/>
      <point x="466" y="322"/>
      <point x="366" y="322" type="curve" smooth="yes"/>
      <point x="336" y="322"/>
      <point x="304" y="319"/>
      <point x="277" y="316" type="curve"/>
    </contour>
    <contour>
      <point x="-16" y="563" type="curve" smooth="yes"/>
      <point x="-16" y="647"/>
      <point x="56" y="671"/>
      <point x="147" y="671" type="curve" smooth="yes"/>
      <point x="372" y="671" type="line" smooth="yes"/>
      <point x="499" y="671"/>
      <point x="598" y="633"/>
      <point x="598" y="510" type="curve" smooth="yes"/>
      <point x="598" y="415"/>
      <point x="527" y="376"/>
      <point x="453" y="356" type="curve"/>
      <point x="558.851" y="356"/>
      <point x="638" y="304.344"/>
      <point x="638" y="198" type="curve" smooth="yes"/>
      <point x="638" y="55"/>
      <point x="525" y="0"/>
      <point x="384" y="0" type="curve" smooth="yes"/>
      <point x="104" y="0" type="line"/>
      <point x="104" y="43" type="line"/>
      <point x="154" y="47" type="line" smooth="yes"/>
      <point x="166.003" y="47.9603"/>
      <point x="179" y="57"/>
      <point x="179" y="69" type="curve" smooth="yes"/>
      <point x="179" y="603" type="line" smooth="yes"/>
      <point x="179" y="616"/>
      <point x="171" y="624"/>
      <point x="158" y="624" type="curve" smooth="yes"/>
      <point x="120" y="624" type="line" smooth="yes"/>
      <point x="88" y="624"/>
      <point x="73" y="618"/>
      <point x="61" y="600" type="curve"/>
      <point x="103" y="529" type="line"/>
      <point x="87" y="511"/>
      <point x="68" y="499"/>
      <point x="39" y="499" type="curve" smooth="yes"/>
      <point x="7" y="499"/>
      <point x="-16" y="531"/>
    </contour>
  </outline>
</glyph>
<glyph name="uni0182" format="2">
  <advance width="604"/>
  <unicode hex="0182"/>
  <outline>
    <contour>
      <point x="23" y="0" type="line"/>
      <point x="23" y="43" type="line"/>
      <point x="84" y="47" type="line" smooth="yes"/>
      <point x="96.0139" y="47.7878"/>
      <point x="105" y="57"/>
      <point x="105" y="68" type="curve" smooth="yes"/>
      <point x="105" y="603" type="line" smooth="yes"/>
      <point x="105" y="614"/>
      <point x="96.0071" y="623.094"/>
      <point x="84" y="624" type="curve" smooth="yes"/>
      <point x="31" y="628" type="line"/>
      <point x="31" y="671" type="line"/>
      <point x="480" y="671" type="line"/>
      <point x="480" y="515" type="line"/>
      <point x="425" y="515" type="line"/>
      <point x="412" y="605" type="line" smooth="yes"/>
      <point x="410.706" y="613.958"/>
      <point x="405" y="624"/>
      <point x="395" y="624" type="curve" smooth="yes"/>
      <point x="228" y="624" type="line" smooth="yes"/>
      <point x="216" y="624"/>
      <point x="207" y="614"/>
      <point x="207" y="603" type="curve" smooth="yes"/>
      <point x="207" y="364" type="line"/>
      <point x="230" y="367"/>
      <point x="254" y="369"/>
      <point x="280" y="369" type="curve" smooth="yes"/>
      <point x="425.398" y="369"/>
      <point x="565" y="337.089"/>
      <point x="565" y="193" type="curve" smooth="yes"/>
      <point x="565" y="31"/>
      <point x="428" y="0"/>
      <point x="262" y="0" type="curve" smooth="yes"/>
    </contour>
    <contour>
      <point x="207" y="48" type="line"/>
      <point x="213.118" y="47.2353"/>
      <point x="244" y="46"/>
      <point x="257" y="46" type="curve" smooth="yes"/>
      <point x="374" y="46"/>
      <point x="456" y="75"/>
      <point x="456" y="190" type="curve" smooth="yes"/>
      <point x="456" y="303"/>
      <point x="382" y="322"/>
      <point x="270" y="322" type="curve" smooth="yes"/>
      <point x="248" y="322"/>
      <point x="226" y="320"/>
      <point x="207" y="317" type="curve"/>
    </contour>
  </outline>
</glyph>
<glyph name="uni0184" format="2">
  <advance width="604"/>
  <unicode hex="0184"/>
  <outline>
    <contour>
      <point x="23" y="0" type="line"/>
      <point x="23" y="43" type="line"/>
      <point x="84" y="47" type="line" smooth="yes"/>
      <point x="96.0139" y="47.7878"/>
      <point x="105" y="57"/>
      <point x="105" y="68" type="curve" smooth="yes"/>
      <point x="105" y="424" type="line"/>
      <point x="31" y="516" type="line"/>
      <point x="207" y="687" type="line"/>
      <point x="207" y="364" type="line"/>
      <point x="230" y="367"/>
      <point x="254" y="369"/>
      <point x="280" y="369" type="curve" smooth="yes"/>
      <point x="425.398" y="369"/>
      <point x="565" y="337.089"/>
      <point x="565" y="193" type="curve" smooth="yes"/>
      <point x="565" y="31"/>
      <point x="428" y="0"/>
      <point x="262" y="0" type="curve" smooth="yes"/>
    </contour>
    <contour>
      <point x="207" y="48" type="line"/>
      <point x="211.614" y="47.1557"/>
      <point x="240.506" y="46"/>
      <point x="257" y="46" type="curve" smooth="yes"/>
      <point x="374" y="46"/>
      <point x="456" y="75"/>
      <point x="456" y="190" type="curve" smooth="yes"/>
      <point x="456" y="303"/>
      <point x="382" y="322"/>
      <point x="270" y="322" type="curve" smooth="yes"/>
      <point x="248" y="322"/>
      <point x="226" y="320"/>
      <point x="207" y="317" type="curve"/>
    </contour>
  </outline>
</glyph>
<glyph name="uni018B" format="2">
  <advance width="612"/>
  <unicode hex="018B"/>
  <outline>
    <contour>
      <point x="40" y="186" type="curve" smooth="yes"/>
      <point x="40" y="324.826"/>
      <point x="184.596" y="370"/>
      <point x="325" y="370" type="curve" smooth="yes"/>
      <point x="350" y="370"/>
      <point x="375" y="368"/>
      <point x="397" y="365" type="curve"/>
      <point x="397" y="603" type="line" smooth="yes"/>
      <point x="397" y="614.524"/>
      <point x="388.429" y="625"/>
      <point x="377" y="625" type="curve" smooth="yes"/>
      <point x="209" y="625" type="line" smooth="yes"/>
      <point x="199" y="625"/>
      <point x="193.197" y="614.974"/>
      <point x="192" y="606" type="curve" smooth="yes"/>
      <point x="180" y="516" type="line"/>
      <point x="125" y="516" type="line"/>
      <point x="125" y="672" type="line"/>
      <point x="573" y="672" type="line"/>
      <point x="573" y="629" type="line"/>
      <point x="521" y="625" type="line" smooth="yes"/>
      <point x="508.994" y="624.076"/>
      <point x="500" y="615"/>
      <point x="500" y="604" type="curve" smooth="yes"/>
      <point x="500" y="69" type="line" smooth="yes"/>
      <point x="500" y="58"/>
      <point x="508.986" y="48.7878"/>
      <point x="521" y="48" type="curve" smooth="yes"/>
      <point x="582" y="44" type="line"/>
      <point x="582" y="1" type="line"/>
      <point x="342" y="1" type="line" smooth="yes"/>
      <point x="178" y="1"/>
      <point x="40" y="24"/>
    </contour>
    <contour>
      <point x="147" y="180" type="curve" smooth="yes"/>
      <point x="147" y="65"/>
      <point x="231" y="46"/>
      <point x="347" y="46" type="curve" smooth="yes"/>
      <point x="364.193" y="46"/>
      <point x="381.428" y="46.8856"/>
      <point x="397" y="48" type="curve"/>
      <point x="397" y="317" type="line"/>
      <point x="377" y="320"/>
      <point x="356" y="322"/>
      <point x="333" y="322" type="curve" smooth="yes"/>
      <point x="220" y="322"/>
      <point x="147" y="291"/>
    </contour>
  </outline>
</glyph>
<glyph name="uni018C" format="2">
  <advance width="563"/>
  <unicode hex="018C"/>
  <outline>
    <contour>
      <point x="33" y="229" type="curve" smooth="yes"/>
      <point x="33" y="385.68"/>
      <point x="129.993" y="495"/>
      <point x="288" y="495" type="curve" smooth="yes"/>
      <point x="321" y="495"/>
      <point x="354" y="489"/>
      <point x="381" y="483" type="curve"/>
      <point x="381" y="670" type="line" smooth="yes"/>
      <point x="381" y="680"/>
      <point x="371" y="691"/>
      <point x="360" y="691" type="curve" smooth="yes"/>
      <point x="182" y="691" type="line" smooth="yes"/>
      <point x="175" y="691"/>
      <point x="168.02" y="682.848"/>
      <point x="167" y="676" type="curve" smooth="yes"/>
      <point x="153" y="582" type="line"/>
      <point x="98" y="582" type="line"/>
      <point x="98" y="738" type="line"/>
      <point x="474" y="738" type="line"/>
      <point x="474" y="65" type="line" smooth="yes"/>
      <point x="474" y="53"/>
      <point x="483.984" y="44.7686"/>
      <point x="495" y="44" type="curve" smooth="yes"/>
      <point x="538" y="41" type="line"/>
      <point x="538" y="2" type="line"/>
      <point x="381" y="2" type="line"/>
      <point x="381" y="55" type="line"/>
      <point x="340.956" y="24.664"/>
      <point x="292.453" y="-11"/>
      <point x="225" y="-11" type="curve" smooth="yes"/>
      <point x="96.6077" y="-11"/>
      <point x="33" y="100.973"/>
    </contour>
    <contour>
      <point x="133" y="245" type="curve" smooth="yes"/>
      <point x="133" y="139.714"/>
      <point x="174.445" y="57"/>
      <point x="278" y="57" type="curve" smooth="yes"/>
      <point x="321" y="57"/>
      <point x="353" y="75"/>
      <point x="381" y="92" type="curve"/>
      <point x="381" y="432" type="line"/>
      <point x="357" y="440"/>
      <point x="327" y="447"/>
      <point x="296" y="447" type="curve" smooth="yes"/>
      <point x="184.462" y="447"/>
      <point x="133" y="356.473"/>
    </contour>
  </outline>
</glyph>
<glyph name="uni018E" format="2">
  <advance width="583"/>
  <unicode hex="018E"/>
  <outline>
    <contour>
      <point x="32" y="0" type="line"/>
      <point x="32" y="167" type="line"/>
      <point x="86" y="167" type="line"/>
      <point x="104" y="68" type="line" smooth="yes"/>
      <point x="105" y="62"/>
      <point x="114" y="49"/>
      <point x="122" y="49" type="curve" smooth="yes"/>
      <point x="375" y="49" type="line"/>
      <point x="375" y="324" type="line"/>
      <point x="225" y="324" type="line" smooth="yes"/>
      <point x="218" y="324"/>
      <point x="207" y="313"/>
      <point x="207" y="306" type="curve"/>
      <point x="197" y="237" type="line"/>
      <point x="146" y="237" type="line"/>
      <point x="146" y="460" type="line"/>
      <point x="197" y="460" type="line"/>
      <point x="207" y="391" type="line"/>
      <point x="207" y="383"/>
      <point x="217" y="374"/>
      <point x="225" y="374" type="curve" smooth="yes"/>
      <point x="375" y="374" type="line"/>
      <point x="375" y="623" type="line"/>
      <point x="158" y="623" type="line" smooth="yes"/>
      <point x="148" y="623"/>
      <point x="141" y="613"/>
      <point x="140" y="604" type="curve"/>
      <point x="125" y="522" type="line"/>
      <point x="65" y="522" type="line"/>
      <point x="65" y="671" type="line"/>
      <point x="551" y="671" type="line"/>
      <point x="551" y="628" type="line"/>
      <point x="499" y="624" type="line" smooth="yes"/>
      <point x="487" y="623"/>
      <point x="477" y="614"/>
      <point x="477" y="602" type="curve" smooth="yes"/>
      <point x="477" y="69" type="line" smooth="yes"/>
      <point x="477" y="57"/>
      <point x="487" y="48"/>
      <point x="499" y="47" type="curve" smooth="yes"/>
      <point x="551" y="43" type="line"/>
      <point x="551" y="0" type="line"/>
    </contour>
  </outline>
</glyph>
<glyph name="uni0191" format="2">
  <advance width="541"/>
  <unicode hex="0191"/>
  <outline>
    <contour>
      <point x="-98" y="-156" type="curve" smooth="yes"/>
      <point x="-98" y="-127.615"/>
      <point x="-77.4294" y="-100.748"/>
      <point x="-49" y="-92" type="curve"/>
      <point x="28" y="-181" type="line"/>
      <point x="93" y="-181"/>
      <point x="107" y="-127"/>
      <point x="107" y="-62" type="curve" smooth="yes"/>
      <point x="107" y="600" type="line" smooth="yes"/>
      <point x="107" y="612"/>
      <point x="98.0139" y="621.212"/>
      <point x="86" y="622" type="curve" smooth="yes"/>
      <point x="25" y="626" type="line"/>
      <point x="25" y="669" type="line"/>
      <point x="511" y="669" type="line"/>
      <point x="511" y="510" type="line"/>
      <point x="452" y="510" type="line"/>
      <point x="438" y="602" type="line" smooth="yes"/>
      <point x="436.639" y="610.945"/>
      <point x="431" y="620"/>
      <point x="421" y="620" type="curve" smooth="yes"/>
      <point x="207" y="620" type="line"/>
      <point x="207" y="360" type="line"/>
      <point x="361" y="360" type="line" smooth="yes"/>
      <point x="370" y="360"/>
      <point x="378.098" y="370.987"/>
      <point x="379" y="378" type="curve" smooth="yes"/>
      <point x="388" y="448" type="line"/>
      <point x="438" y="448" type="line"/>
      <point x="438" y="223" type="line"/>
      <point x="388" y="223" type="line"/>
      <point x="379" y="293" type="line" smooth="yes"/>
      <point x="378.225" y="299.029"/>
      <point x="369" y="311"/>
      <point x="361" y="311" type="curve" smooth="yes"/>
      <point x="207" y="311" type="line"/>
      <point x="207" y="-23" type="line" smooth="yes"/>
      <point x="207" y="-149.22"/>
      <point x="125.192" y="-231"/>
      <point x="-1" y="-231" type="curve" smooth="yes"/>
      <point x="-60.422" y="-231"/>
      <point x="-98" y="-201.945"/>
    </contour>
  </outline>
</glyph>
<glyph name="florin" format="2">
  <advance width="326"/>
  <unicode hex="0192"/>
  <outline>
    <contour>
      <point x="-97" y="-170" type="curve" smooth="yes"/>
      <point x="-97" y="-140"/>
      <point x="-75" y="-124"/>
      <point x="-52" y="-117" type="curve"/>
      <point x="41" y="-184" type="line"/>
      <point x="84" y="-160"/>
      <point x="99" y="-102"/>
      <point x="99" y="-33" type="curve" smooth="yes"/>
      <point x="99" y="421" type="line"/>
      <point x="35" y="421" type="line"/>
      <point x="35" y="456" type="line"/>
      <point x="99" y="474" type="line"/>
      <point x="99" y="563"/>
      <point x="124.532" y="626.422"/>
      <point x="167" y="673" type="curve" smooth="yes"/>
      <point x="198" y="707"/>
      <point x="242" y="735"/>
      <point x="303" y="735" type="curve" smooth="yes"/>
      <point x="346.216" y="735"/>
      <point x="390" y="717.115"/>
      <point x="390" y="676" type="curve" smooth="yes"/>
      <point x="390" y="649.607"/>
      <point x="374.971" y="632.291"/>
      <point x="344" y="623" type="curve"/>
      <point x="251" y="688" type="line"/>
      <point x="208.276" y="665"/>
      <point x="192" y="606"/>
      <point x="192" y="538" type="curve" smooth="yes"/>
      <point x="192" y="474" type="line"/>
      <point x="316" y="474" type="line"/>
      <point x="316" y="421" type="line"/>
      <point x="192" y="421" type="line"/>
      <point x="192" y="43" type="line" smooth="yes"/>
      <point x="192" y="-102.44"/>
      <point x="132.086" y="-230"/>
      <point x="-11" y="-230" type="curve" smooth="yes"/>
      <point x="-55" y="-230"/>
      <point x="-97" y="-212"/>
    </contour>
  </outline>
</glyph>
<glyph name="uni0194" format="2">
  <advance width="666"/>
  <unicode hex="0194"/>
  <outline>
    <contour>
      <point x="11" y="633" type="line"/>
      <point x="11" y="672" type="line"/>
      <point x="275" y="672" type="line"/>
      <point x="275" y="633" type="line"/>
      <point x="219" y="630" type="line" smooth="yes"/>
      <point x="207.983" y="629.41"/>
      <point x="200.992" y="624.803"/>
      <point x="200.992" y="618" type="curve"/>
      <point x="200.992" y="616.15"/>
      <point x="201.841" y="614.203"/>
      <point x="203" y="612" type="curve" smooth="yes"/>
      <point x="354" y="325" type="line"/>
      <point x="517" y="612" type="line" smooth="yes"/>
      <point x="518.659" y="614.921"/>
      <point x="519.73" y="617.539"/>
      <point x="519.73" y="620" type="curve" smooth="yes"/>
      <point x="519.73" y="625.443"/>
      <point x="514.964" y="629.536"/>
      <point x="506" y="630" type="curve" smooth="yes"/>
      <point x="448" y="633" type="line"/>
      <point x="448" y="672" type="line"/>
      <point x="658" y="672" type="line"/>
      <point x="658" y="633" type="line"/>
      <point x="590" y="627" type="line"/>
      <point x="387" y="262" type="line"/>
      <point x="458" y="126" type="line" smooth="yes"/>
      <point x="464.832" y="112.913"/>
      <point x="471" y="101"/>
      <point x="471" y="87" type="curve" smooth="yes"/>
      <point x="471" y="19.9627"/>
      <point x="414.658" y="-15"/>
      <point x="345" y="-15" type="curve" smooth="yes"/>
      <point x="279" y="-15"/>
      <point x="224" y="10"/>
      <point x="224" y="73" type="curve" smooth="yes"/>
      <point x="224" y="89"/>
      <point x="227.839" y="102.091"/>
      <point x="234" y="113" type="curve" smooth="yes"/>
      <point x="295" y="221" type="line"/>
      <point x="82" y="628" type="line"/>
    </contour>
    <contour>
      <point x="286" y="77" type="curve" smooth="yes"/>
      <point x="286" y="56"/>
      <point x="305" y="42"/>
      <point x="327" y="42" type="curve" smooth="yes"/>
      <point x="350.605" y="42"/>
      <point x="366" y="56.4"/>
      <point x="366" y="78" type="curve" smooth="yes"/>
      <point x="366" y="84.8666"/>
      <point x="363.303" y="90.6002"/>
      <point x="360" y="97" type="curve" smooth="yes"/>
      <point x="328" y="159" type="line"/>
      <point x="291" y="97" type="line" smooth="yes"/>
      <point x="287.132" y="90.5181"/>
      <point x="286" y="83"/>
    </contour>
  </outline>
</glyph>
<glyph name="uni0195" format="2">
  <advance width="869"/>
  <unicode hex="0195"/>
  <outline>
    <contour>
      <point x="14" y="666" type="line"/>
      <point x="14" y="699" type="line"/>
      <point x="142" y="738" type="line"/>
      <point x="182" y="738" type="line"/>
      <point x="182" y="433" type="line"/>
      <point x="247.417" y="475.279"/>
      <point x="298.362" y="494"/>
      <point x="348" y="494" type="curve" smooth="yes"/>
      <point x="433.48" y="494"/>
      <point x="484" y="437.908"/>
      <point x="484" y="343" type="curve" smooth="yes"/>
      <point x="484" y="169" type="line" smooth="yes"/>
      <point x="484" y="87.5935"/>
      <point x="517.182" y="51"/>
      <point x="591" y="51" type="curve" smooth="yes"/>
      <point x="655.87" y="51"/>
      <point x="687" y="88.2914"/>
      <point x="687" y="166" type="curve" smooth="yes"/>
      <point x="687" y="423" type="line"/>
      <point x="617" y="423" type="line"/>
      <point x="617" y="457" type="line"/>
      <point x="739" y="496" type="line"/>
      <point x="780" y="496" type="line"/>
      <point x="780" y="173" type="line" smooth="yes"/>
      <point x="780" y="59.7622"/>
      <point x="703.469" y="-11"/>
      <point x="581" y="-11" type="curve" smooth="yes"/>
      <point x="458.912" y="-11"/>
      <point x="390" y="52.8613"/>
      <point x="390" y="166" type="curve" smooth="yes"/>
      <point x="390" y="323" type="line" smooth="yes"/>
      <point x="390" y="390"/>
      <point x="358" y="422"/>
      <point x="291" y="422" type="curve" smooth="yes"/>
      <point x="253.931" y="422"/>
      <point x="216.524" y="412.048"/>
      <point x="182" y="393" type="curve"/>
      <point x="182" y="65" type="line" smooth="yes"/>
      <point x="182" y="53"/>
      <point x="190.984" y="44.7686"/>
      <point x="202" y="44" type="curve" smooth="yes"/>
      <point x="245" y="41" type="line"/>
      <point x="245" y="2" type="line"/>
      <point x="20" y="2" type="line"/>
      <point x="20" y="41" type="line"/>
      <point x="68" y="44" type="line" smooth="yes"/>
      <point x="79.0195" y="44.6887"/>
      <point x="89" y="53"/>
      <point x="89" y="65" type="curve" smooth="yes"/>
      <point x="89" y="666" type="line"/>
    </contour>
  </outline>
</glyph>
<glyph name="uni019B" format="2">
  <advance width="645"/>
  <unicode hex="019B"/>
  <outline>
    <contour>
      <point x="11" y="-2" type="line"/>
      <point x="246" y="454" type="line"/>
      <point x="224" y="509" type="line"/>
      <point x="97" y="398" type="line"/>
      <point x="97" y="470" type="line"/>
      <point x="202" y="562" type="line"/>
      <point x="188.053" y="593.253"/>
      <point x="174.282" y="620"/>
      <point x="142" y="620" type="curve" smooth="yes"/>
      <point x="131.286" y="620"/>
      <point x="121.035" y="617.796"/>
      <point x="117" y="610" type="curve" smooth="yes"/>
      <point x="73" y="525" type="line"/>
      <point x="44.9611" y="525"/>
      <point x="14" y="556.686"/>
      <point x="14" y="585" type="curve" smooth="yes"/>
      <point x="14" y="664"/>
      <point x="53" y="687"/>
      <point x="132" y="687" type="curve" smooth="yes"/>
      <point x="196.78" y="687"/>
      <point x="225.877" y="651.523"/>
      <point x="250" y="605" type="curve"/>
      <point x="343" y="687" type="line"/>
      <point x="343" y="615" type="line"/>
      <point x="272" y="554" type="line"/>
      <point x="438" y="141" type="line" smooth="yes"/>
      <point x="461.317" y="82.9887"/>
      <point x="484.308" y="54"/>
      <point x="507" y="54" type="curve" smooth="yes"/>
      <point x="517.389" y="54"/>
      <point x="526.179" y="56.8255"/>
      <point x="535" y="63" type="curve"/>
      <point x="578" y="148" type="line"/>
      <point x="619.169" y="148"/>
      <point x="647" y="115.732"/>
      <point x="647" y="68" type="curve" smooth="yes"/>
      <point x="647" y="14.1979"/>
      <point x="609.861" y="-14"/>
      <point x="539" y="-14" type="curve" smooth="yes"/>
      <point x="468.779" y="-14"/>
      <point x="424.231" y="21.7556"/>
      <point x="387" y="108" type="curve"/>
      <point x="289" y="351" type="line"/>
      <point x="107" y="-2" type="line"/>
    </contour>
  </outline>
</glyph>
<glyph name="uni019C" format="2">
  <advance width="1077"/>
  <unicode hex="019C"/>
  <outline>
    <contour>
      <point x="29" y="629" type="line"/>
      <point x="29" y="672" type="line"/>
      <point x="285" y="672" type="line"/>
      <point x="285" y="629" type="line"/>
      <point x="234" y="625" type="line" smooth="yes"/>
      <point x="221.995" y="624.058"/>
      <point x="213" y="615"/>
      <point x="213" y="603" type="curve" smooth="yes"/>
      <point x="213" y="219" type="line" smooth="yes"/>
      <point x="213" y="127.42"/>
      <point x="273.601" y="68"/>
      <point x="367" y="68" type="curve" smooth="yes"/>
      <point x="403.753" y="68"/>
      <point x="445.457" y="81.9012"/>
      <point x="502" y="113" type="curve"/>
      <point x="493.958" y="138.132"/>
      <point x="490" y="166.167"/>
      <point x="490" y="198" type="curve" smooth="yes"/>
      <point x="490" y="602" type="line" smooth="yes"/>
      <point x="490" y="613"/>
      <point x="480.019" y="623.289"/>
      <point x="469" y="624" type="curve" smooth="yes"/>
      <point x="407" y="628" type="line"/>
      <point x="407" y="671" type="line"/>
      <point x="663" y="671" type="line"/>
      <point x="663" y="628" type="line"/>
      <point x="612" y="624" type="line" smooth="yes"/>
      <point x="599.995" y="623.058"/>
      <point x="591" y="614"/>
      <point x="591" y="602" type="curve" smooth="yes"/>
      <point x="591" y="218" type="line" smooth="yes"/>
      <point x="591" y="119.071"/>
      <point x="634.45" y="67"/>
      <point x="717" y="67" type="curve" smooth="yes"/>
      <point x="773.423" y="67"/>
      <point x="809.363" y="84.1262"/>
      <point x="866" y="138" type="curve"/>
      <point x="866" y="602" type="line" smooth="yes"/>
      <point x="866" y="613"/>
      <point x="856.019" y="623.289"/>
      <point x="845" y="624" type="curve" smooth="yes"/>
      <point x="783" y="628" type="line"/>
      <point x="783" y="671" type="line"/>
      <point x="1039" y="671" type="line"/>
      <point x="1039" y="628" type="line"/>
      <point x="988" y="624" type="line" smooth="yes"/>
      <point x="975.995" y="623.058"/>
      <point x="967" y="614"/>
      <point x="967" y="602" type="curve" smooth="yes"/>
      <point x="967" y="67" type="line" smooth="yes"/>
      <point x="967" y="57"/>
      <point x="975.996" y="48.9487"/>
      <point x="987" y="48" type="curve" smooth="yes"/>
      <point x="1045" y="43" type="line"/>
      <point x="1045" y="0" type="line"/>
      <point x="866" y="0" type="line"/>
      <point x="866" y="81" type="line"/>
      <point x="793.324" y="8.32379"/>
      <point x="747.405" y="-15"/>
      <point x="677" y="-15" type="curve" smooth="yes"/>
      <point x="608.574" y="-15"/>
      <point x="555.189" y="12.8982"/>
      <point x="522" y="66" type="curve"/>
      <point x="444.359" y="6.27621"/>
      <point x="393.401" y="-15"/>
      <point x="328" y="-15" type="curve" smooth="yes"/>
      <point x="199.784" y="-15"/>
      <point x="112" y="71.9716"/>
      <point x="112" y="199" type="curve" smooth="yes"/>
      <point x="112" y="603" type="line" smooth="yes"/>
      <point x="112" y="615"/>
      <point x="103.015" y="624.225"/>
      <point x="91" y="625" type="curve" smooth="yes"/>
    </contour>
  </outline>
</glyph>
<glyph name="uni019D" format="2">
  <advance width="721"/>
  <unicode hex="019D"/>
  <outline>
    <contour>
      <point x="-94" y="-163" type="curve" smooth="yes"/>
      <point x="-94" y="-134.239"/>
      <point x="-76.9652" y="-109.057"/>
      <point x="-48" y="-95" type="curve"/>
      <point x="35" y="-183" type="line"/>
      <point x="75.0444" y="-183"/>
      <point x="106" y="-123.705"/>
      <point x="106" y="-47" type="curve" smooth="yes"/>
      <point x="106" y="602" type="line" smooth="yes"/>
      <point x="106" y="614"/>
      <point x="96.0126" y="623.186"/>
      <point x="84" y="624" type="curve" smooth="yes"/>
      <point x="25" y="628" type="line"/>
      <point x="25" y="671" type="line"/>
      <point x="223" y="671" type="line"/>
      <point x="223" y="646" type="line"/>
      <point x="556" y="143" type="line"/>
      <point x="556" y="602" type="line" smooth="yes"/>
      <point x="556" y="613"/>
      <point x="546.016" y="623.227"/>
      <point x="535" y="624" type="curve" smooth="yes"/>
      <point x="478" y="628" type="line"/>
      <point x="478" y="671" type="line"/>
      <point x="692" y="671" type="line"/>
      <point x="692" y="628" type="line"/>
      <point x="636" y="624" type="line" smooth="yes"/>
      <point x="623.99" y="623.142"/>
      <point x="615" y="614"/>
      <point x="615" y="602" type="curve" smooth="yes"/>
      <point x="615" y="0" type="line"/>
      <point x="537" y="0" type="line"/>
      <point x="165" y="560" type="line"/>
      <point x="165" y="-24" type="line" smooth="yes"/>
      <point x="165" y="-158.611"/>
      <point x="104.007" y="-230"/>
      <point x="-11" y="-230" type="curve" smooth="yes"/>
      <point x="-61.3123" y="-230"/>
      <point x="-94" y="-203.614"/>
    </contour>
  </outline>
</glyph>
<glyph name="uni019E" format="2">
  <advance width="566"/>
  <unicode hex="019E"/>
  <outline>
    <contour>
      <point x="21" y="1" type="line"/>
      <point x="21" y="40" type="line"/>
      <point x="70" y="43" type="line"/>
      <point x="81" y="44"/>
      <point x="91" y="52"/>
      <point x="91" y="64" type="curve" smooth="yes"/>
      <point x="91" y="411" type="line"/>
      <point x="21" y="411" type="line"/>
      <point x="21" y="444" type="line"/>
      <point x="143" y="482" type="line"/>
      <point x="184" y="482" type="line"/>
      <point x="184" y="432" type="line"/>
      <point x="251.266" y="475.507"/>
      <point x="300.48" y="494"/>
      <point x="349" y="494" type="curve" smooth="yes"/>
      <point x="434.461" y="494"/>
      <point x="483" y="438.216"/>
      <point x="483" y="340" type="curve" smooth="yes"/>
      <point x="483" y="-154" type="line" smooth="yes"/>
      <point x="483" y="-166"/>
      <point x="493" y="-174"/>
      <point x="504" y="-175" type="curve" smooth="yes"/>
      <point x="548" y="-178" type="line"/>
      <point x="548" y="-217" type="line"/>
      <point x="327" y="-217" type="line"/>
      <point x="327" y="-178" type="line"/>
      <point x="369" y="-175" type="line" smooth="yes"/>
      <point x="380" y="-174"/>
      <point x="390" y="-166"/>
      <point x="390" y="-154" type="curve" smooth="yes"/>
      <point x="390" y="324" type="line" smooth="yes"/>
      <point x="390" y="390.349"/>
      <point x="359.665" y="421"/>
      <point x="294" y="421" type="curve" smooth="yes"/>
      <point x="257.155" y="421"/>
      <point x="220.017" y="411.209"/>
      <point x="184" y="392" type="curve"/>
      <point x="184" y="64" type="line" smooth="yes"/>
      <point x="184" y="52"/>
      <point x="194" y="44"/>
      <point x="205" y="43" type="curve" smooth="yes"/>
      <point x="247" y="40" type="line"/>
      <point x="247" y="1" type="line"/>
    </contour>
  </outline>
</glyph>
<glyph name="uni01A2" format="2">
  <advance width="897"/>
  <unicode hex="01A2"/>
  <outline>
    <contour>
      <point x="39" y="335" type="curve" smooth="yes"/>
      <point x="39" y="536.719"/>
      <point x="164.035" y="685"/>
      <point x="366" y="685" type="curve" smooth="yes"/>
      <point x="434" y="685"/>
      <point x="489.113" y="680.364"/>
      <point x="538" y="665" type="curve" smooth="yes"/>
      <point x="573" y="654"/>
      <point x="605" y="644"/>
      <point x="651" y="644" type="curve" smooth="yes"/>
      <point x="703.509" y="644"/>
      <point x="730.259" y="659.366"/>
      <point x="758" y="686" type="curve"/>
      <point x="804" y="686" type="line"/>
      <point x="804" y="-150" type="line" smooth="yes"/>
      <point x="804" y="-162"/>
      <point x="812.986" y="-171.212"/>
      <point x="825" y="-172" type="curve" smooth="yes"/>
      <point x="886" y="-176" type="line"/>
      <point x="886" y="-219" type="line"/>
      <point x="622" y="-219" type="line"/>
      <point x="622" y="-176" type="line"/>
      <point x="682" y="-172" type="line" smooth="yes"/>
      <point x="694.013" y="-171.199"/>
      <point x="703" y="-162"/>
      <point x="703" y="-150" type="curve" smooth="yes"/>
      <point x="703" y="569" type="line"/>
      <point x="685.594" y="565.399"/>
      <point x="661.344" y="563.356"/>
      <point x="636" y="563.356" type="curve" smooth="yes"/>
      <point x="622.867" y="563.356"/>
      <point x="609.925" y="563.916"/>
      <point x="598" y="565" type="curve"/>
      <point x="598" y="160" type="line" smooth="yes"/>
      <point x="598" y="41.8853"/>
      <point x="497.52" y="-17"/>
      <point x="378" y="-17" type="curve" smooth="yes"/>
      <point x="170.969" y="-17"/>
      <point x="39" y="130.119"/>
    </contour>
    <contour>
      <point x="154" y="335" type="curve" smooth="yes"/>
      <point x="154" y="172.638"/>
      <point x="222.938" y="40"/>
      <point x="380" y="40" type="curve" smooth="yes"/>
      <point x="468.752" y="40"/>
      <point x="498" y="87.3043"/>
      <point x="498" y="176" type="curve" smooth="yes"/>
      <point x="498" y="593" type="line"/>
      <point x="458" y="615"/>
      <point x="427" y="628"/>
      <point x="367" y="628" type="curve" smooth="yes"/>
      <point x="213.53" y="628"/>
      <point x="154" y="489.499"/>
    </contour>
  </outline>
</glyph>
<glyph name="uni01A4" format="2">
  <advance width="650"/>
  <unicode hex="01A4"/>
  <outline>
    <contour>
      <point x="-16" y="563" type="curve" smooth="yes"/>
      <point x="-16" y="647"/>
      <point x="56" y="671"/>
      <point x="147" y="671" type="curve" smooth="yes"/>
      <point x="336" y="671" type="line" smooth="yes"/>
      <point x="529.856" y="671"/>
      <point x="612" y="610.88"/>
      <point x="612" y="469" type="curve" smooth="yes"/>
      <point x="612" y="334.155"/>
      <point x="512.443" y="251"/>
      <point x="351" y="251" type="curve" smooth="yes"/>
      <point x="335.151" y="251"/>
      <point x="287.947" y="253.659"/>
      <point x="280" y="255" type="curve"/>
      <point x="280" y="69" type="line" smooth="yes"/>
      <point x="280" y="58"/>
      <point x="289.98" y="47.6679"/>
      <point x="301" y="47" type="curve" smooth="yes"/>
      <point x="367" y="43" type="line"/>
      <point x="367" y="0" type="line"/>
      <point x="104" y="0" type="line"/>
      <point x="104" y="43" type="line"/>
      <point x="156" y="47" type="line" smooth="yes"/>
      <point x="167.012" y="47.8471"/>
      <point x="179" y="59"/>
      <point x="179" y="69" type="curve" smooth="yes"/>
      <point x="179" y="603" type="line" smooth="yes"/>
      <point x="179" y="616"/>
      <point x="171" y="624"/>
      <point x="158" y="624" type="curve" smooth="yes"/>
      <point x="120" y="624" type="line" smooth="yes"/>
      <point x="88" y="624"/>
      <point x="73" y="618"/>
      <point x="61" y="600" type="curve"/>
      <point x="103" y="529" type="line"/>
      <point x="87" y="511"/>
      <point x="68" y="499"/>
      <point x="39" y="499" type="curve" smooth="yes"/>
      <point x="7" y="499"/>
      <point x="-16" y="531"/>
    </contour>
    <contour>
      <point x="280" y="306" type="line"/>
      <point x="298.229" y="302.783"/>
      <point x="318.2" y="301"/>
      <point x="336" y="301" type="curve" smooth="yes"/>
      <point x="448.662" y="301"/>
      <point x="508" y="358.613"/>
      <point x="508" y="468" type="curve" smooth="yes"/>
      <point x="508" y="571.723"/>
      <point x="450.214" y="622"/>
      <point x="331" y="622" type="curve" smooth="yes"/>
      <point x="280" y="622" type="line"/>
    </contour>
  </outline>
</glyph>
<glyph name="uni01A8" format="2">
  <advance width="399"/>
  <unicode hex="01A8"/>
  <outline>
    <contour>
      <point x="36" y="125" type="curve" smooth="yes"/>
      <point x="36" y="169.181"/>
      <point x="53.7584" y="207.4"/>
      <point x="82" y="224" type="curve" smooth="yes"/>
      <point x="213" y="301" type="line" smooth="yes"/>
      <point x="254.829" y="325.586"/>
      <point x="272" y="348.87"/>
      <point x="272" y="381" type="curve" smooth="yes"/>
      <point x="272" y="422.5"/>
      <point x="243.077" y="446"/>
      <point x="192" y="446" type="curve" smooth="yes"/>
      <point x="168.283" y="446"/>
      <point x="140.585" y="437.152"/>
      <point x="120" y="423" type="curve"/>
      <point x="109" y="353" type="line"/>
      <point x="57" y="353" type="line"/>
      <point x="61" y="471" type="line"/>
      <point x="92.4397" y="485.094"/>
      <point x="140.457" y="494"/>
      <point x="185" y="494" type="curve" smooth="yes"/>
      <point x="299.082" y="494"/>
      <point x="362" y="448.145"/>
      <point x="362" y="365" type="curve" smooth="yes"/>
      <point x="362" y="314.612"/>
      <point x="341.866" y="279.92"/>
      <point x="297" y="253" type="curve" smooth="yes"/>
      <point x="197" y="193" type="line" smooth="yes"/>
      <point x="143.076" y="160.646"/>
      <point x="123" y="137.856"/>
      <point x="123" y="109" type="curve" smooth="yes"/>
      <point x="123" y="63.5977"/>
      <point x="158.026" y="33"/>
      <point x="210" y="33" type="curve" smooth="yes"/>
      <point x="240.5" y="33"/>
      <point x="273.313" y="43.2083"/>
      <point x="300" y="61" type="curve"/>
      <point x="315" y="146" type="line"/>
      <point x="366" y="146" type="line"/>
      <point x="361" y="13" type="line"/>
      <point x="325.326" y="-2.85498"/>
      <point x="274.48" y="-12"/>
      <point x="222" y="-12" type="curve" smooth="yes"/>
      <point x="98.9015" y="-12"/>
      <point x="36" y="34.3306"/>
    </contour>
  </outline>
</glyph>
<glyph name="uni01AB" format="2">
  <advance width="339"/>
  <unicode hex="01AB"/>
  <outline>
    <contour>
      <point x="27" y="432" type="line"/>
      <point x="27" y="465" type="line"/>
      <point x="95" y="497" type="line"/>
      <point x="140" y="603" type="line"/>
      <point x="184" y="603" type="line"/>
      <point x="184" y="482" type="line"/>
      <point x="325" y="482" type="line"/>
      <point x="325" y="432" type="line"/>
      <point x="184" y="432" type="line"/>
      <point x="184" y="153" type="line" smooth="yes"/>
      <point x="184" y="88"/>
      <point x="201" y="44"/>
      <point x="264" y="44" type="curve" smooth="yes"/>
      <point x="292.406" y="44"/>
      <point x="315.739" y="51.4118"/>
      <point x="334" y="62" type="curve"/>
      <point x="334" y="-113" type="line" smooth="yes"/>
      <point x="334" y="-194"/>
      <point x="290" y="-228"/>
      <point x="207" y="-228" type="curve" smooth="yes"/>
      <point x="163.238" y="-228"/>
      <point x="104" y="-208.757"/>
      <point x="104" y="-167" type="curve" smooth="yes"/>
      <point x="104" y="-139.977"/>
      <point x="117.869" y="-120.947"/>
      <point x="147" y="-108" type="curve"/>
      <point x="228" y="-178" type="line"/>
      <point x="266" y="-178"/>
      <point x="283" y="-159"/>
      <point x="283" y="-119" type="curve" smooth="yes"/>
      <point x="283" y="2" type="line"/>
      <point x="261" y="-8"/>
      <point x="231" y="-12"/>
      <point x="198" y="-12" type="curve" smooth="yes"/>
      <point x="121" y="-12"/>
      <point x="91" y="22"/>
      <point x="91" y="100" type="curve" smooth="yes"/>
      <point x="91" y="432" type="line"/>
    </contour>
  </outline>
</glyph>
<glyph name="uni01AC" format="2">
  <advance width="599"/>
  <unicode hex="01AC"/>
  <outline>
    <contour>
      <point x="7" y="534" type="curve" smooth="yes"/>
      <point x="7" y="614.355"/>
      <point x="57.0116" y="671"/>
      <point x="137" y="671" type="curve" smooth="yes"/>
      <point x="583" y="671" type="line"/>
      <point x="583" y="511" type="line"/>
      <point x="524" y="511" type="line"/>
      <point x="510" y="605" type="line"/>
      <point x="509" y="615"/>
      <point x="503" y="622"/>
      <point x="493" y="622" type="curve" smooth="yes"/>
      <point x="350" y="622" type="line"/>
      <point x="350" y="69" type="line" smooth="yes"/>
      <point x="350" y="57"/>
      <point x="359" y="48"/>
      <point x="371" y="47" type="curve" smooth="yes"/>
      <point x="435" y="43" type="line"/>
      <point x="435" y="0" type="line"/>
      <point x="164" y="0" type="line"/>
      <point x="164" y="43" type="line"/>
      <point x="228" y="47" type="line" smooth="yes"/>
      <point x="240" y="48"/>
      <point x="249" y="57"/>
      <point x="249" y="69" type="curve" smooth="yes"/>
      <point x="249" y="622" type="line"/>
      <point x="135" y="622" type="line"/>
      <point x="95" y="619"/>
      <point x="79" y="592"/>
      <point x="73" y="551" type="curve"/>
      <point x="141" y="494" type="line"/>
      <point x="126.847" y="475.515"/>
      <point x="104.513" y="451"/>
      <point x="73" y="451" type="curve" smooth="yes"/>
      <point x="30" y="451"/>
      <point x="7" y="489"/>
    </contour>
  </outline>
</glyph>
<glyph name="uni01AD" format="2">
  <advance width="339"/>
  <unicode hex="01AD"/>
  <outline>
    <contour>
      <point x="27" y="432" type="line"/>
      <point x="27" y="465" type="line"/>
      <point x="91" y="497" type="line"/>
      <point x="91" y="637.583"/>
      <point x="136.508" y="738"/>
      <point x="276" y="738" type="curve" smooth="yes"/>
      <point x="320.618" y="738"/>
      <point x="363" y="719.56"/>
      <point x="363" y="677" type="curve" smooth="yes"/>
      <point x="363" y="645"/>
      <point x="341" y="632"/>
      <point x="317" y="624" type="curve"/>
      <point x="225" y="690" type="line"/>
      <point x="191" y="671"/>
      <point x="183" y="616"/>
      <point x="183" y="563" type="curve" smooth="yes"/>
      <point x="183" y="482" type="line"/>
      <point x="324" y="482" type="line"/>
      <point x="324" y="432" type="line"/>
      <point x="183" y="432" type="line"/>
      <point x="183" y="153" type="line" smooth="yes"/>
      <point x="183" y="88"/>
      <point x="200" y="44"/>
      <point x="263" y="44" type="curve" smooth="yes"/>
      <point x="291" y="44"/>
      <point x="314" y="51"/>
      <point x="332" y="61" type="curve"/>
      <point x="332" y="21" type="line"/>
      <point x="296" y="4"/>
      <point x="252" y="-12"/>
      <point x="198" y="-12" type="curve" smooth="yes"/>
      <point x="121" y="-12"/>
      <point x="91" y="22"/>
      <point x="91" y="100" type="curve" smooth="yes"/>
      <point x="91" y="432" type="line"/>
    </contour>
  </outline>
</glyph>
<glyph name="Uhorn" format="2">
  <advance width="826"/>
  <unicode hex="01AF"/>
  <outline>
    <contour>
      <point x="31" y="628" type="line"/>
      <point x="31" y="671" type="line"/>
      <point x="285" y="671" type="line"/>
      <point x="285" y="628" type="line"/>
      <point x="228" y="624" type="line" smooth="yes"/>
      <point x="216" y="623"/>
      <point x="207" y="614"/>
      <point x="207" y="602" type="curve" smooth="yes"/>
      <point x="207" y="249" type="line" smooth="yes"/>
      <point x="207" y="122"/>
      <point x="248" y="52"/>
      <point x="376" y="52" type="curve" smooth="yes"/>
      <point x="502" y="52"/>
      <point x="547" y="124"/>
      <point x="547" y="249" type="curve" smooth="yes"/>
      <point x="547" y="602" type="line" smooth="yes"/>
      <point x="547" y="614"/>
      <point x="537" y="623"/>
      <point x="525" y="624" type="curve" smooth="yes"/>
      <point x="478" y="628" type="line"/>
      <point x="478" y="671" type="line"/>
      <point x="675" y="671" type="line"/>
      <point x="675" y="628" type="line"/>
      <point x="627" y="624" type="line" smooth="yes"/>
      <point x="615" y="623"/>
      <point x="606" y="614"/>
      <point x="606" y="602" type="curve" smooth="yes"/>
      <point x="606" y="525" type="line"/>
      <point x="689" y="560"/>
      <point x="737" y="616"/>
      <point x="737" y="733" type="curve"/>
      <point x="644" y="733" type="line"/>
      <point x="631" y="750"/>
      <point x="617" y="771"/>
      <point x="617" y="801" type="curve" smooth="yes"/>
      <point x="617" y="847"/>
      <point x="652" y="874"/>
      <point x="698" y="874" type="curve" smooth="yes"/>
      <point x="770" y="874"/>
      <point x="812" y="812"/>
      <point x="812" y="739" type="curve" smooth="yes"/>
      <point x="812" y="597.429"/>
      <point x="715.148" y="515.564"/>
      <point x="606" y="481" type="curve"/>
      <point x="606" y="223" type="line" smooth="yes"/>
      <point x="606" y="57"/>
      <point x="515" y="-15"/>
      <point x="349" y="-15" type="curve" smooth="yes"/>
      <point x="187" y="-15"/>
      <point x="105" y="63"/>
      <point x="105" y="223" type="curve" smooth="yes"/>
      <point x="105" y="602" type="line" smooth="yes"/>
      <point x="105" y="614"/>
      <point x="96" y="623"/>
      <point x="84" y="624" type="curve" smooth="yes"/>
    </contour>
  </outline>
</glyph>
<glyph name="uni01B4" format="2">
  <advance width="648"/>
  <unicode hex="01B4"/>
  <outline>
    <contour>
      <point x="11" y="444" type="line"/>
      <point x="11" y="482" type="line"/>
      <point x="232" y="482" type="line"/>
      <point x="232" y="444" type="line"/>
      <point x="184" y="441" type="line" smooth="yes"/>
      <point x="176.568" y="440.535"/>
      <point x="167.888" y="433.896"/>
      <point x="167.888" y="425" type="curve"/>
      <point x="167.888" y="423.091"/>
      <point x="168.186" y="421.078"/>
      <point x="169" y="419" type="curve" smooth="yes"/>
      <point x="283" y="128" type="line"/>
      <point x="393" y="436" type="line" smooth="yes"/>
      <point x="418" y="506"/>
      <point x="473.582" y="628"/>
      <point x="565" y="628" type="curve" smooth="yes"/>
      <point x="604.347" y="628"/>
      <point x="643" y="602.441"/>
      <point x="643" y="565" type="curve" smooth="yes"/>
      <point x="643" y="536.892"/>
      <point x="628.563" y="516.538"/>
      <point x="610" y="502" type="curve"/>
      <point x="521" y="550" type="line"/>
      <point x="478.546" y="527.666"/>
      <point x="453.991" y="462.025"/>
      <point x="433" y="404" type="curve" smooth="yes"/>
      <point x="276" y="-30" type="line" smooth="yes"/>
      <point x="247.695" y="-108.244"/>
      <point x="200.991" y="-229"/>
      <point x="103" y="-229" type="curve" smooth="yes"/>
      <point x="64.0581" y="-229"/>
      <point x="30" y="-209.801"/>
      <point x="30" y="-172" type="curve" smooth="yes"/>
      <point x="30" y="-143"/>
      <point x="44" y="-127"/>
      <point x="62" y="-112" type="curve"/>
      <point x="156" y="-155" type="line"/>
      <point x="193" y="-118"/>
      <point x="217" y="-52"/>
      <point x="236" y="1" type="curve"/>
      <point x="66" y="438" type="line"/>
    </contour>
  </outline>
</glyph>
<glyph name="uni01B8" format="2">
  <advance width="611"/>
  <unicode hex="01B8"/>
  <outline>
    <contour>
      <point x="33" y="43" type="curve" smooth="yes"/>
      <point x="33" y="186.02"/>
      <point x="151.276" y="299"/>
      <point x="301" y="299" type="curve"/>
      <point x="64" y="598" type="line"/>
      <point x="64" y="670" type="line"/>
      <point x="540" y="670" type="line"/>
      <point x="540" y="450" type="line"/>
      <point x="483" y="450" type="line"/>
      <point x="472" y="548" type="line" smooth="yes"/>
      <point x="470.424" y="562.038"/>
      <point x="459.382" y="575"/>
      <point x="449" y="575" type="curve" smooth="yes"/>
      <point x="165" y="575" type="line"/>
      <point x="410" y="270" type="line"/>
      <point x="379" y="235" type="line"/>
      <point x="369.6" y="244.4"/>
      <point x="355.143" y="249"/>
      <point x="335" y="249" type="curve" smooth="yes"/>
      <point x="225.032" y="249"/>
      <point x="147" y="166.818"/>
      <point x="147" y="51" type="curve" smooth="yes"/>
      <point x="147" y="-69.7984"/>
      <point x="237.301" y="-173"/>
      <point x="343" y="-173" type="curve" smooth="yes"/>
      <point x="376.1" y="-173"/>
      <point x="404.222" y="-162.956"/>
      <point x="441" y="-138" type="curve"/>
      <point x="477" y="-20" type="line"/>
      <point x="485.364" y="-14.7727"/>
      <point x="503.5" y="-10"/>
      <point x="515" y="-10" type="curve" smooth="yes"/>
      <point x="556.136" y="-10"/>
      <point x="584" y="-40.6906"/>
      <point x="584" y="-86" type="curve" smooth="yes"/>
      <point x="584" y="-168.854"/>
      <point x="482.939" y="-230"/>
      <point x="346" y="-230" type="curve" smooth="yes"/>
      <point x="167.865" y="-230"/>
      <point x="33" y="-112.37"/>
    </contour>
  </outline>
</glyph>
<glyph name="uni01BA" format="2">
  <advance width="484"/>
  <unicode hex="01BA"/>
  <outline>
    <contour>
      <point x="35" y="300" type="line"/>
      <point x="35" y="483" type="line"/>
      <point x="437" y="483" type="line"/>
      <point x="437" y="416" type="line"/>
      <point x="284" y="251" type="line"/>
      <point x="402.464" y="251"/>
      <point x="451" y="218.74"/>
      <point x="451" y="140" type="curve" smooth="yes"/>
      <point x="451" y="76.6149"/>
      <point x="405.16" y="33.1548"/>
      <point x="298.24" y="-4.82927" type="curve" smooth="yes"/>
      <point x="205.348" y="-37.8296"/>
      <point x="162" y="-74.4739"/>
      <point x="162" y="-120" type="curve" smooth="yes"/>
      <point x="162" y="-153.293"/>
      <point x="199.252" y="-183"/>
      <point x="241" y="-183" type="curve" smooth="yes"/>
      <point x="268.86" y="-183"/>
      <point x="294.73" y="-175.48"/>
      <point x="327" y="-158" type="curve"/>
      <point x="358" y="-65" type="line"/>
      <point x="364.052" y="-60.9653"/>
      <point x="380.904" y="-57"/>
      <point x="392" y="-57" type="curve" smooth="yes"/>
      <point x="427.297" y="-57"/>
      <point x="452" y="-81.2917"/>
      <point x="452" y="-116" type="curve" smooth="yes"/>
      <point x="452" y="-180.679"/>
      <point x="363.483" y="-229"/>
      <point x="245" y="-229" type="curve" smooth="yes"/>
      <point x="142.869" y="-229"/>
      <point x="83" y="-182.065"/>
      <point x="83" y="-102" type="curve" smooth="yes"/>
      <point x="83" y="-43.2394"/>
      <point x="136.97" y="7.42383"/>
      <point x="235.55" y="41.2024" type="curve" smooth="yes"/>
      <point x="319.478" y="69.9605"/>
      <point x="363" y="104.381"/>
      <point x="363" y="142" type="curve" smooth="yes"/>
      <point x="363" y="170.554"/>
      <point x="323.682" y="186"/>
      <point x="251" y="186" type="curve" smooth="yes"/>
      <point x="224.75" y="186"/>
      <point x="197.73" y="180.77"/>
      <point x="158" y="168" type="curve"/>
      <point x="150" y="185" type="line"/>
      <point x="349" y="397" type="line"/>
      <point x="116" y="397" type="line" smooth="yes"/>
      <point x="106.929" y="397"/>
      <point x="98.27" y="387.43"/>
      <point x="97" y="376" type="curve" smooth="yes"/>
      <point x="87" y="300" type="line"/>
    </contour>
  </outline>
</glyph>
<glyph name="uni01BE" format="2">
  <advance width="465"/>
  <unicode hex="01BE"/>
  <outline>
    <contour>
      <point x="50" y="412" type="line"/>
      <point x="50" y="463" type="line"/>
      <point x="181" y="463" type="line"/>
      <point x="181" y="608" type="line" smooth="yes"/>
      <point x="181" y="616.987"/>
      <point x="170.738" y="625.849"/>
      <point x="159" y="627" type="curve" smooth="yes"/>
      <point x="108" y="632" type="line"/>
      <point x="108" y="671" type="line"/>
      <point x="348" y="671" type="line"/>
      <point x="348" y="632" type="line"/>
      <point x="292" y="627" type="line" smooth="yes"/>
      <point x="278.574" y="625.801"/>
      <point x="270" y="618.007"/>
      <point x="270" y="607" type="curve" smooth="yes"/>
      <point x="270" y="462" type="line"/>
      <point x="398" y="462" type="line"/>
      <point x="398" y="411" type="line"/>
      <point x="270" y="411" type="line"/>
      <point x="270" y="366" type="line"/>
      <point x="371.181" y="323.075"/>
      <point x="424" y="253.107"/>
      <point x="424" y="162" type="curve" smooth="yes"/>
      <point x="424" y="54.1361"/>
      <point x="342.437" y="-16"/>
      <point x="217" y="-16" type="curve" smooth="yes"/>
      <point x="115.42" y="-16"/>
      <point x="38" y="30.7115"/>
      <point x="38" y="92" type="curve" smooth="yes"/>
      <point x="38" y="128.321"/>
      <point x="57.2281" y="149"/>
      <point x="91" y="149" type="curve" smooth="yes"/>
      <point x="104.767" y="149"/>
      <point x="119.115" y="144.108"/>
      <point x="135" y="134" type="curve"/>
      <point x="162" y="47" type="line"/>
      <point x="179.874" y="34.7114"/>
      <point x="198.278" y="29"/>
      <point x="220" y="29" type="curve" smooth="yes"/>
      <point x="282.459" y="29"/>
      <point x="326" y="87.7393"/>
      <point x="326" y="172" type="curve" smooth="yes"/>
      <point x="326" y="255.147"/>
      <point x="267.753" y="329.864"/>
      <point x="181" y="358" type="curve"/>
      <point x="181" y="412" type="line"/>
    </contour>
  </outline>
</glyph>
<glyph name="uni01C0" format="2">
  <advance width="221"/>
  <unicode hex="01C0"/>
  <outline>
    <contour>
      <point x="85" y="-215" type="line"/>
      <point x="85" y="736" type="line"/>
      <point x="136" y="736" type="line"/>
      <point x="136" y="-215" type="line"/>
    </contour>
  </outline>
</glyph>
<glyph name="uni01CC" format="2">
  <advance width="857"/>
  <unicode hex="01CC"/>
  <outline>
    <contour>
      <point x="21" y="411" type="line"/>
      <point x="21" y="444" type="line"/>
      <point x="143" y="482" type="line"/>
      <point x="184" y="482" type="line"/>
      <point x="184" y="432" type="line"/>
      <point x="255.342" y="476.532"/>
      <point x="301.829" y="494"/>
      <point x="349" y="494" type="curve" smooth="yes"/>
      <point x="434.461" y="494"/>
      <point x="483" y="438.216"/>
      <point x="483" y="340" type="curve" smooth="yes"/>
      <point x="483" y="63" type="line" smooth="yes"/>
      <point x="483" y="51"/>
      <point x="493" y="43"/>
      <point x="504" y="42" type="curve" smooth="yes"/>
      <point x="548" y="39" type="line"/>
      <point x="548" y="0" type="line"/>
      <point x="327" y="0" type="line"/>
      <point x="327" y="39" type="line"/>
      <point x="369" y="42" type="line" smooth="yes"/>
      <point x="380" y="43"/>
      <point x="390" y="51"/>
      <point x="390" y="63" type="curve" smooth="yes"/>
      <point x="390" y="324" type="line" smooth="yes"/>
      <point x="390" y="390.349"/>
      <point x="359.665" y="421"/>
      <point x="294" y="421" type="curve" smooth="yes"/>
      <point x="257.155" y="421"/>
      <point x="220.017" y="411.209"/>
      <point x="184" y="392" type="curve"/>
      <point x="184" y="63" type="line" smooth="yes"/>
      <point x="184" y="51"/>
      <point x="194" y="43"/>
      <point x="205" y="42" type="curve" smooth="yes"/>
      <point x="247" y="39" type="line"/>
      <point x="247" y="0" type="line"/>
      <point x="21" y="0" type="line"/>
      <point x="21" y="39" type="line"/>
      <point x="70" y="42" type="line"/>
      <point x="81" y="43"/>
      <point x="91" y="51"/>
      <point x="91" y="63" type="curve" smooth="yes"/>
      <point x="91" y="411" type="line"/>
    </contour>
    <contour>
      <point x="487" y="-174" type="curve" smooth="yes"/>
      <point x="487" y="-141"/>
      <point x="507" y="-126"/>
      <point x="530" y="-116" type="curve"/>
      <point x="627" y="-183" type="line"/>
      <point x="669" y="-159"/>
      <point x="675" y="-87"/>
      <point x="675" y="-21" type="curve" smooth="yes"/>
      <point x="675" y="423" type="line"/>
      <point x="604" y="423" type="line"/>
      <point x="604" y="456" type="line"/>
      <point x="727" y="494" type="line"/>
      <point x="768" y="494" type="line"/>
      <point x="768" y="64" type="line" smooth="yes"/>
      <point x="768" y="-97.3662"/>
      <point x="718.257" y="-229"/>
      <point x="563" y="-229" type="curve" smooth="yes"/>
      <point x="522" y="-229"/>
      <point x="487" y="-214"/>
    </contour>
    <contour>
      <point x="656" y="647" type="curve" smooth="yes"/>
      <point x="656" y="681.224"/>
      <point x="683.776" y="709"/>
      <point x="718" y="709" type="curve" smooth="yes"/>
      <point x="752.224" y="709"/>
      <point x="780" y="681.224"/>
      <point x="780" y="647" type="curve" smooth="yes"/>
      <point x="780" y="612.776"/>
      <point x="752.224" y="585"/>
      <point x="718" y="585" type="curve" smooth="yes"/>
      <point x="683.776" y="585"/>
      <point x="656" y="612.776"/>
    </contour>
  </outline>
</glyph>
<glyph name="uni01D3" format="2">
  <advance width="711"/>
  <unicode hex="01D3"/>
  <outline>
    <contour>
      <point x="31" y="628" type="line"/>
      <point x="31" y="671" type="line"/>
      <point x="285" y="671" type="line"/>
      <point x="285" y="628" type="line"/>
      <point x="228" y="624" type="line" smooth="yes"/>
      <point x="216" y="623"/>
      <point x="207" y="614"/>
      <point x="207" y="602" type="curve" smooth="yes"/>
      <point x="207" y="249" type="line" smooth="yes"/>
      <point x="207" y="122"/>
      <point x="248" y="52"/>
      <point x="376" y="52" type="curve" smooth="yes"/>
      <point x="502" y="52"/>
      <point x="547" y="124"/>
      <point x="547" y="249" type="curve" smooth="yes"/>
      <point x="547" y="602" type="line" smooth="yes"/>
      <point x="547" y="614"/>
      <point x="537" y="623"/>
      <point x="525" y="624" type="curve" smooth="yes"/>
      <point x="468" y="628" type="line"/>
      <point x="468" y="671" type="line"/>
      <point x="685" y="671" type="line"/>
      <point x="685" y="628" type="line"/>
      <point x="627" y="624" type="line" smooth="yes"/>
      <point x="615" y="623"/>
      <point x="606" y="614"/>
      <point x="606" y="602" type="curve" smooth="yes"/>
      <point x="606" y="223" type="line" smooth="yes"/>
      <point x="606" y="57"/>
      <point x="515" y="-15"/>
      <point x="349" y="-15" type="curve" smooth="yes"/>
      <point x="187" y="-15"/>
      <point x="105" y="63"/>
      <point x="105" y="223" type="curve" smooth="yes"/>
      <point x="105" y="602" type="line" smooth="yes"/>
      <point x="105" y="614"/>
      <point x="96" y="623"/>
      <point x="84" y="624" type="curve" smooth="yes"/>
    </contour>
    <contour>
      <point x="194" y="915" type="line"/>
      <point x="255" y="915" type="line"/>
      <point x="359" y="816" type="line"/>
      <point x="462" y="915" type="line"/>
      <point x="522" y="915" type="line"/>
      <point x="396" y="746" type="line"/>
      <point x="320" y="746" type="line"/>
    </contour>
  </outline>
</glyph>
<glyph name="uni01D6" format="2">
  <advance width="568"/>
  <unicode hex="01D6"/>
  <outline>
    <contour>
      <point x="126" y="610" type="curve" smooth="yes"/>
      <point x="126" y="641"/>
      <point x="150" y="666"/>
      <point x="181" y="666" type="curve" smooth="yes"/>
      <point x="212" y="666"/>
      <point x="235" y="641"/>
      <point x="235" y="611" type="curve" smooth="yes"/>
      <point x="235" y="580"/>
      <point x="212" y="555"/>
      <point x="181" y="555" type="curve" smooth="yes"/>
      <point x="150" y="555"/>
      <point x="126" y="579"/>
    </contour>
    <contour>
      <point x="333" y="611" type="curve" smooth="yes"/>
      <point x="333" y="641"/>
      <point x="359" y="666"/>
      <point x="389" y="666" type="curve" smooth="yes"/>
      <point x="419" y="666"/>
      <point x="442" y="642"/>
      <point x="442" y="611" type="curve" smooth="yes"/>
      <point x="442" y="580"/>
      <point x="420" y="555"/>
      <point x="389" y="555" type="curve" smooth="yes"/>
      <point x="357" y="555"/>
      <point x="333" y="579"/>
    </contour>
    <contour>
      <point x="20" y="409" type="line"/>
      <point x="20" y="443" type="line"/>
      <point x="143" y="482" type="line"/>
      <point x="183" y="482" type="line"/>
      <point x="183" y="169" type="line" smooth="yes"/>
      <point x="183" y="98"/>
      <point x="209" y="56"/>
      <point x="280" y="56" type="curve" smooth="yes"/>
      <point x="324" y="56"/>
      <point x="358" y="69"/>
      <point x="389" y="84" type="curve"/>
      <point x="389" y="409" type="line"/>
      <point x="319" y="409" type="line"/>
      <point x="319" y="443" type="line"/>
      <point x="441" y="482" type="line"/>
      <point x="482" y="482" type="line"/>
      <point x="482" y="64" type="line" smooth="yes"/>
      <point x="482" y="52"/>
      <point x="493" y="44"/>
      <point x="504" y="43" type="curve" smooth="yes"/>
      <point x="548" y="39" type="line"/>
      <point x="548" y="0" type="line"/>
      <point x="389" y="0" type="line"/>
      <point x="389" y="56" type="line"/>
      <point x="351" y="27"/>
      <point x="294" y="-12"/>
      <point x="228" y="-12" type="curve" smooth="yes"/>
      <point x="130" y="-12"/>
      <point x="90" y="50"/>
      <point x="90" y="150" type="curve" smooth="yes"/>
      <point x="90" y="409" type="line"/>
    </contour>
    <contour>
      <point x="117.5" y="726" type="line"/>
      <point x="117.5" y="789" type="line"/>
      <point x="452.5" y="789" type="line"/>
      <point x="452.5" y="726" type="line"/>
    </contour>
  </outline>
</glyph>
<glyph name="uni01E3" format="2">
  <advance width="721"/>
  <unicode hex="01E3"/>
  <outline>
    <contour>
      <point x="36" y="116" type="curve" smooth="yes"/>
      <point x="36" y="213.615"/>
      <point x="107.547" y="240.723"/>
      <point x="187" y="265" type="curve"/>
      <point x="317" y="301" type="line"/>
      <point x="317" y="342" type="line" smooth="yes"/>
      <point x="317" y="408"/>
      <point x="296" y="443"/>
      <point x="230" y="443" type="curve" smooth="yes"/>
      <point x="204" y="443"/>
      <point x="182" y="437"/>
      <point x="167" y="430" type="curve"/>
      <point x="167" y="343" type="line"/>
      <point x="97" y="343" type="line" smooth="yes"/>
      <point x="72" y="343"/>
      <point x="59" y="348"/>
      <point x="59" y="372" type="curve" smooth="yes"/>
      <point x="59" y="460.923"/>
      <point x="165.48" y="490"/>
      <point x="255" y="490" type="curve" smooth="yes"/>
      <point x="328.118" y="490"/>
      <point x="357.297" y="470.379"/>
      <point x="388" y="432" type="curve"/>
      <point x="416" y="465"/>
      <point x="459" y="491"/>
      <point x="522" y="491" type="curve" smooth="yes"/>
      <point x="638" y="491"/>
      <point x="688" y="403"/>
      <point x="688" y="288" type="curve" smooth="yes"/>
      <point x="688" y="275.221"/>
      <point x="687.339" y="265.697"/>
      <point x="686" y="254" type="curve"/>
      <point x="409" y="254" type="line"/>
      <point x="409" y="121" type="line"/>
      <point x="443" y="87"/>
      <point x="485" y="53"/>
      <point x="554" y="53" type="curve" smooth="yes"/>
      <point x="617.47" y="53"/>
      <point x="653.739" y="79.5088"/>
      <point x="689" y="107" type="curve"/>
      <point x="689" y="47" type="line"/>
      <point x="647" y="16"/>
      <point x="597" y="-15"/>
      <point x="523" y="-15" type="curve" smooth="yes"/>
      <point x="440.227" y="-15"/>
      <point x="380.787" y="18.1523"/>
      <point x="341" y="61" type="curve"/>
      <point x="296.515" y="25.6406"/>
      <point x="241.924" y="-15"/>
      <point x="165" y="-15" type="curve" smooth="yes"/>
      <point x="84" y="-15"/>
      <point x="36" y="36"/>
    </contour>
    <contour>
      <point x="131" y="133" type="curve" smooth="yes"/>
      <point x="131" y="81.7656"/>
      <point x="155.897" y="46"/>
      <point x="207" y="46" type="curve" smooth="yes"/>
      <point x="252.033" y="46"/>
      <point x="289.057" y="72.793"/>
      <point x="316" y="93" type="curve"/>
      <point x="316" y="266" type="line"/>
      <point x="256" y="249"/>
      <point x="206.518" y="231.283"/>
      <point x="168" y="207" type="curve" smooth="yes"/>
      <point x="143.121" y="191.315"/>
      <point x="131" y="169"/>
    </contour>
    <contour>
      <point x="204.5" y="555" type="line"/>
      <point x="204.5" y="618" type="line"/>
      <point x="539.5" y="618" type="line"/>
      <point x="539.5" y="555" type="line"/>
    </contour>
    <contour>
      <point x="408" y="299" type="curve"/>
      <point x="588" y="299" type="line"/>
      <point x="588" y="329" type="line" smooth="yes"/>
      <point x="588" y="390.556"/>
      <point x="564.113" y="447"/>
      <point x="503" y="447" type="curve" smooth="yes"/>
      <point x="428" y="447"/>
      <point x="408" y="373"/>
    </contour>
  </outline>
</glyph>
<glyph name="uni01F7" format="2">
  <advance width="583"/>
  <unicode hex="01F7"/>
  <outline>
    <contour>
      <point x="24" y="600" type="line"/>
      <point x="24" y="633" type="line"/>
      <point x="152" y="672" type="line"/>
      <point x="201" y="672" type="line"/>
      <point x="201" y="591" type="line"/>
      <point x="243.755" y="638.641"/>
      <point x="306.631" y="688"/>
      <point x="395" y="688" type="curve" smooth="yes"/>
      <point x="498.874" y="688"/>
      <point x="550" y="610.579"/>
      <point x="550" y="508" type="curve" smooth="yes"/>
      <point x="550" y="283.166"/>
      <point x="339.916" y="126.089"/>
      <point x="202" y="26" type="curve"/>
      <point x="202" y="-153" type="line" smooth="yes"/>
      <point x="202" y="-163.678"/>
      <point x="211.776" y="-174.432"/>
      <point x="222" y="-175" type="curve" smooth="yes"/>
      <point x="276" y="-178" type="line"/>
      <point x="276" y="-217" type="line"/>
      <point x="25" y="-217" type="line"/>
      <point x="25" y="-178" type="line"/>
      <point x="78" y="-175" type="line" smooth="yes"/>
      <point x="87.4971" y="-174.462"/>
      <point x="100" y="-162.528"/>
      <point x="100" y="-154" type="curve" smooth="yes"/>
      <point x="100" y="600" type="line"/>
    </contour>
    <contour>
      <point x="202" y="509" type="curve"/>
      <point x="202" y="94" type="line"/>
      <point x="302.831" y="186.954"/>
      <point x="438" y="312.398"/>
      <point x="438" y="488" type="curve" smooth="yes"/>
      <point x="438" y="552.695"/>
      <point x="427.673" y="622"/>
      <point x="364" y="622" type="curve" smooth="yes"/>
      <point x="288.651" y="622"/>
      <point x="235.342" y="555.043"/>
    </contour>
  </outline>
</glyph>
<glyph name="uni01F8" format="2">
  <advance width="721"/>
  <unicode hex="01F8"/>
  <outline>
    <contour>
      <point x="25" y="628" type="line"/>
      <point x="25" y="671" type="line"/>
      <point x="223" y="671" type="line"/>
      <point x="223" y="646" type="line"/>
      <point x="556" y="143" type="line"/>
      <point x="556" y="602" type="line" smooth="yes"/>
      <point x="556" y="613"/>
      <point x="546" y="623"/>
      <point x="535" y="624" type="curve" smooth="yes"/>
      <point x="478" y="628" type="line"/>
      <point x="478" y="671" type="line"/>
      <point x="692" y="671" type="line"/>
      <point x="692" y="628" type="line"/>
      <point x="636" y="624" type="line" smooth="yes"/>
      <point x="624" y="623"/>
      <point x="615" y="614"/>
      <point x="615" y="602" type="curve" smooth="yes"/>
      <point x="615" y="0" type="line"/>
      <point x="537" y="0" type="line"/>
      <point x="165" y="560" type="line"/>
      <point x="165" y="69" type="line" smooth="yes"/>
      <point x="165" y="57"/>
      <point x="174" y="48"/>
      <point x="186" y="47" type="curve" smooth="yes"/>
      <point x="243" y="43" type="line"/>
      <point x="243" y="0" type="line"/>
      <point x="27" y="0" type="line"/>
      <point x="27" y="43" type="line"/>
      <point x="84" y="47" type="line" smooth="yes"/>
      <point x="96" y="48"/>
      <point x="106" y="57"/>
      <point x="106" y="69" type="curve" smooth="yes"/>
      <point x="106" y="602" type="line" smooth="yes"/>
      <point x="106" y="614"/>
      <point x="96" y="623"/>
      <point x="84" y="624" type="curve" smooth="yes"/>
    </contour>
    <contour>
      <point x="154" y="883" type="curve" smooth="yes"/>
      <point x="154" y="911"/>
      <point x="172" y="928"/>
      <point x="200" y="928" type="curve" smooth="yes"/>
      <point x="230" y="928"/>
      <point x="240" y="917"/>
      <point x="254" y="901" type="curve" smooth="yes"/>
      <point x="387" y="746" type="line"/>
      <point x="330" y="746" type="line"/>
      <point x="178" y="843" type="line"/>
      <point x="165" y="852"/>
      <point x="154" y="862"/>
    </contour>
  </outline>
</glyph>
<glyph name="Oslashacute" format="2">
  <advance width="730"/>
  <unicode hex="01FE"/>
  <outline>
    <contour>
      <point x="39" y="336" type="curve" smooth="yes"/>
      <point x="39" y="538"/>
      <point x="164" y="686"/>
      <point x="366" y="686" type="curve" smooth="yes"/>
      <point x="425" y="686"/>
      <point x="476" y="671"/>
      <point x="516" y="651" type="curve"/>
      <point x="573" y="747" type="line"/>
      <point x="620" y="719" type="line"/>
      <point x="562" y="623" type="line"/>
      <point x="638" y="564"/>
      <point x="693" y="468"/>
      <point x="693" y="335" type="curve" smooth="yes"/>
      <point x="693" y="135"/>
      <point x="566" y="-16"/>
      <point x="366" y="-16" type="curve" smooth="yes"/>
      <point x="301" y="-16"/>
      <point x="248" y="-1"/>
      <point x="205" y="24" type="curve"/>
      <point x="144" y="-79" type="line"/>
      <point x="98" y="-51" type="line"/>
      <point x="161" y="55" type="line"/>
      <point x="90" y="111"/>
      <point x="39" y="210"/>
    </contour>
    <contour>
      <point x="154" y="336" type="curve" smooth="yes"/>
      <point x="154" y="253"/>
      <point x="172" y="182"/>
      <point x="205" y="130" type="curve"/>
      <point x="479" y="592" type="line"/>
      <point x="452" y="615"/>
      <point x="416" y="629"/>
      <point x="367" y="629" type="curve" smooth="yes"/>
      <point x="214" y="629"/>
      <point x="154" y="490"/>
    </contour>
    <contour>
      <point x="243" y="84" type="line"/>
      <point x="273" y="57"/>
      <point x="311" y="38"/>
      <point x="365" y="38" type="curve" smooth="yes"/>
      <point x="517" y="38"/>
      <point x="577" y="179"/>
      <point x="577" y="333" type="curve" smooth="yes"/>
      <point x="577" y="422"/>
      <point x="557" y="497"/>
      <point x="520" y="550" type="curve"/>
    </contour>
    <contour>
      <point x="338" y="807" type="line"/>
      <point x="470" y="962" type="line"/>
      <point x="482" y="977"/>
      <point x="495" y="989"/>
      <point x="523" y="989" type="curve" smooth="yes"/>
      <point x="552.658" y="989"/>
      <point x="570" y="972.588"/>
      <point x="570" y="944" type="curve" smooth="yes"/>
      <point x="570" y="925"/>
      <point x="558.012" y="910.981"/>
      <point x="547" y="904" type="curve" smooth="yes"/>
      <point x="394" y="807" type="line"/>
    </contour>
  </outline>
</glyph>
<glyph name="uni0201" format="2">
  <advance width="508"/>
  <unicode hex="0201"/>
  <outline>
    <contour>
      <point x="33" y="121" type="curve" smooth="yes"/>
      <point x="33" y="236"/>
      <point x="215" y="278"/>
      <point x="330" y="303" type="curve"/>
      <point x="330" y="346" type="line" smooth="yes"/>
      <point x="330" y="413"/>
      <point x="302" y="447"/>
      <point x="237" y="447" type="curve" smooth="yes"/>
      <point x="210" y="447"/>
      <point x="182" y="440"/>
      <point x="166" y="432" type="curve"/>
      <point x="166" y="345" type="line"/>
      <point x="93" y="345" type="line" smooth="yes"/>
      <point x="71" y="345"/>
      <point x="56" y="351"/>
      <point x="56" y="374" type="curve" smooth="yes"/>
      <point x="56" y="458"/>
      <point x="174" y="495"/>
      <point x="264" y="495" type="curve" smooth="yes"/>
      <point x="370" y="495"/>
      <point x="422" y="448"/>
      <point x="422" y="343" type="curve" smooth="yes"/>
      <point x="422" y="63" type="line" smooth="yes"/>
      <point x="422" y="51"/>
      <point x="432" y="43"/>
      <point x="443" y="42" type="curve"/>
      <point x="491" y="39" type="line"/>
      <point x="491" y="0" type="line"/>
      <point x="343" y="0" type="line"/>
      <point x="330" y="59" type="line"/>
      <point x="284" y="24"/>
      <point x="226" y="-13"/>
      <point x="162" y="-13" type="curve" smooth="yes"/>
      <point x="88" y="-13"/>
      <point x="33" y="44"/>
    </contour>
    <contour>
      <point x="133" y="129" type="curve" smooth="yes"/>
      <point x="133" y="81"/>
      <point x="160" y="45"/>
      <point x="207" y="45" type="curve" smooth="yes"/>
      <point x="249" y="45"/>
      <point x="295" y="68"/>
      <point x="330" y="92" type="curve"/>
      <point x="330" y="265" type="line"/>
      <point x="244" y="244"/>
      <point x="133" y="214"/>
    </contour>
    <contour>
      <point x="-36.5" y="692" type="curve" smooth="yes"/>
      <point x="-36.5" y="720.5"/>
      <point x="-20" y="737"/>
      <point x="8.5" y="737" type="curve" smooth="yes"/>
      <point x="33.3154" y="737"/>
      <point x="46.6602" y="730.449"/>
      <point x="63.5" y="710" type="curve" smooth="yes"/>
      <point x="196.5" y="555" type="line"/>
      <point x="138.5" y="555" type="line"/>
      <point x="-12.5" y="652" type="line" smooth="yes"/>
      <point x="-28.5117" y="661.854"/>
      <point x="-36.5" y="675.167"/>
    </contour>
    <contour>
      <point x="157.5" y="692" type="curve" smooth="yes"/>
      <point x="157.5" y="720.396"/>
      <point x="175.87" y="738"/>
      <point x="205.5" y="738" type="curve" smooth="yes"/>
      <point x="228.407" y="738"/>
      <point x="240.784" y="731.574"/>
      <point x="257.5" y="711" type="curve" smooth="yes"/>
      <point x="389.5" y="556" type="line"/>
      <point x="334.5" y="556" type="line"/>
      <point x="182.5" y="653" type="line" smooth="yes"/>
      <point x="165.414" y="663.515"/>
      <point x="157.5" y="675.86"/>
    </contour>
  </outline>
</glyph>
<glyph name="uni020B" format="2">
  <advance width="303"/>
  <unicode hex="020B"/>
  <outline>
    <contour>
      <point x="1.5" y="555" type="line"/>
      <point x="1.5" y="640.626"/>
      <point x="63.6035" y="704"/>
      <point x="150.5" y="704" type="curve" smooth="yes"/>
      <point x="239.226" y="704"/>
      <point x="298.5" y="642.049"/>
      <point x="298.5" y="555" type="curve"/>
      <point x="259.5" y="555" type="line"/>
      <point x="247.5" y="605.617"/>
      <point x="210.5" y="637"/>
      <point x="149.5" y="637" type="curve" smooth="yes"/>
      <point x="89.6094" y="637"/>
      <point x="53.2822" y="605.617"/>
      <point x="41.5" y="555" type="curve"/>
    </contour>
    <contour>
      <point x="34" y="0" type="line"/>
      <point x="34" y="39" type="line"/>
      <point x="83" y="42" type="line"/>
      <point x="94" y="43"/>
      <point x="104" y="51"/>
      <point x="104" y="63" type="curve" smooth="yes"/>
      <point x="104" y="411" type="line"/>
      <point x="35" y="411" type="line"/>
      <point x="35" y="444" type="line"/>
      <point x="157" y="482" type="line"/>
      <point x="197" y="482" type="line"/>
      <point x="197" y="63" type="line" smooth="yes"/>
      <point x="197" y="51"/>
      <point x="207" y="43"/>
      <point x="218" y="42" type="curve"/>
      <point x="269" y="39" type="line"/>
      <point x="269" y="0" type="line"/>
    </contour>
  </outline>
</glyph>
<glyph name="uni020C" format="2">
  <advance width="730"/>
  <unicode hex="020C"/>
  <outline>
    <contour>
      <point x="39" y="337" type="curve" smooth="yes"/>
      <point x="39" y="526"/>
      <point x="176" y="686"/>
      <point x="366" y="686" type="curve" smooth="yes"/>
      <point x="556" y="686"/>
      <point x="693" y="526"/>
      <point x="693" y="337" type="curve" smooth="yes"/>
      <point x="693" y="147"/>
      <point x="556" y="-15"/>
      <point x="366" y="-15" type="curve" smooth="yes"/>
      <point x="176" y="-15"/>
      <point x="39" y="147"/>
    </contour>
    <contour>
      <point x="155" y="337" type="curve" smooth="yes"/>
      <point x="155" y="207"/>
      <point x="214" y="39"/>
      <point x="364" y="39" type="curve" smooth="yes"/>
      <point x="514" y="39"/>
      <point x="576" y="207"/>
      <point x="576" y="337" type="curve" smooth="yes"/>
      <point x="576" y="467"/>
      <point x="518" y="628"/>
      <point x="368" y="628" type="curve" smooth="yes"/>
      <point x="218" y="628"/>
      <point x="155" y="467"/>
    </contour>
    <contour>
      <point x="65.5" y="883" type="curve" smooth="yes"/>
      <point x="65.5" y="911.5"/>
      <point x="82" y="928"/>
      <point x="110.5" y="928" type="curve" smooth="yes"/>
      <point x="135.315" y="928"/>
      <point x="148.66" y="921.449"/>
      <point x="165.5" y="901" type="curve" smooth="yes"/>
      <point x="298.5" y="746" type="line"/>
      <point x="240.5" y="746" type="line"/>
      <point x="89.5" y="843" type="line" smooth="yes"/>
      <point x="73.4883" y="852.854"/>
      <point x="65.5" y="866.167"/>
    </contour>
    <contour>
      <point x="259.5" y="883" type="curve" smooth="yes"/>
      <point x="259.5" y="911.396"/>
      <point x="277.87" y="929"/>
      <point x="307.5" y="929" type="curve" smooth="yes"/>
      <point x="330.407" y="929"/>
      <point x="342.784" y="922.574"/>
      <point x="359.5" y="902" type="curve" smooth="yes"/>
      <point x="491.5" y="747" type="line"/>
      <point x="436.5" y="747" type="line"/>
      <point x="284.5" y="844" type="line" smooth="yes"/>
      <point x="267.414" y="854.515"/>
      <point x="259.5" y="866.86"/>
    </contour>
  </outline>
</glyph>
<glyph name="uni0216" format="2">
  <advance width="711"/>
  <unicode hex="0216"/>
  <outline>
    <contour>
      <point x="31" y="628" type="line"/>
      <point x="31" y="671" type="line"/>
      <point x="285" y="671" type="line"/>
      <point x="285" y="628" type="line"/>
      <point x="228" y="624" type="line" smooth="yes"/>
      <point x="216" y="623"/>
      <point x="207" y="614"/>
      <point x="207" y="602" type="curve" smooth="yes"/>
      <point x="207" y="249" type="line" smooth="yes"/>
      <point x="207" y="122"/>
      <point x="248" y="52"/>
      <point x="376" y="52" type="curve" smooth="yes"/>
      <point x="502" y="52"/>
      <point x="547" y="124"/>
      <point x="547" y="249" type="curve" smooth="yes"/>
      <point x="547" y="602" type="line" smooth="yes"/>
      <point x="547" y="614"/>
      <point x="537" y="623"/>
      <point x="525" y="624" type="curve" smooth="yes"/>
      <point x="468" y="628" type="line"/>
      <point x="468" y="671" type="line"/>
      <point x="685" y="671" type="line"/>
      <point x="685" y="628" type="line"/>
      <point x="627" y="624" type="line" smooth="yes"/>
      <point x="615" y="623"/>
      <point x="606" y="614"/>
      <point x="606" y="602" type="curve" smooth="yes"/>
      <point x="606" y="223" type="line" smooth="yes"/>
      <point x="606" y="57"/>
      <point x="515" y="-15"/>
      <point x="349" y="-15" type="curve" smooth="yes"/>
      <point x="187" y="-15"/>
      <point x="105" y="63"/>
      <point x="105" y="223" type="curve" smooth="yes"/>
      <point x="105" y="602" type="line" smooth="yes"/>
      <point x="105" y="614"/>
      <point x="96" y="623"/>
      <point x="84" y="624" type="curve" smooth="yes"/>
    </contour>
    <contour>
      <point x="209.5" y="746" type="line"/>
      <point x="209.5" y="831.626"/>
      <point x="271.604" y="895"/>
      <point x="358.5" y="895" type="curve" smooth="yes"/>
      <point x="447.226" y="895"/>
      <point x="506.5" y="833.049"/>
      <point x="506.5" y="746" type="curve"/>
      <point x="467.5" y="746" type="line"/>
      <point x="455.5" y="796.617"/>
      <point x="418.5" y="828"/>
      <point x="357.5" y="828" type="curve" smooth="yes"/>
      <point x="297.609" y="828"/>
      <point x="261.282" y="796.617"/>
      <point x="249.5" y="746" type="curve"/>
    </contour>
  </outline>
</glyph>
<glyph name="scommaaccent" format="2">
  <advance width="397"/>
  <unicode hex="0219"/>
  <outline>
    <contour>
      <point x="33" y="11" type="curve"/>
      <point x="33" y="144" type="line"/>
      <point x="84" y="144" type="line"/>
      <point x="96" y="59" type="line"/>
      <point x="117" y="45"/>
      <point x="148" y="30"/>
      <point x="185" y="30" type="curve" smooth="yes"/>
      <point x="235" y="30"/>
      <point x="275" y="59"/>
      <point x="275" y="109" type="curve" smooth="yes"/>
      <point x="275" y="158"/>
      <point x="238.558" y="178.564"/>
      <point x="204" y="195" type="curve" smooth="yes"/>
      <point x="122" y="234" type="line" smooth="yes"/>
      <point x="75.7129" y="256.015"/>
      <point x="40" y="288.2"/>
      <point x="40" y="346" type="curve" smooth="yes"/>
      <point x="40" y="448.393"/>
      <point x="118" y="493"/>
      <point x="220" y="493" type="curve" smooth="yes"/>
      <point x="265" y="493"/>
      <point x="320" y="481"/>
      <point x="349" y="471" type="curve"/>
      <point x="349" y="353" type="line"/>
      <point x="297" y="353" type="line"/>
      <point x="289" y="423" type="line"/>
      <point x="273" y="435"/>
      <point x="241" y="449"/>
      <point x="213" y="449" type="curve" smooth="yes"/>
      <point x="182" y="449"/>
      <point x="131" y="432"/>
      <point x="131" y="377" type="curve" smooth="yes"/>
      <point x="131" y="333"/>
      <point x="157.864" y="314.583"/>
      <point x="189" y="300" type="curve" smooth="yes"/>
      <point x="268" y="263" type="line" smooth="yes"/>
      <point x="328.029" y="234.885"/>
      <point x="363" y="214.102"/>
      <point x="363" y="140" type="curve" smooth="yes"/>
      <point x="363" y="33.083"/>
      <point x="281" y="-14"/>
      <point x="172" y="-14" type="curve" smooth="yes"/>
      <point x="118" y="-14"/>
      <point x="71" y="-3"/>
    </contour>
    <contour>
      <point x="109" y="-121" type="curve" smooth="yes"/>
      <point x="109" y="-92"/>
      <point x="134" y="-74"/>
      <point x="164" y="-74" type="curve" smooth="yes"/>
      <point x="210" y="-74"/>
      <point x="235" y="-107"/>
      <point x="235" y="-156" type="curve" smooth="yes"/>
      <point x="235" y="-231.665"/>
      <point x="176.081" y="-270.153"/>
      <point x="111" y="-281" type="curve"/>
      <point x="111" y="-251" type="line"/>
      <point x="157" y="-237"/>
      <point x="183" y="-218"/>
      <point x="183" y="-158" type="curve"/>
      <point x="124" y="-158" type="line"/>
      <point x="116" y="-150"/>
      <point x="109" y="-137"/>
    </contour>
  </outline>
</glyph>
<glyph name="uni021B" format="2">
  <advance width="339"/>
  <unicode hex="021B"/>
  <outline>
    <contour>
      <point x="27" y="432" type="line"/>
      <point x="27" y="465" type="line"/>
      <point x="95" y="497" type="line"/>
      <point x="140" y="603" type="line"/>
      <point x="184" y="603" type="line"/>
      <point x="184" y="482" type="line"/>
      <point x="325" y="482" type="line"/>
      <point x="325" y="432" type="line"/>
      <point x="184" y="432" type="line"/>
      <point x="184" y="153" type="line" smooth="yes"/>
      <point x="184" y="88"/>
      <point x="201" y="44"/>
      <point x="264" y="44" type="curve" smooth="yes"/>
      <point x="291.924" y="44"/>
      <point x="314.157" y="50.6367"/>
      <point x="332" y="61" type="curve"/>
      <point x="332" y="21" type="line"/>
      <point x="296" y="4"/>
      <point x="252" y="-12"/>
      <point x="198" y="-12" type="curve" smooth="yes"/>
      <point x="121" y="-12"/>
      <point x="91" y="22"/>
      <point x="91" y="100" type="curve" smooth="yes"/>
      <point x="91" y="432" type="line"/>
    </contour>
    <contour>
      <point x="135" y="-119" type="curve" smooth="yes"/>
      <point x="135" y="-90"/>
      <point x="160" y="-72"/>
      <point x="190" y="-72" type="curve" smooth="yes"/>
      <point x="236" y="-72"/>
      <point x="261" y="-105"/>
      <point x="261" y="-154" type="curve" smooth="yes"/>
      <point x="261" y="-229.665"/>
      <point x="202.081" y="-268.153"/>
      <point x="137" y="-279" type="curve"/>
      <point x="137" y="-249" type="line"/>
      <point x="183" y="-235"/>
      <point x="209" y="-216"/>
      <point x="209" y="-156" type="curve"/>
      <point x="150" y="-156" type="line"/>
      <point x="142" y="-148"/>
      <point x="135" y="-135"/>
    </contour>
  </outline>
</glyph>
<glyph name="uni021C" format="2">
  <advance width="532"/>
  <unicode hex="021C"/>
  <outline>
    <contour>
      <point x="39" y="485" type="line"/>
      <point x="39" y="636" type="line"/>
      <point x="106.95" y="670"/>
      <point x="171.843" y="684.999"/>
      <point x="251" y="684.999" type="curve" smooth="yes"/>
      <point x="379.766" y="684.999"/>
      <point x="469" y="616.641"/>
      <point x="469" y="517.999" type="curve" smooth="yes"/>
      <point x="469" y="441.144"/>
      <point x="429.741" y="383.604"/>
      <point x="338" y="325.999" type="curve"/>
      <point x="430.51" y="305.762"/>
      <point x="488" y="244.44"/>
      <point x="488" y="165.999" type="curve" smooth="yes"/>
      <point x="488" y="31.829"/>
      <point x="340.512" y="-80.8548"/>
      <point x="60" y="-161.001" type="curve"/>
      <point x="60" y="-102.001" type="line"/>
      <point x="269.586" y="-35.5471"/>
      <point x="384" y="55.5608"/>
      <point x="384" y="156" type="curve" smooth="yes"/>
      <point x="384" y="230.5"/>
      <point x="335.648" y="278.852"/>
      <point x="258" y="282" type="curve"/>
      <point x="212.314" y="259.714"/>
      <point x="168.628" y="241.512"/>
      <point x="126" y="227" type="curve"/>
      <point x="126" y="286" type="line"/>
      <point x="290.632" y="348.447"/>
      <point x="371" y="420.614"/>
      <point x="371" y="506" type="curve" smooth="yes"/>
      <point x="371" y="584.34"/>
      <point x="314.969" y="636"/>
      <point x="230" y="636" type="curve" smooth="yes"/>
      <point x="191.658" y="636"/>
      <point x="148.538" y="621.755"/>
      <point x="118" y="599" type="curve"/>
      <point x="99" y="485" type="line"/>
    </contour>
  </outline>
</glyph>
<glyph name="uni0223" format="2">
  <advance width="513"/>
  <unicode hex="0223"/>
  <outline>
    <contour>
      <point x="35" y="193" type="curve" smooth="yes"/>
      <point x="35" y="298.329"/>
      <point x="109.414" y="364.321"/>
      <point x="196" y="384" type="curve"/>
      <point x="117.176" y="397.137"/>
      <point x="60" y="458.809"/>
      <point x="60" y="551" type="curve" smooth="yes"/>
      <point x="60" y="669.639"/>
      <point x="140.954" y="738"/>
      <point x="258" y="738" type="curve" smooth="yes"/>
      <point x="375.615" y="738"/>
      <point x="454" y="669.415"/>
      <point x="454" y="552" type="curve" smooth="yes"/>
      <point x="454" y="460.514"/>
      <point x="395.063" y="398.423"/>
      <point x="319" y="385" type="curve"/>
      <point x="402.987" y="364.308"/>
      <point x="480" y="296.68"/>
      <point x="480" y="193" type="curve" smooth="yes"/>
      <point x="480" y="70.5981"/>
      <point x="381.362" y="-13"/>
      <point x="258" y="-13" type="curve" smooth="yes"/>
      <point x="130.237" y="-13"/>
      <point x="35" y="66.7249"/>
    </contour>
    <contour>
      <point x="137" y="203" type="curve" smooth="yes"/>
      <point x="137" y="111.756"/>
      <point x="166.787" y="42"/>
      <point x="257" y="42" type="curve" smooth="yes"/>
      <point x="343" y="42"/>
      <point x="376" y="116"/>
      <point x="376" y="203" type="curve" smooth="yes"/>
      <point x="376" y="288.631"/>
      <point x="340.283" y="357"/>
      <point x="257" y="357" type="curve" smooth="yes"/>
      <point x="175" y="357"/>
      <point x="137" y="286"/>
    </contour>
    <contour>
      <point x="157" y="554" type="curve" smooth="yes"/>
      <point x="157" y="479.32"/>
      <point x="182.49" y="412"/>
      <point x="257" y="412" type="curve" smooth="yes"/>
      <point x="329" y="412"/>
      <point x="355" y="481"/>
      <point x="355" y="553" type="curve" smooth="yes"/>
      <point x="355" y="625.623"/>
      <point x="327.407" y="689"/>
      <point x="256" y="689" type="curve" smooth="yes"/>
      <point x="185" y="689"/>
      <point x="157" y="625"/>
    </contour>
  </outline>
</glyph>
<glyph name="uni0228" format="2">
  <advance width="583"/>
  <unicode hex="0228"/>
  <outline>
    <contour>
      <point x="32" y="0" type="line"/>
      <point x="32" y="43" type="line"/>
      <point x="84" y="47" type="line" smooth="yes"/>
      <point x="96" y="48"/>
      <point x="106" y="57"/>
      <point x="106" y="69" type="curve" smooth="yes"/>
      <point x="106" y="602" type="line" smooth="yes"/>
      <point x="106" y="614"/>
      <point x="96" y="623"/>
      <point x="84" y="624" type="curve" smooth="yes"/>
      <point x="32" y="628" type="line"/>
      <point x="32" y="671" type="line"/>
      <point x="518" y="671" type="line"/>
      <point x="518" y="522" type="line"/>
      <point x="458" y="522" type="line"/>
      <point x="443" y="604" type="line"/>
      <point x="441" y="613"/>
      <point x="435" y="623"/>
      <point x="425" y="623" type="curve" smooth="yes"/>
      <point x="208" y="623" type="line"/>
      <point x="208" y="374" type="line"/>
      <point x="358" y="374" type="line" smooth="yes"/>
      <point x="368" y="374"/>
      <point x="374" y="380"/>
      <point x="376" y="391" type="curve"/>
      <point x="386" y="460" type="line"/>
      <point x="437" y="460" type="line"/>
      <point x="437" y="237" type="line"/>
      <point x="386" y="237" type="line"/>
      <point x="377" y="306" type="line"/>
      <point x="376" y="316"/>
      <point x="370" y="324"/>
      <point x="359" y="324" type="curve" smooth="yes"/>
      <point x="209" y="324" type="line"/>
      <point x="209" y="49" type="line"/>
      <point x="462" y="49" type="line" smooth="yes"/>
      <point x="470" y="49"/>
      <point x="478" y="61"/>
      <point x="479" y="68" type="curve"/>
      <point x="497" y="167" type="line"/>
      <point x="551" y="167" type="line"/>
      <point x="551" y="0" type="line"/>
    </contour>
    <contour>
      <point x="216.5" y="-202.667" type="curve"/>
      <point x="216.5" y="-163.667" type="line"/>
      <point x="234.5" y="-167.667"/>
      <point x="256.5" y="-171.667"/>
      <point x="277.5" y="-171.667" type="curve" smooth="yes"/>
      <point x="309.5" y="-171.667"/>
      <point x="341.5" y="-162.667"/>
      <point x="341.5" y="-130.667" type="curve" smooth="yes"/>
      <point x="341.5" y="-104.667"/>
      <point x="325.5" y="-93.667"/>
      <point x="304.5" y="-93.667" type="curve" smooth="yes"/>
      <point x="294.5" y="-93.667"/>
      <point x="281.5" y="-95.667"/>
      <point x="271.5" y="-99.667" type="curve"/>
      <point x="271.5" y="7.33299" type="line"/>
      <point x="311.5" y="7.33299" type="line"/>
      <point x="311.5" y="-50.667" type="line"/>
      <point x="319.5" y="-47.667"/>
      <point x="325.5" y="-46.667"/>
      <point x="334.5" y="-46.667" type="curve" smooth="yes"/>
      <point x="380.5" y="-46.667"/>
      <point x="406.5" y="-71.667"/>
      <point x="406.5" y="-117.667" type="curve" smooth="yes"/>
      <point x="406.5" y="-182.667"/>
      <point x="356.5" y="-212.667"/>
      <point x="290.5" y="-212.667" type="curve" smooth="yes"/>
      <point x="263.5" y="-212.667"/>
      <point x="237.5" y="-208.667"/>
    </contour>
  </outline>
</glyph>
<glyph name="uni022D" format="2">
  <advance width="543"/>
  <unicode hex="022D"/>
  <outline>
    <contour>
      <point x="34" y="240" type="curve" smooth="yes"/>
      <point x="34" y="381"/>
      <point x="133" y="495"/>
      <point x="273" y="495" type="curve" smooth="yes"/>
      <point x="413" y="495"/>
      <point x="509" y="381"/>
      <point x="509" y="240" type="curve" smooth="yes"/>
      <point x="509" y="100"/>
      <point x="410" y="-13"/>
      <point x="270" y="-13" type="curve" smooth="yes"/>
      <point x="130" y="-13"/>
      <point x="34" y="100"/>
    </contour>
    <contour>
      <point x="89" y="725" type="line"/>
      <point x="89" y="788" type="line"/>
      <point x="424" y="788" type="line"/>
      <point x="424" y="725" type="line"/>
    </contour>
    <contour>
      <point x="138" y="240" type="curve" smooth="yes"/>
      <point x="138" y="150"/>
      <point x="172" y="34"/>
      <point x="272" y="34" type="curve" smooth="yes"/>
      <point x="372" y="34"/>
      <point x="406" y="150"/>
      <point x="406" y="240" type="curve" smooth="yes"/>
      <point x="406" y="330"/>
      <point x="373" y="450"/>
      <point x="273" y="450" type="curve" smooth="yes"/>
      <point x="173" y="450"/>
      <point x="138" y="330"/>
    </contour>
    <contour>
      <point x="80" y="555" type="line"/>
      <point x="95" y="610"/>
      <point x="125" y="665"/>
      <point x="195" y="665" type="curve" smooth="yes"/>
      <point x="222" y="665"/>
      <point x="240" y="654"/>
      <point x="258" y="643" type="curve" smooth="yes"/>
      <point x="279" y="630"/>
      <point x="300" y="617"/>
      <point x="333" y="617" type="curve" smooth="yes"/>
      <point x="361" y="617"/>
      <point x="383" y="639"/>
      <point x="386" y="665" type="curve"/>
      <point x="426" y="665" type="line"/>
      <point x="411" y="610"/>
      <point x="381" y="555"/>
      <point x="311" y="555" type="curve" smooth="yes"/>
      <point x="284" y="555"/>
      <point x="265" y="566"/>
      <point x="246" y="578" type="curve" smooth="yes"/>
      <point x="226" y="590"/>
      <point x="203" y="603"/>
      <point x="172" y="603" type="curve" smooth="yes"/>
      <point x="144" y="603"/>
      <point x="123" y="580"/>
      <point x="120" y="555" type="curve"/>
    </contour>
  </outline>
</glyph>
<glyph name="uni0230" format="2">
  <advance width="730"/>
  <unicode hex="0230"/>
  <outline>
    <contour>
      <point x="310" y="802" type="curve" smooth="yes"/>
      <point x="310" y="835"/>
      <point x="334" y="859"/>
      <point x="366" y="859" type="curve" smooth="yes"/>
      <point x="398" y="859"/>
      <point x="422" y="835"/>
      <point x="422" y="802" type="curve" smooth="yes"/>
      <point x="422" y="770"/>
      <point x="398" y="746"/>
      <point x="366" y="746" type="curve" smooth="yes"/>
      <point x="334" y="746"/>
      <point x="310" y="770"/>
    </contour>
    <contour>
      <point x="39" y="337" type="curve" smooth="yes"/>
      <point x="39" y="526"/>
      <point x="176" y="686"/>
      <point x="366" y="686" type="curve" smooth="yes"/>
      <point x="556" y="686"/>
      <point x="693" y="526"/>
      <point x="693" y="337" type="curve" smooth="yes"/>
      <point x="693" y="147"/>
      <point x="556" y="-15"/>
      <point x="366" y="-15" type="curve" smooth="yes"/>
      <point x="176" y="-15"/>
      <point x="39" y="147"/>
    </contour>
    <contour>
      <point x="155" y="337" type="curve" smooth="yes"/>
      <point x="155" y="207"/>
      <point x="214" y="39"/>
      <point x="364" y="39" type="curve" smooth="yes"/>
      <point x="514" y="39"/>
      <point x="576" y="207"/>
      <point x="576" y="337" type="curve" smooth="yes"/>
      <point x="576" y="467"/>
      <point x="518" y="628"/>
      <point x="368" y="628" type="curve" smooth="yes"/>
      <point x="218" y="628"/>
      <point x="155" y="467"/>
    </contour>
    <contour>
      <point x="198.5" y="919" type="line"/>
      <point x="198.5" y="982" type="line"/>
      <point x="533.5" y="982" type="line"/>
      <point x="533.5" y="919" type="line"/>
    </contour>
  </outline>
</glyph>
